<?xml version="1.0" encoding="UTF-8"?> <svg xmlns="http://www.w3.org/2000/svg" viewBox="0 0 529.93 331.49"><defs><style>.cls-1{fill:#026735;}</style></defs><g id="Layer_2" data-name="Layer 2"><g id="Layer_1-2" data-name="Layer 1"><path class="cls-1" d="M223.68,194.06c-35.76-5.69-30.43,16.3-30.43,16.3,14.22,11.51,30.43-16.3,30.43-16.3"></path><path class="cls-1" d="M118.48,219.2c-5.67,36.68,15.78,31.28,15.78,31.28,11.26-14.55-15.78-31.28-15.78-31.28"></path><path class="cls-1" d="M203.14,219.48c2.77,9.23,10.55,5.81,15.76,3.3s10.56,1,10.56,1-6.45-8.78-13-10.66-13.32,6.33-13.32,6.33"></path><path class="cls-1" d="M225.64,187.8s10-4,13.5-10S236.8,163,236.8,163c-9.41.26-8.3,8.86-7.35,14.7s-3.81,10.15-3.81,10.15"></path><path class="cls-1" d="M160.6,237c4.22-3.76,12-12.76,2.22-21,0,0-9.66,1.51-12,9.47s6.55,20.05,6.55,20.05A9.49,9.49,0,0,1,160.6,237"></path><path class="cls-1" d="M183.14,201.13c9.67-3.08,12.78-16.52,7.89-26.21A19.68,19.68,0,0,0,176.7,164.2c4.89,6.84-1.55,15.73-3.33,23.94s9.77,13,9.77,13"></path><path class="cls-1" d="M218.28,133.38c9.67-3.07,12.78-16.52,7.89-26.21a19.65,19.65,0,0,0-14.33-10.71c4.89,6.83-1.55,15.72-3.33,23.93s9.77,13,9.77,13"></path><path class="cls-1" d="M262.41,63.28a15.44,15.44,0,0,0-6.09-12.34c1,6.37-6.36,10.1-10.33,15s2.23,12.27,2.23,12.27c7.59,1.35,14.23-6.66,14.19-15"></path><path class="cls-1" d="M143.73,112.92c-8.73-5.25-20.51,1.46-24.18,11.69a20.62,20.62,0,0,0,1.94,18.09c1.63-8.32,12.37-9.43,19.47-13.61s2.77-16.17,2.77-16.17"></path><path class="cls-1" d="M231,128.53c-4.24,3.79,1.64,11.5,1.64,11.5,16.32-2.81,11-24.57,11-24.57-.65,6.13-8.41,9.28-12.65,13.07"></path><path class="cls-1" d="M114.29,175.37c9.11-1.25,9.44-5.24,9-10.88a12.78,12.78,0,0,1,2.22-8.83c-19.21,6.38-11.22,19.71-11.22,19.71"></path><path class="cls-1" d="M191.15,82.76a12.78,12.78,0,0,1,2.22-8.83c-19.21,6.38-11.22,19.72-11.22,19.72,9.11-1.26,9.44-5.25,9-10.89"></path><path class="cls-1" d="M83.8,249.91c-7.59-5.32-10.43-2.58-13.78,1.92s-7.41,5-7.41,5c18.45,8.44,21.19-7,21.19-7"></path><path class="cls-1" d="M52.78,297.6c-8.82-2.65-10.7.85-12.53,6.19s-5.53,7.15-5.53,7.15c20.08,2.17,18.06-13.34,18.06-13.34"></path><path class="cls-1" d="M129.83,91.24c15.11-21.93-16.29-37-16.29-37-12.15,37.89,16.29,37,16.29,37"></path><path class="cls-1" d="M81.42,145.63c12.44-4.33,11.11-15,6.77-22.68S85,111.09,85,111.09c-28.2,22.68-3.55,34.54-3.55,34.54"></path><path class="cls-1" d="M48.73,269.53c20.17,22,27.77.4,27.77.4-4.38-10.11-12.81-8.19-18.57-4s-9.2,3.59-9.2,3.59"></path><path class="cls-1" d="M66.79,306.65c4.28-3.21,7.63-8.92,1.69-14.53,0,0-16.72.44-6.37,20.41,0,0,.4-2.66,4.68-5.88"></path><path class="cls-1" d="M34.62,252.78c29.93,8.27,28-14.94,28-14.94-17.68-11.38-28,14.94-28,14.94"></path><path class="cls-1" d="M197.65,174.16c29.93,8.27,28-14.94,28-14.94-17.69-11.38-28,14.94-28,14.94"></path><path class="cls-1" d="M185,133.3c-14.92-15.64-34.92,7.72-34.92,7.72,29,15.62,34.92-7.72,34.92-7.72"></path><path class="cls-1" d="M206.24,78.82c16,29.4,33.34,13.16,33.34,13.16-4.14-21.47-33.34-13.16-33.34-13.16"></path><path class="cls-1" d="M31.67,297C13.36,286.05,1.3,313.64,1.3,313.64,32.76,320.81,31.67,297,31.67,297"></path><path class="cls-1" d="M78.71,232.45c9.92-3.46,8.86-12,5.41-18.09s-2.57-9.45-2.57-9.45c-22.5,18.08-2.84,27.54-2.84,27.54"></path><path class="cls-1" d="M183.17,148.62c-4.47,5.36-7.86,5.6-7.86,5.6,24.05,15.85,26.28-6.31,26.28-6.31-6.45-8.48-14-4.64-18.42.71"></path><path class="cls-1" d="M35.17,217.62c-8.2-21-28.06-14-28.06-14,7.54,22.46,28.06,14,28.06,14"></path><path class="cls-1" d="M179.34,38.74c7.54,22.46,28.06,13.95,28.06,13.95-8.21-21-28.06-13.95-28.06-13.95"></path><path class="cls-1" d="M55.34,283.64c-8.21-21-28.06-13.95-28.06-13.95,7.54,22.46,28.06,13.95,28.06,13.95"></path><path class="cls-1" d="M39,188.21c-11.84,22,7.74,33.4,7.74,33.4C57,200.07,39,188.21,39,188.21"></path><path class="cls-1" d="M52.66,135.48s-4.87-9.08-17.49-4.65c0,0,5.91,10.24,17.49,4.65"></path><path class="cls-1" d="M41.77,161.92c10.66,1.71,21.66-3.53,22.66-9.45,0,0-3.33-11.06-11.77-10s-14.74,10.27-27.42,7.13c0,0,5.87,10.64,16.53,12.35"></path><path class="cls-1" d="M78.29,103.34C89,105.05,100,99.81,101,93.88c0,0-3.33-11-11.77-10S74.44,94.13,61.76,91c0,0,5.87,10.64,16.53,12.35"></path><path class="cls-1" d="M254,21.66C259.83,15.89,261.32,0,261.32,0s-24,8.33-20.32,24.19c0,0,7.18,3.25,13-2.53"></path><path class="cls-1" d="M207.59,29.79a10.5,10.5,0,0,0,7.85-8.19c1.34-6.89-5.09-18.67-5.09-18.67s-12.76,17.66-2.76,26.86"></path><path class="cls-1" d="M81.36,183.24c-7.38,6.27-10.6,20.17-10.6,20.17s4.44-8.55,13.38-8,15.83-1.14,13.38-12.19c0,0-8.79-6.27-16.16,0"></path><path class="cls-1" d="M105.57,102.4C98.19,108.67,95,122.57,95,122.57s4.44-8.54,13.38-8,15.83-1.14,13.38-12.2c0,0-8.79-6.27-16.16,0"></path><path class="cls-1" d="M104.19,204.44s18.32,4,20.65-8.81c0,0-9-8.29-20.65,8.81"></path><path class="cls-1" d="M171.09,118.88s-9-8.29-20.65,8.8c0,0,18.32,4,20.65-8.8"></path><path class="cls-1" d="M11.38,286.09c10.62,3.65,15.9-4.24,15.9-4.24-1-13-11.38-11.08-18.52-10.74S0,266.71,0,266.71s.75,15.73,11.38,19.38"></path><path class="cls-1" d="M156.7,49c12.37-2.8,9.14-13.06,7.84-20.28s3.06-9.51,3.06-9.51-15.08,2.9-17.16,14.2S156.7,49,156.7,49"></path><path class="cls-1" d="M28.9,311.15s.75,15.73,11.38,19.38,15.9-4.25,15.9-4.25c-1-13-11.37-11.07-18.52-10.74s-8.76-4.39-8.76-4.39"></path><path class="cls-1" d="M411.46,219.2s-27,16.73-15.79,31.28c0,0,21.45,5.4,15.79-31.28"></path><path class="cls-1" d="M311,222.78c5.22,2.51,13,5.93,15.77-3.3,0,0-6.78-8.21-13.33-6.33s-13,10.66-13,10.66,5.33-3.53,10.55-1"></path><path class="cls-1" d="M293.13,163s-5.87,8.91-2.34,14.88,13.5,10,13.5,10-4.75-4.32-3.81-10.15,2.07-14.44-7.35-14.7"></path><path class="cls-1" d="M379.1,225.53c-2.33-8-12-9.47-12-9.47-9.77,8.21-2,17.21,2.22,21a9.49,9.49,0,0,1,3.22,8.55s8.88-12.08,6.55-20.05"></path><path class="cls-1" d="M294.33,100.64c-1.33-4.56-6.87-5.42-6.87-5.42-5.6,4.7-1.14,9.86,1.28,12a5.46,5.46,0,0,1,1.84,4.9s5.09-6.92,3.75-11.49"></path><path class="cls-1" d="M346.78,201.13s11.55-4.79,9.78-13-8.22-17.1-3.33-23.94a19.68,19.68,0,0,0-14.33,10.72c-4.89,9.69-1.78,23.13,7.88,26.21"></path><path class="cls-1" d="M303.76,107.17c-4.88,9.69-1.77,23.14,7.89,26.21,0,0,11.55-4.78,9.77-13s-8.22-17.1-3.33-23.93a19.65,19.65,0,0,0-14.33,10.71"></path><path class="cls-1" d="M281.71,78.24s6.2-7.35,2.23-12.27-11.33-8.66-10.33-15a15.44,15.44,0,0,0-6.09,12.34c0,8.3,6.6,16.31,14.19,15"></path><path class="cls-1" d="M329,77.26a15,15,0,0,0,1.41-13.15c-2.67-7.44-11.24-12.32-17.59-8.5,0,0-3.16,8.71,2,11.76s13,3.85,14.17,9.89"></path><path class="cls-1" d="M408.44,142.7a20.65,20.65,0,0,0,1.95-18.09c-3.69-10.23-15.46-16.94-24.19-11.69,0,0-4.34,12,2.77,16.17s17.84,5.29,19.47,13.61"></path><path class="cls-1" d="M415.64,175.37s8-13.33-11.22-19.71a12.78,12.78,0,0,1,2.22,8.83c-.44,5.64-.11,9.63,9,10.88"></path><path class="cls-1" d="M347.78,93.65s8-13.34-11.22-19.72a12.78,12.78,0,0,1,2.22,8.83c-.44,5.64-.11,9.63,9,10.89"></path><path class="cls-1" d="M459.91,251.83c-3.35-4.5-6.19-7.24-13.78-1.92,0,0,2.74,15.4,21.19,7,0,0-4.07-.54-7.41-5"></path><path class="cls-1" d="M489.68,303.79c-1.82-5.34-3.71-8.84-12.53-6.19,0,0-2,15.51,18.06,13.34,0,0-3.7-1.81-5.53-7.15"></path><path class="cls-1" d="M400.1,91.24s28.44.92,16.29-37c0,0-31.4,15-16.29,37"></path><path class="cls-1" d="M448.51,145.63s24.65-11.86-3.55-34.54c0,0,1.11,4.22-3.22,11.86s-5.67,18.35,6.77,22.68"></path><path class="cls-1" d="M481.2,269.53s-3.44.62-9.2-3.59-14.19-6.12-18.57,4c0,0,7.6,21.57,27.77-.4"></path><path class="cls-1" d="M461.45,292.12c-5.94,5.61-2.59,11.32,1.69,14.53s4.68,5.88,4.68,5.88c10.35-20-6.37-20.41-6.37-20.41"></path><path class="cls-1" d="M495.31,252.78s-10.29-26.32-28-14.94c0,0-2,23.21,28,14.94"></path><path class="cls-1" d="M498.27,297s-1.1,23.82,30.35,16.65c0,0-12-27.59-30.35-16.65"></path><path class="cls-1" d="M451.22,232.45s19.66-9.46-2.84-27.54c0,0,.89,3.36-2.57,9.45s-4.51,14.63,5.41,18.09"></path><path class="cls-1" d="M354.62,154.22s-3.39-.24-7.86-5.6-12-9.19-18.42-.71c0,0,2.23,22.16,26.28,6.31"></path><path class="cls-1" d="M494.76,217.62s20.52,8.51,28.06-14c0,0-19.86-7-28.06,14"></path><path class="cls-1" d="M350.59,38.74s-19.85-7-28.06,13.95c0,0,20.52,8.51,28.06-13.95"></path><path class="cls-1" d="M502.65,269.69s-19.85-7.05-28.06,13.95c0,0,20.52,8.51,28.06-13.95"></path><path class="cls-1" d="M491,188.21s-18.06,11.86-7.74,33.4c0,0,19.58-11.41,7.74-33.4"></path><path class="cls-1" d="M477.27,135.48c11.58,5.59,17.49-4.65,17.49-4.65-12.62-4.43-17.49,4.65-17.49,4.65"></path><path class="cls-1" d="M429.91,61c-10.41,8.55-5.55,17.64-5.55,17.64,10.8-7,5.55-17.64,5.55-17.64"></path><path class="cls-1" d="M465.5,152.47c1,5.92,12,11.16,22.66,9.45s16.53-12.35,16.53-12.35c-12.68,3.14-19-6.11-27.42-7.13s-11.77,10-11.77,10"></path><path class="cls-1" d="M288.93,24.19C292.6,8.33,268.61,0,268.61,0s1.49,15.89,7.32,21.66,13,2.53,13,2.53"></path><path class="cls-1" d="M360.09,80.62c14.59-13.44-4-39.2-4-39.2s-9.38,17.19-7.43,27.25,11.46,12,11.46,12"></path><path class="cls-1" d="M322.34,29.79c10-9.2-2.76-26.86-2.76-26.86s-6.43,11.78-5.09,18.67a10.5,10.5,0,0,0,7.85,8.19"></path><path class="cls-1" d="M448.57,183.24c-7.37-6.27-16.16,0-16.16,0-2.44,11,4.44,12.76,13.38,12.19s13.38,8,13.38,8-3.22-13.9-10.6-20.17"></path><path class="cls-1" d="M421.58,114.6c8.94-.57,13.38,8,13.38,8s-3.22-13.9-10.59-20.17-16.17,0-16.17,0c-2.44,11.06,4.44,12.77,13.38,12.2"></path><path class="cls-1" d="M425.74,204.44c-11.66-17.1-20.65-8.81-20.65-8.81,2.33,12.82,20.65,8.81,20.65,8.81"></path><path class="cls-1" d="M384,100.49c12.07-4.08,5.75-22.18,5.75-22.18-15,14.13-5.75,22.18-5.75,22.18"></path><path class="cls-1" d="M379.49,127.68c-11.66-17.09-20.65-8.8-20.65-8.8,2.33,12.82,20.65,8.8,20.65,8.8"></path><path class="cls-1" d="M521.17,271.11c-7.14-.34-17.49-2.22-18.52,10.74,0,0,5.28,7.89,15.9,4.24s11.38-19.38,11.38-19.38-1.62,4.74-8.76,4.4"></path><path class="cls-1" d="M365.39,28.7c-1.3,7.22-4.53,17.48,7.85,20.28,0,0,8.33-4.29,6.25-15.59s-17.16-14.2-17.16-14.2,4.36,2.29,3.06,9.51"></path><path class="cls-1" d="M381.18,55.81s5.27,7.89,15.9,4.24,11.37-19.38,11.37-19.38-1.61,4.74-8.76,4.4-17.49-2.22-18.51,10.74"></path><path class="cls-1" d="M473.75,326.28s5.28,7.9,15.9,4.25S501,311.15,501,311.15s-1.62,4.74-8.76,4.39-17.5-2.22-18.52,10.74"></path></g></g></svg> 