<?xml version="1.0" encoding="UTF-8"?> <svg xmlns="http://www.w3.org/2000/svg" viewBox="0 0 502.9 125.81"><defs><style>.cls-1,.cls-2{fill:#6abacc;}.cls-2{fill-rule:evenodd;}</style></defs><g id="Layer_2" data-name="Layer 2"><g id="Layer_1-2" data-name="Layer 1"><path class="cls-1" d="M51.77,75a65.17,65.17,0,0,1,10,5.55c.59.4,1.19.81,1.78,1.23,4,2.79,7.9,5.89,12.1,8.45C73.81,91.57,72,93,70.21,94.37c-.67.51-1.35,1-2,1.49L66.5,94.71,65,93.65c-7.31-5.37-15.19-12.4-24.71-13.19s-15.2,6.65-22,11.69c-.72.53-1.45,1-2.18,1.5A47.86,47.86,0,0,1,4.91,99Q2.36,94.63,0,90.45a44.62,44.62,0,0,0,5.17-1.82,47.58,47.58,0,0,0,10.38-6.07l3.79-2.91c5.05-3.81,10.24-7.16,17-7.68a26.56,26.56,0,0,1,4.37,0,36,36,0,0,1,11.11,3"></path><path class="cls-1" d="M171.15,96.07c-8.83-5.16-16.69-13.89-27-14.69-10-.77-18.53,5.78-26.72,11.69q-.51-.36-1-.69a70.3,70.3,0,0,0-6.61-3.94c2.88-1.75,5.74-3.62,8.64-5.39l.17-.1c6.19-3.77,12.57-7.11,19.8-8,.36-.05.71-.07,1.07-.1A26.19,26.19,0,0,1,151,76.5a42.15,42.15,0,0,1,10.25,5.8c.68.51,1.35,1,2,1.58,4,3.2,8.18,6.81,12.76,9.24-1.64.95-3.27,1.94-4.88,2.95"></path><path class="cls-1" d="M70.21,94.37c1.82-1.39,3.6-2.8,5.43-4.12C80.19,87,85,84.24,91,83.78a26.25,26.25,0,0,1,5.17.11,40.45,40.45,0,0,1,13.68,4.55,70.3,70.3,0,0,1,6.61,3.94q.51.33,1,.69c1.3.89,2.6,1.83,3.9,2.78,1.93,1.41,3.86,2.83,5.84,4.18a82.1,82.1,0,0,0-8.53,4.64C111.64,99.43,104.06,93,95,92.26,85.58,91.49,79.8,98.92,73,104c-.71.53-1.44,1-2.18,1.51s-1.65,1-2.5,1.52c-2.18-1.6-4.34-3.2-6.54-4.67q-1.24-.82-2.55-1.62a47.4,47.4,0,0,0,8.95-4.83c.7-.48,1.38-1,2-1.49"></path><path class="cls-1" d="M161.23,104c-.5-.36-1-.72-1.5-1.07,3.43-1.84,6.79-4,10.16-6.11l1.26-.79c1.61-1,3.24-2,4.88-2.95,5.33-3.07,10.89-5.61,17.05-6.39,8.59-1.09,16.11,2.36,22.81,7.38,8.09,6,16.33,14.93,27.52,13.43,2-.27,2.89,2.38.86,3-6.43,2.12-11.87.8-16.93-1.87-9.47-5-17.63-14.69-28.51-15.53-11.53-.9-21.1,7.94-30.45,14.3-.51.35-1,.68-1.52,1-1.91-1.53-3.77-3.07-5.63-4.46"></path><path class="cls-1" d="M43.9,94.23a47.7,47.7,0,0,1,15.31,6.46q1.3.8,2.55,1.62c2.2,1.47,4.36,3.07,6.54,4.67,4.79,3.49,9.68,6.94,15.28,8.88a22.44,22.44,0,0,0,9,1.13,30.06,30.06,0,0,0,11-3.34c4.15-2.1,8.16-4.71,12.22-7.25l2.78-1.73a82.1,82.1,0,0,1,8.53-4.64,38.45,38.45,0,0,1,11.24-3.36c8-1,15,1.88,21.31,6.3.51.35,1,.71,1.5,1.07,1.86,1.39,3.72,2.93,5.63,4.46,6.4,5.13,13.27,10.13,21.89,9,2-.27,2.88,2.38.86,3-6.43,2.12-11.87.8-16.94-1.87-9.46-5-17.63-14.69-28.51-15.54-11.52-.89-21.1,7.95-30.45,14.31a57.9,57.9,0,0,1-5.28,3.25c-6,3.21-12.71,5.54-19.64,5.07-8.36-.55-15.65-4.58-22.29-9.3L65,115.39C57.73,110,49.85,103,40.33,102.2s-15.2,6.65-22,11.69c-.72.53-1.45,1-2.18,1.5l-1.05.67q-2.52-4.09-4.94-8.16a48.65,48.65,0,0,0,5.4-3.59C21.28,99.9,26.76,95.34,34,94a22,22,0,0,1,2.32-.32,28.14,28.14,0,0,1,7.61.52"></path><path class="cls-1" d="M445.14,75a65.17,65.17,0,0,0-10,5.55c-.6.4-1.19.81-1.78,1.23-4,2.79-7.91,5.89-12.1,8.45,1.82,1.32,3.61,2.73,5.42,4.12.67.51,1.36,1,2.06,1.49l1.66-1.15,1.46-1.06c7.3-5.37,15.18-12.4,24.71-13.19s15.19,6.65,22,11.69c.71.53,1.44,1,2.18,1.5a49.6,49.6,0,0,0,16.91,6.89l5.22-8.84a43.67,43.67,0,0,1-11.16-3.07,47.58,47.58,0,0,1-10.38-6.07c-1.27-1-2.53-2-3.8-2.91-5.05-3.81-10.24-7.16-16.95-7.68a26.44,26.44,0,0,0-4.36,0,36,36,0,0,0-11.11,3"></path><path class="cls-1" d="M325.76,96.07c8.83-5.16,16.69-13.89,27-14.69,10-.77,18.53,5.78,26.72,11.69l1-.69a71.6,71.6,0,0,1,6.61-3.94c-2.88-1.75-5.74-3.62-8.64-5.39l-.17-.1c-6.18-3.77-12.56-7.11-19.79-8-.36-.05-.72-.07-1.08-.1a26.12,26.12,0,0,0-11.48,1.67,42.15,42.15,0,0,0-10.25,5.8c-.68.51-1.36,1-2,1.58-4,3.19-8.18,6.81-12.76,9.24,1.64.95,3.26,1.94,4.88,2.95"></path><path class="cls-1" d="M426.69,94.37c-1.81-1.39-3.6-2.8-5.42-4.12-4.55-3.29-9.33-6-15.32-6.47a26.25,26.25,0,0,0-5.17.11,40.43,40.43,0,0,0-13.69,4.55,71.6,71.6,0,0,0-6.61,3.94l-1,.69c-1.31.89-2.6,1.83-3.9,2.78-1.93,1.41-3.87,2.83-5.84,4.18a82,82,0,0,1,8.52,4.64c7-5.24,14.59-11.66,23.66-12.41,9.41-.77,15.2,6.66,22,11.69.72.53,1.45,1,2.19,1.51s1.65,1,2.49,1.52c2.19-1.6,4.35-3.2,6.55-4.67.83-.55,1.68-1.09,2.54-1.62a47.63,47.63,0,0,1-8.94-4.83c-.7-.48-1.39-1-2.06-1.49"></path><path class="cls-1" d="M335.68,104l1.49-1.07c-3.43-1.84-6.78-4-10.16-6.11l-1.25-.79c-1.62-1-3.24-2-4.88-2.95-5.34-3.07-10.89-5.61-17.06-6.39-8.59-1.09-16.1,2.36-22.81,7.38-8.09,6-16.33,14.93-27.52,13.43-2-.27-2.88,2.38-.86,3,6.43,2.12,11.87.8,16.94-1.87,9.46-5,17.63-14.69,28.51-15.53,11.52-.9,21.1,7.94,30.45,14.3.51.35,1,.68,1.52,1,1.9-1.53,3.77-3.07,5.63-4.46"></path><path class="cls-1" d="M453,94.23a47.88,47.88,0,0,0-15.31,6.46c-.86.53-1.71,1.07-2.54,1.62-2.2,1.47-4.36,3.07-6.55,4.67-4.79,3.49-9.67,6.94-15.27,8.88a22.46,22.46,0,0,1-9.06,1.13,30.06,30.06,0,0,1-11-3.34c-4.15-2.1-8.16-4.7-12.22-7.25-.92-.59-1.85-1.16-2.79-1.73a82,82,0,0,0-8.52-4.64,38.63,38.63,0,0,0-11.24-3.36c-8-1-15,1.88-21.32,6.3L335.68,104c-1.86,1.39-3.73,2.93-5.63,4.46-6.4,5.13-13.27,10.13-21.89,9-2-.26-2.89,2.39-.86,3.06,6.43,2.12,11.87.8,16.93-1.87,9.47-5,17.63-14.69,28.52-15.54,11.52-.89,21.1,7.95,30.44,14.31a59.3,59.3,0,0,0,5.28,3.25c6,3.21,12.72,5.54,19.65,5.07,8.36-.55,15.64-4.58,22.29-9.3l1.46-1.06c7.3-5.37,15.18-12.4,24.71-13.19s15.19,6.65,22,11.69c.71.53,1.44,1,2.18,1.5a46.5,46.5,0,0,0,6.14,3.38l4.93-8.35a47.39,47.39,0,0,1-10.48-6.11c-5.74-4.41-11.22-9-18.42-10.28a21.78,21.78,0,0,0-2.33-.32,28.16,28.16,0,0,0-7.61.52"></path><path class="cls-2" d="M332.68,11.67A35.36,35.36,0,0,1,360.62,0,41.48,41.48,0,0,0,353,14.47c5.29,2.5,10.14,6.19,15.25,9.67,9.71,6.58,12.16-9.84,26-10.09-4.66,5.16-.63,15-12,19.05,11.1,6.27,4.07,12,7.92,17.82-14.44-2-13.49-17.26-23-11.38-9,5.17-16.72,9.77-25.07,8.57a15.42,15.42,0,0,0,10.63,1.65,25.91,25.91,0,0,0,4.24,8.91,27.81,27.81,0,0,1-20.71-10.49c-20.56-3.34-28.66-12-34.91-21.11a51.82,51.82,0,0,1,31.43-15.4M316.3,26.92a2.56,2.56,0,1,0-2.37-2.75A2.55,2.55,0,0,0,316.3,26.92Z"></path><path class="cls-2" d="M111.74,34.68Zm-.18-.09h0Zm-.33-.17.15.08ZM104,30.07h0l.15.11h0Zm-.51-.36,0,0,.13.09Zm-1.86-1.35.51.37Zm-.17-.13-.5-.39.16.13h0Zm.68.5-.51-.37-.17-.13.14.1,0,0Zm.16.13-.16-.13.1.08Zm.68.49-.17-.12.08.05Zm.51.36-.17-.12,0,0Zm.34.24-.17-.12,0,0Zm.17.12-.17-.12,0,0Zm4.1,2.64-.17-.1.16.09Zm.18.1-.18-.1.16.09Zm.86.49-.17-.09.08,0h0Zm.17.1-.17-.1.11.06Zm1.22.66-.17-.09.05,0Zm.17.09-.17-.09,0,0Zm.18.09-.18-.09,0,0Zm.52.27-.17-.09.16.08Zm-11-7.1A94,94,0,0,1,92.06,20,96.23,96.23,0,0,0,100.4,27.41Zm.14.11h0l.41.32.15.12-.15-.12Zm69.62-10.16a3.92,3.92,0,0,0-.51-.07A3.27,3.27,0,0,1,170.16,17.36Zm-.51-.07h0Zm.79.15h0a2.63,2.63,0,0,0-.3-.09Zm24.71,15.62v-.55A5,5,0,0,1,195.15,33.06ZM134,39.15h0Zm-.19-.1-.88.08h0a36.62,36.62,0,0,1-5.13,0h0a36.34,36.34,0,0,0,5.11,0h0Zm.67-.08L134,39Zm.89-.12-.44.07Zm32.51-5.12-.08-.68c0-.09,0-.18,0-.27,0,.09,0,.18,0,.27S167.86,33.51,167.88,33.73ZM137.56,56.9c9.37,3,32.08-5.42,30.32-23.16l.47,0c3.26-.17,7.22,2.92,11.44,3.21a44.9,44.9,0,0,0,5.56-.07c4.26-.23,8.05-.46,9,2.17.21-.86.37-1.69.5-2.49,0-.26.07-.5.11-.75.11-.9.18-1.76.21-2.59A17.08,17.08,0,0,0,194.3,27a13.13,13.13,0,0,0-.74-1.75,12.62,12.62,0,0,0-2.66-3.5l-.07-.07a15,15,0,0,0-3.14-2.17l-.14-.08c-.51-.26-1-.49-1.59-.71l-.24-.1A30.36,30.36,0,0,0,175.05,17l-5.43.31h0l-.25,0-.12,0a8.81,8.81,0,0,0,1.32-2.56,2.5,2.5,0,0,0,.11-1,2.66,2.66,0,0,0-.54-.44c-3-2-2.15-2.26-5.58-1.57l-.2,0C146.53,38.1,124,37.86,105,26.36h-.15a73.4,73.4,0,0,1-9.54-7c-.88-.76-2-2.08-3.07-1.07s-.68,1.24-.22,1.69c-6.58,1.68-14.89,6.17-15.53,12.35-.19,1.82.32,1.25,1.25.53a21.8,21.8,0,0,1,7.57-4.07c5.49-1.24,8.11.07,13.18-.44.62-.07,1.22-.16,1.79-.28-2.65,4.21-8.49,3.81-14.06,5.28-4.31,1.14-11.42,5.87-10.59,10.89.74,4.51,10.46,3.78,14.8,2.95,13.4-2.56,14.86-14,21.51-12.35l-.69-.35.16.09h.26l0,0h.24a42,42,0,0,0,15.87,4.39c-1.74,1.5-3.57,2.94-5.11,4.17-2.53,2-2,3.72,1.29,4.78,6.32,2,18-1.52,22.36-10.14l-.2,0,.2,0,2.41-.46c1,3.37-7.37,9.83-12.62,14C133.28,53.81,133.86,55.72,137.56,56.9Zm11.18-19.39A2.47,2.47,0,0,0,147.16,36,2.47,2.47,0,0,1,148.74,37.51ZM147.16,36a6.62,6.62,0,0,0-.95-.31A6.62,6.62,0,0,1,147.16,36Zm-1-.31c.41-.18.82-.37,1.22-.57C147,35.3,146.61,35.49,146.2,35.67Zm9.15-5.26c.54-.38,1.85-1.39,3.5-2.75C157.2,29,155.89,30,155.35,30.41Zm-2.49-8.94a49.67,49.67,0,0,0,4-4.15l.9-1.05.06-.08q2-2.37,3.86-5.16a46.78,46.78,0,0,0-31.21-9.76A61.74,61.74,0,0,0,95.69,16.53c.62.56,1.24,1.11,1.88,1.65l.65.55c1.07.89,2.15,1.75,3.26,2.57s2.49,1.77,3.76,2.58c.54.35,1.08.68,1.63,1a55.42,55.42,0,0,0,5.5,2.87h0l.88.38c.4.17.8.34,1.2.49h0l.87.33a39.61,39.61,0,0,0,11,2.45c.72,0,1.43.08,2.14.08a30.28,30.28,0,0,0,4.36-.25,32.54,32.54,0,0,0,5.34-1.12l.95-.31a34,34,0,0,0,5.48-2.39c.31-.17.62-.34.92-.52.71-.41,1.42-.85,2.12-1.32a.71.71,0,0,1,.14-.1c.68-.46,1.36-1,2-1.48s1.37-1.1,2.06-1.69Z"></path></g></g></svg> 