<?xml version="1.0" encoding="UTF-8"?> <svg xmlns="http://www.w3.org/2000/svg" viewBox="0 0 826.88 51.03"><defs><style>.cls-1{fill:#663614;}</style></defs><g id="Layer_2" data-name="Layer 2"><g id="Layer_1-2" data-name="Layer 1"><path class="cls-1" d="M826.88,48.89c-.07-15.19,0-33.14-1-47.51,0-.2-1.17-.27-2.82-.27a76.13,76.13,0,0,0-9.35.55c-2.13.82-.62,24.13-1,30-.14,3-3.23,4.89-5.71,4.89-11.34.2-7.7-9.7-8.45-34,0-1-2.62-1.37-5.51-1.37a49.31,49.31,0,0,0-7.42.55c-1.79,29.91-4,47.71,15.54,47.71,9.28,0,12-5.08,12.58-5.5-.07.14.41,5.3.41,5.3,2.48,0,9.35-.14,12.65-.28M756.07,15c2.06,4.33,3.23,11.13,5,15.54l-9.9.34C752.49,26.48,754.62,19.4,756.07,15Zm25.85,35.27C778.21,32.6,768.92,14.1,762.8.49a21.29,21.29,0,0,0-6.6-.41c-2.13.27-4.33.2-6.25,1.23-7.7,16-15.34,31.56-19,49a24.61,24.61,0,0,0,6.39.68,61.13,61.13,0,0,0,8-.62c1-3.16,1.86-6.39,2.82-9.62l16.29-1.24c1.17,3.16,2.82,7.63,3.92,10.8a41.06,41.06,0,0,0,5,.27C776.21,50.61,779,50.4,781.92,50.27ZM729.66,27.72c.14-8.46-.06-17.61-.34-26a51.25,51.25,0,0,0-15.19-1c.06,8.8-.42,20.35-.07,29.16.34,5.63-1.17,10.45-11.35,4.6-.75,1.58-1.3,3.3-1.92,4.88-.62,1.86-1.31,3.58-1.93,5.37l-.27.82c5.64,2.89,10.38,4.13,14.37,4.2C725.33,49.92,729.87,42.57,729.66,27.72Zm-49.77-26c-.48,15.88-.9,32,1.1,47.71h.82c1.93-.07,3.78-.2,5.71-.2,1.72-.07,3.5-.14,5.22-.35C695.22,33,695,16.85,695.08.76A51.23,51.23,0,0,0,679.89,1.73Zm-21.25,46.2a51,51,0,0,0,15.2,1C673.77,32.8,674,16.65,671.5.76c-1.72-.2-3.51-.27-5.23-.34-1.92,0-3.78-.14-5.7-.21h-.83a188.34,188.34,0,0,0-1.44,20.56L647.23,21c.14-6.74.14-12.79.2-19.53a51.58,51.58,0,0,0-15.19,1c-.48,15.89-.89,29.91,1.1,45.66h.82c1.93-.07,3.79-.21,5.71-.21,1.72-.07,3.51-.14,5.23-.34.82-5.57,1.37-10.66,1.72-16.37l11.41-.75C658.3,35.83,658.44,42.57,658.64,47.93ZM586,47.65c3.16-7.22,7.35-16.91,10.24-23.78,1,5.7,3.37,20.76,4.88,25.23,1.65.14,3.37.2,5,.27,1.86-.07,2.27.07,4.13.07h.75c.07-15.67-2.54-31.69-4.81-47.51a120.78,120.78,0,0,0-13.34-.62c-2.61,4.13-7.29,17.19-10,24.69-2.82-7.29-8-18.84-10.58-24.75-3.65.27-10.18,1.1-13.14,1.37C556.88,18.43,555,32.39,555,48.07h.75c1.86,0,2.27-.14,4.13-.07,1.65-.07,3.37-.14,5-.28,1.51-4.47,3.23-17.46,4.19-23.17,2.89,6.88,6.53,16,9.7,23.17C581.5,47.52,583.91,47.93,586,47.65ZM524.78,15c2.06,4.33,3.23,11.13,5,15.54l-9.9.34C521.2,26.48,523.33,19.4,524.78,15Zm25.85,35.27c-3.71-17.67-13-36.17-19.12-49.78a21.29,21.29,0,0,0-6.6-.41c-2.13.27-4.33.2-6.25,1.23-7.7,16-15.34,31.56-19,49a24.61,24.61,0,0,0,6.39.68,61.13,61.13,0,0,0,8-.62c1-3.16,1.86-6.39,2.82-9.62l16.29-1.24c1.17,3.16,2.82,7.63,3.92,10.8a41.06,41.06,0,0,0,4.95.27C544.92,50.61,547.74,50.4,550.63,50.27ZM460.49,3.1c-.48,15.88-.89,30.6,1.1,46.34h.83c1.92-.07,3.78-.2,5.7-.2l3.1-.14,25.71-.62c1.31-3.23,1.24-7.15,1.1-10.79a71.86,71.86,0,0,0-9.35-.56c-4.47,0-8.94.28-13.61.56,1-11.76.55-23.73.62-35.55A51,51,0,0,0,460.49,3.1ZM430.17,15c2.06,4.33,3.23,11.13,5,15.54l-9.9.34C426.59,26.48,428.73,19.4,430.17,15ZM456,50.27C452.31,32.6,443,14.1,436.91.49a21.29,21.29,0,0,0-6.6-.41c-2.13.27-4.33.2-6.26,1.23-7.7,16-15.33,31.56-19,49a24.73,24.73,0,0,0,6.4.68,61.11,61.11,0,0,0,8-.62c1-3.16,1.86-6.39,2.82-9.62l16.3-1.24c1.17,3.16,2.82,7.63,3.92,10.8a41.06,41.06,0,0,0,4.95.27C450.31,50.61,453.13,50.4,456,50.27ZM370.42,1.73c-.48,15.88-.89,32,1.1,47.71h.83c1.92-.07,3.78-.2,5.7-.2,1.72-.07,3.51-.14,5.23-.35,2.47-15.88,2.27-32,2.34-48.13A51.3,51.3,0,0,0,370.42,1.73Zm-32,.75c-3.23,1.79-6.67,4.75-7.63,8.32-4.88,19.3,21.79,17.51,22.28,24.12.34,3.66-2.55,5.51-6.19,5.86s-10.32-1.65-14.78-3.37a77.66,77.66,0,0,0-.9,9.08c3.85,3.23,13.75,4.67,19,3.91,8.87-1,16.91-5.84,17.25-14.31.35-8.89-5.5-13.78-15.26-16.4-2.06-.48-10.24-2.28-9.56-5.79.28-1.59,1.17-3.72,5.3-3.72A29.09,29.09,0,0,1,361.28,13a20.43,20.43,0,0,0,2.61-9.69C357.36.42,346.08-1.57,338.45,2.48ZM301.32,15c2.07,4.33,3.23,11.13,5,15.54l-9.9.34C297.75,26.48,299.88,19.4,301.32,15Zm25.85,35.27c-3.71-17.67-13-36.17-19.11-49.78a21.29,21.29,0,0,0-6.6-.41c-2.13.27-4.33.2-6.26,1.23-7.7,16-15.33,31.56-19,49a24.61,24.61,0,0,0,6.39.68,61.13,61.13,0,0,0,8-.62c1-3.16,1.85-6.39,2.82-9.62l16.29-1.24c1.17,3.16,2.82,7.63,3.92,10.8a41.06,41.06,0,0,0,4.95.27C321.47,50.61,324.29,50.4,327.17,50.27ZM244.94,11.35c4.47-.07,14.58-1.1,13.55,5-.89,4.95-8.8,5.23-13.55,4.88C245,18.37,245,14.17,244.94,11.35Zm30.39,35.2a64.75,64.75,0,0,1-14.78-17.67c6.12-2.13,11.21-6.25,11.28-13.4,0-21.25-35.89-13.55-40.84-12.31-.48,15.88-1,29.84,1,45.58h.82c1.93-.06,3.79-.06,5.71-.06,1.72-.07,3.51-.14,5.23-.35.75-5,1.3-12.3,1.65-17.39h1.3c2.75,7.42,7.7,13.68,12.31,18.35C267.63,50.4,271.48,48.41,275.33,46.55Zm-76.18-34c7,0,10.32,2.34,12.52,6.12,4,6.87,1,18.08-8.74,19.25-16.08,2-20.69-14.3-10.31-23.58C194.41,12.8,196.68,12.59,199.15,12.59ZM182,7.78c-8.32,7.84-10.52,26.26-1.86,34.92,5,4.95,14.23,8.53,21.18,8.32,26.05-.68,31.55-36.64,13.75-46.75A30.72,30.72,0,0,0,199.84.21,23.48,23.48,0,0,0,182,7.78Zm-54.46,3.37c4.47.34,9.56-.14,14.78-.14.07,12.51.35,25.23,2.34,37.88,1.72.21,2.82.28,4.54.35,1.92,0,3.78.13,5.71.2h.82c1.65-12.92,1.65-25.85,1.31-38.64,5.29-.2,10.31.21,14.78-.27-5.16,11.48.34-3,.41-4.47a29.8,29.8,0,0,0-.14-4.33,347.48,347.48,0,0,0-44.14,0C127.51,4.75,127,7.91,127.51,11.15ZM98,2.48c-3.23,1.79-6.67,4.75-7.64,8.32-4.88,19.3,21.8,17.51,22.28,24.12.34,3.66-2.54,5.51-6.19,5.86s-10.31-1.65-14.78-3.37a79.22,79.22,0,0,0-.89,9.08c3.85,3.23,13.75,4.67,19,3.91,8.87-1,16.92-5.84,17.26-14.31.34-8.89-5.5-13.78-15.26-16.4-2.07-.48-10.25-2.28-9.56-5.79.27-1.59,1.17-3.72,5.29-3.72A29.05,29.05,0,0,1,120.84,13a20.44,20.44,0,0,0,2.62-9.69C116.92.42,105.65-1.57,98,2.48ZM84.88,49.24c1.31-3.24,1.24-7.16,1.1-10.8a82.35,82.35,0,0,0-10.72-.62c-3.92,0-7.7.21-11.76.42V30.4c8.39-.07,15.06.2,19.25-.76l.62-8.73c-5.57-.48-11.27-1.58-19.94-1-.14-3.92-.07-3.3-.34-7,4.67.28,9.14.55,13.61.55a71.81,71.81,0,0,0,9.35-.55c.14-3.64.21-7.56-1.1-10.79L59.24,1.52l-3.1-.14a51.71,51.71,0,0,0-5.7-.2l-2.2.2c0,16.37-.21,31.63.27,47.51,2,.69,6.4,1.1,13.48,1.1C67.76,50,75.33,49.72,84.88,49.24ZM14.41,11.35c4.47-.07,14.58-1.1,13.55,5-.9,4.95-8.81,5.23-13.55,4.88C14.48,18.37,14.48,14.17,14.41,11.35ZM44.8,46.55A64.57,64.57,0,0,1,30,28.88c6.12-2.13,11.21-6.25,11.27-13.4C41.29-5.77,5.4,1.93.45,3.17,0,19.05-.58,33,1.42,48.75h.82C4.17,48.69,6,48.69,8,48.69c1.72-.07,3.5-.14,5.22-.35.76-5,1.31-12.3,1.65-17.39h1.31c2.75,7.42,7.7,13.68,12.31,18.35C37.1,50.4,41,48.41,44.8,46.55Z"></path></g></g></svg> 