<?xml version="1.0" encoding="UTF-8"?> <svg xmlns="http://www.w3.org/2000/svg" viewBox="0 0 174.64 174.64"><defs><style>.cls-1{fill:#026735;}.cls-2,.cls-3{fill:none;stroke:#fff;stroke-width:5px;}.cls-2{stroke-linejoin:round;}.cls-3{stroke-miterlimit:10;}</style></defs><g id="Layer_2" data-name="Layer 2"><g id="Layer_1-2" data-name="Layer 1"><circle class="cls-1" cx="87.32" cy="87.32" r="87.32"></circle><path class="cls-2" d="M69.88,130.92c1-.95,1.93-2.49,5-2.49h34.88c2.77,0,18-15.27,19.93-17.44s10.15-14.55,12.45-19.92c-1.44-1.95-5.35-3.57-10-2.5-4.41,1-7,4.19-10,10l-11.42,5.93"></path><path class="cls-2" d="M84.83,113.48h19.93c10,0,10-12.45,0-12.45H91.59c-2.07,0-6-5-9.25-5H69.88c-3.36,0-7.55,2.73-10,5L50,111"></path><rect class="cls-2" x="44.88" y="106.05" width="17.61" height="42.27" transform="translate(-74.21 75.22) rotate(-45)"></rect><line class="cls-2" x1="44.97" y1="118.47" x2="49.95" y2="123.45"></line><polyline class="cls-3" points="124.68 93.56 119.7 88.58 112.23 88.58 104.76 83.59 99.77 83.59 94.79 81.1 89.81 86.08 82.34 86.08 74.86 91.07 74.86 96.05"></polyline><path class="cls-3" d="M80,60.07c6.55,3.8,7.36,13.56,7.36,13.56s-9.35,3.7-15.89-.1-14-17.34-14-17.34S73.41,56.27,80,60.07Z"></path><path class="cls-3" d="M98.74,72.68c-6.07-6.25-5.32-17.2-1.8-21.56,9.41-11.66,22.31-8.25,32.53-14.86,5.34,9.22,2.46,24.17-6.34,33.35-5.92,6.18-14,5.35-18,4.41"></path><path class="cls-3" d="M94.79,83.59c2.07-18.69,16.53-25.71,26.19-34"></path></g></g></svg> 