<?xml version="1.0" encoding="UTF-8"?> <svg xmlns="http://www.w3.org/2000/svg" viewBox="0 0 637.65 220.85"><defs><style>.cls-1{fill:#026735;}.cls-2{fill:#9aca3c;}</style></defs><g id="Layer_2" data-name="Layer 2"><g id="MAP"><path class="cls-1" d="M62,68a3.36,3.36,0,0,0-2.22-.87c-.83,0-1.66,0-2.49,0A3.81,3.81,0,0,1,54,63.78c0-.36.16-.5.38-.67a4.86,4.86,0,0,1,6.24.59c1.19,1.19,1.94,2.54,1.4,4.3Z"></path><path class="cls-2" d="M125.53,127.88a6.33,6.33,0,0,1-4.34-1,3.16,3.16,0,0,1-.93-3.48.41.41,0,0,1,.19-.22,2.43,2.43,0,0,1,2.67.36,4.23,4.23,0,0,1,1.17,1.91A7.73,7.73,0,0,0,125.53,127.88Z"></path><path class="cls-1" d="M92.14,91.58a3.39,3.39,0,0,0-.52-2.32c-.44-.7-.94-1.36-1.35-2.08a3.78,3.78,0,0,1,.88-4.6c.27-.22.49-.14.76,0a4.84,4.84,0,0,1,3,5.48c-.32,1.65-1,3-2.78,3.56Z"></path><path class="cls-2" d="M29.85,14.84c-2.08.14-4,.1-5.71-1.1a4.1,4.1,0,0,1-1.37-4.5A.51.51,0,0,1,23,9a3.14,3.14,0,0,1,3.5.35,5.43,5.43,0,0,1,1.63,2.43A10,10,0,0,0,29.85,14.84Z"></path><path class="cls-2" d="M12.94,11.59a6.48,6.48,0,0,1-1.65-4.26,3.22,3.22,0,0,1,2.43-2.78.42.42,0,0,1,.29,0,2.47,2.47,0,0,1,1.22,2.48,4.24,4.24,0,0,1-.94,2.09A7.8,7.8,0,0,0,12.94,11.59Z"></path><path class="cls-1" d="M103.89,103.05a3.2,3.2,0,0,0-1.92-1.27c-.78-.2-1.58-.32-2.34-.54a3.67,3.67,0,0,1-2.49-3.8c0-.35.25-.44.5-.55a4.69,4.69,0,0,1,5.78,1.81,4,4,0,0,1,.45,4.35Z"></path><path class="cls-2" d="M72.52,60.9c1.07-1.59,2.19-3,4-3.52a3.79,3.79,0,0,1,4,1.56.43.43,0,0,1,.08.33,2.89,2.89,0,0,1-2.23,2.34,5.08,5.08,0,0,1-2.68-.2A9.1,9.1,0,0,0,72.52,60.9Z"></path><path class="cls-1" d="M94.94,61.35a3,3,0,0,0-2.16.13c-.7.29-1.36.65-2.07.92a3.44,3.44,0,0,1-4-1.45.6.6,0,0,1,.06-.69,4.4,4.4,0,0,1,5.36-1.91,3.71,3.71,0,0,1,2.8,3Z"></path><path class="cls-2" d="M107.56,112.76a6.77,6.77,0,0,1-4.08,2.37,3.34,3.34,0,0,1-3.23-2,.39.39,0,0,1,0-.3,2.55,2.55,0,0,1,2.32-1.64,4.45,4.45,0,0,1,2.29.62A7.82,7.82,0,0,0,107.56,112.76Z"></path><path class="cls-1" d="M137,148.4a3.14,3.14,0,0,0-.69-2.17c-.47-.64-1-1.23-1.46-1.87a3.64,3.64,0,0,1,.46-4.47c.24-.24.46-.17.72-.11a4.64,4.64,0,0,1,3.31,5,3.94,3.94,0,0,1-2.35,3.63Z"></path><path class="cls-2" d="M106.12,91.76A6.26,6.26,0,0,1,102,93.27a3.1,3.1,0,0,1-2.62-2.37.39.39,0,0,1,0-.28,2.37,2.37,0,0,1,2.4-1.13,4.13,4.13,0,0,1,2,.94A7.28,7.28,0,0,0,106.12,91.76Z"></path><path class="cls-2" d="M84.9,76.1a7.05,7.05,0,0,1,1.61,4.63,3.5,3.5,0,0,1-2.71,2.89.42.42,0,0,1-.31-.05,2.65,2.65,0,0,1-1.22-2.7,4.62,4.62,0,0,1,1.09-2.2A8.33,8.33,0,0,0,84.9,76.1Z"></path><path class="cls-2" d="M111.84,109.45a3.69,3.69,0,0,0,1.89,1.86c.84.39,1.71.7,2.53,1.12a4.22,4.22,0,0,1,2,4.84c-.12.38-.38.43-.68.51a5.38,5.38,0,0,1-6.13-3.31c-.7-1.74-.87-3.44.44-5Z"></path><path class="cls-1" d="M88.67,111.71a3.14,3.14,0,0,0,.72-2.17c0-.8-.09-1.6-.08-2.4a3.66,3.66,0,0,1,3-3.37c.34,0,.48.14.65.34a4.66,4.66,0,0,1-.25,6,3.93,3.93,0,0,1-4.06,1.56Z"></path><path class="cls-1" d="M129.16,129.55a3,3,0,0,0,2.12-.39c.65-.38,1.26-.81,1.92-1.16a3.45,3.45,0,0,1,4.14.94.62.62,0,0,1,0,.69,4.38,4.38,0,0,1-5.06,2.54,3.73,3.73,0,0,1-3.13-2.63Z"></path><path class="cls-1" d="M74.59,68.39a3.29,3.29,0,0,0,2,1.2c.81.16,1.64.24,2.44.43a3.77,3.77,0,0,1,2.75,3.76c0,.36-.24.46-.48.6a4.82,4.82,0,0,1-6-1.55c-1-1.35-1.51-2.8-.71-4.44Z"></path><path class="cls-2" d="M71.2,85.71a3.07,3.07,0,0,0,1.94-1c.52-.54,1-1.13,1.54-1.65a3.46,3.46,0,0,1,4.26-.24.64.64,0,0,1,.21.66A4.4,4.4,0,0,1,75,87.36a3.72,3.72,0,0,1-3.75-1.67Z"></path><path class="cls-1" d="M87.34,114.37a3.07,3.07,0,0,0,1.7,1.45c.72.28,1.47.5,2.19.8a3.57,3.57,0,0,1,1.94,3.95c-.08.33-.29.39-.54.47a4.54,4.54,0,0,1-5.35-2.42,3.84,3.84,0,0,1,.07-4.24Z"></path><path class="cls-1" d="M22.39,24.11a3,3,0,0,0,1.26-1.71c.21-.7.36-1.43.61-2.13a3.37,3.37,0,0,1,3.61-2.1c.32,0,.39.25.49.48a4.31,4.31,0,0,1-1.95,5.23,3.63,3.63,0,0,1-4,.21Z"></path><path class="cls-2" d="M39.64,20.81a6.56,6.56,0,0,1,2.45,3.89,3.25,3.25,0,0,1-1.86,3.22.44.44,0,0,1-.3,0,2.48,2.48,0,0,1-1.68-2.21,4.4,4.4,0,0,1,.53-2.25A7.9,7.9,0,0,0,39.64,20.81Z"></path><path class="cls-2" d="M84.63,105.05a3.38,3.38,0,0,0-2.21,1.06c-.61.6-1.16,1.26-1.78,1.85a3.92,3.92,0,0,1-4.84.18c-.29-.23-.26-.47-.24-.76a5,5,0,0,1,4.83-4.29c1.74,0,3.28.33,4.23,2Z"></path><path class="cls-2" d="M119.87,144.32a6.69,6.69,0,0,1,3.45-3.13,3.32,3.32,0,0,1,3.55,1.3.41.41,0,0,1,.07.29,2.52,2.52,0,0,1-1.91,2.07,4.53,4.53,0,0,1-2.34-.13A7.87,7.87,0,0,0,119.87,144.32Z"></path><path class="cls-1" d="M48.88,44.29a3,3,0,0,0-.09,2.12c.21.71.5,1.4.69,2.11a3.4,3.4,0,0,1-1.83,3.77.61.61,0,0,1-.67-.13,4.33,4.33,0,0,1-1.32-5.43,3.67,3.67,0,0,1,3.23-2.42Z"></path><path class="cls-1" d="M120.62,110.61a3.45,3.45,0,0,0,.73-2.35c0-.85-.13-1.7-.13-2.56a3.91,3.91,0,0,1,3.17-3.66c.36-.06.51.13.71.35a5,5,0,0,1-.16,6.45c-1.14,1.31-2.48,2.17-4.32,1.75Z"></path><path class="cls-2" d="M80.2,97.25a6.75,6.75,0,0,1-3.67,2.88,3.32,3.32,0,0,1-3.44-1.54.44.44,0,0,1,0-.3,2.51,2.51,0,0,1,2-1.93,4.48,4.48,0,0,1,2.32.3A8.07,8.07,0,0,0,80.2,97.25Z"></path><path class="cls-2" d="M31.54,36a3.36,3.36,0,0,0,0-2.4c-.28-.78-.64-1.54-.9-2.33a3.82,3.82,0,0,1,1.84-4.36.68.68,0,0,1,.76.1A4.89,4.89,0,0,1,35,33c-.66,1.55-1.64,2.76-3.48,2.92Z"></path><path class="cls-1" d="M125.53,120.35a3,3,0,0,0-1.62-1.37c-.69-.27-1.4-.47-2.08-.76a3.4,3.4,0,0,1-1.85-3.76c.08-.3.28-.36.52-.44a4.32,4.32,0,0,1,5.08,2.3,3.65,3.65,0,0,1-.07,4Z"></path><path class="cls-2" d="M88.79,65.58a6.4,6.4,0,0,1,1.6,4.13A3.12,3.12,0,0,1,88,72.4a.39.39,0,0,1-.28,0A2.41,2.41,0,0,1,86.56,70a4.33,4.33,0,0,1,.92-2A7.7,7.7,0,0,0,88.79,65.58Z"></path><path class="cls-1" d="M62.72,80.84a3,3,0,0,0,1.75-1.21c.44-.59.82-1.24,1.27-1.82A3.4,3.4,0,0,1,69.86,77c.28.15.28.37.3.62a4.32,4.32,0,0,1-3.55,4.32,3.69,3.69,0,0,1-3.89-1.11Z"></path><path class="cls-2" d="M96,71.22a6.47,6.47,0,0,1,3.69,2.57,3.18,3.18,0,0,1-.45,3.61.38.38,0,0,1-.26.13,2.43,2.43,0,0,1-2.36-1.34A4.31,4.31,0,0,1,96.26,74,7.87,7.87,0,0,0,96,71.22Z"></path><path class="cls-2" d="M96,116.4a6.31,6.31,0,0,1,3.75,2.24,3.09,3.09,0,0,1-.19,3.53.38.38,0,0,1-.24.15,2.36,2.36,0,0,1-2.38-1.15,4.2,4.2,0,0,1-.52-2.13A7.51,7.51,0,0,0,96,116.4Z"></path><path class="cls-1" d="M78.62,89.64a3,3,0,0,0,1.68-1.29c.4-.62.75-1.28,1.17-1.88a3.38,3.38,0,0,1,4.06-1c.29.13.3.35.33.59a4.3,4.3,0,0,1-3.31,4.49,3.67,3.67,0,0,1-3.93-.9Z"></path><path class="cls-2" d="M45.27,60.17c1-1.74,2-3.27,3.86-4a3.93,3.93,0,0,1,4.33,1.25.5.5,0,0,1,.12.33,3,3,0,0,1-2.11,2.63,5.22,5.22,0,0,1-2.8,0A9.76,9.76,0,0,0,45.27,60.17Z"></path><path class="cls-2" d="M52.88,40.92c1.86-.22,3.59-.28,5.17.72a3.68,3.68,0,0,1,1.43,4,.45.45,0,0,1-.19.28,2.85,2.85,0,0,1-3.15-.15,5,5,0,0,1-1.57-2.1A8.8,8.8,0,0,0,52.88,40.92Z"></path><path class="cls-2" d="M108.33,102.25a7.26,7.26,0,0,1,5.06.25,3.59,3.59,0,0,1,1.72,3.71.46.46,0,0,1-.16.28,2.73,2.73,0,0,1-3.06.13,4.86,4.86,0,0,1-1.7-1.9A8.64,8.64,0,0,0,108.33,102.25Z"></path><path class="cls-2" d="M104.42,120.06a7,7,0,0,1,4.81.67,3.43,3.43,0,0,1,1.34,3.69.42.42,0,0,1-.18.25,2.63,2.63,0,0,1-2.93-.14,4.52,4.52,0,0,1-1.46-2A8.49,8.49,0,0,0,104.42,120.06Z"></path><path class="cls-2" d="M112.28,125.32a6.22,6.22,0,0,1,2.19,3.78,3.08,3.08,0,0,1-1.88,3,.38.38,0,0,1-.28,0,2.35,2.35,0,0,1-1.52-2.15,4.18,4.18,0,0,1,.57-2.12A7.53,7.53,0,0,0,112.28,125.32Z"></path><path class="cls-2" d="M68.69,55.66c-1.71,1.43-3.4,2.6-5.62,2.64a4.42,4.42,0,0,1-4-3,.53.53,0,0,1,0-.39A3.36,3.36,0,0,1,62.32,53a6,6,0,0,1,2.93,1.08A10.49,10.49,0,0,0,68.69,55.66Z"></path><path class="cls-1" d="M49.79,36.94A2.93,2.93,0,0,0,51,35.19c.19-.72.32-1.45.54-2.16a3.4,3.4,0,0,1,3.55-2.24c.32.05.4.24.5.47a4.32,4.32,0,0,1-1.76,5.31,3.66,3.66,0,0,1-4,.36Z"></path><path class="cls-1" d="M51.56,42.63a3,3,0,0,0-2.06-.53c-.73.06-1.47.19-2.2.23A3.38,3.38,0,0,1,44,39.76c-.07-.31.09-.45.26-.63A4.32,4.32,0,0,1,49.84,39a3.63,3.63,0,0,1,1.7,3.65Z"></path><path class="cls-2" d="M92.69,67.9a6.28,6.28,0,0,1,3-3.2,3.08,3.08,0,0,1,3.41.92.37.37,0,0,1,.1.26A2.36,2.36,0,0,1,97.55,68a4.08,4.08,0,0,1-2.19.07A7.62,7.62,0,0,0,92.69,67.9Z"></path><path class="cls-2" d="M106.5,137.71c1.32-1.41,2.65-2.6,4.55-2.87a3.82,3.82,0,0,1,3.77,2.19.44.44,0,0,1,0,.34,2.9,2.9,0,0,1-2.58,2,5,5,0,0,1-2.63-.62A9.29,9.29,0,0,0,106.5,137.71Z"></path><path class="cls-1" d="M83.55,103.22a3.29,3.29,0,0,0,.74-2.23c0-.82-.1-1.63-.08-2.45a3.74,3.74,0,0,1,3.09-3.45c.35,0,.49.13.67.34a4.78,4.78,0,0,1-.25,6.17c-1.12,1.24-2.41,2-4.17,1.61Z"></path><path class="cls-1" d="M51.51,54.11a3,3,0,0,0,1.43-1.57c.29-.68.52-1.39.83-2.06a3.4,3.4,0,0,1,3.82-1.71c.3.09.36.29.43.53a4.34,4.34,0,0,1-2.48,5,3.65,3.65,0,0,1-4-.21Z"></path><path class="cls-2" d="M114.89,91.86a6.76,6.76,0,0,1-1.27,4.49,3.31,3.31,0,0,1-3.7.78.41.41,0,0,1-.22-.21,2.52,2.52,0,0,1,.52-2.77A4.41,4.41,0,0,1,112.28,93,8.05,8.05,0,0,0,114.89,91.86Z"></path><path class="cls-1" d="M134.89,125.52a3.31,3.31,0,0,0-.35-2.33c-.38-.72-.84-1.41-1.2-2.15a3.75,3.75,0,0,1,1.2-4.49c.28-.21.5-.11.75,0a4.78,4.78,0,0,1,2.58,5.63c-.43,1.61-1.22,2.92-3,3.33Z"></path><path class="cls-1" d="M121,132.68a3.21,3.21,0,0,0,2.32.14c.77-.22,1.53-.51,2.31-.71a3.7,3.7,0,0,1,4.08,2.07c.14.32,0,.5-.15.73a4.72,4.72,0,0,1-6,1.33c-1.46-.75-2.56-1.77-2.6-3.56Z"></path><path class="cls-2" d="M99.24,129.67a6.49,6.49,0,0,1,4.46.61,3.19,3.19,0,0,1,1.23,3.42.37.37,0,0,1-.16.24,2.43,2.43,0,0,1-2.72-.13A4.3,4.3,0,0,1,100.7,132,7.75,7.75,0,0,0,99.24,129.67Z"></path><path class="cls-1" d="M38.84,29.8a3,3,0,0,0,1.28,1.73c.62.42,1.29.79,1.89,1.23a3.44,3.44,0,0,1,1,4.14c-.15.29-.36.3-.61.33a4.41,4.41,0,0,1-4.51-3.45,3.72,3.72,0,0,1,1-4Z"></path><path class="cls-1" d="M135.22,154.07a3.11,3.11,0,0,0-1.86-1.22c-.75-.19-1.52-.31-2.26-.52a3.56,3.56,0,0,1-2.4-3.68c0-.33.24-.42.48-.53a4.53,4.53,0,0,1,5.58,1.75,3.84,3.84,0,0,1,.44,4.2Z"></path><path class="cls-2" d="M131.45,117.17a6.94,6.94,0,0,1-3.18-3.63,3.44,3.44,0,0,1,1.41-3.65.51.51,0,0,1,.3-.07,2.63,2.63,0,0,1,2.11,2,4.63,4.63,0,0,1-.18,2.42A8.3,8.3,0,0,0,131.45,117.17Z"></path><path class="cls-2" d="M70.06,46.86a6.72,6.72,0,0,1,4.42,1.6A3.33,3.33,0,0,1,75,52.23a.45.45,0,0,1-.23.2A2.55,2.55,0,0,1,72,51.71a4.56,4.56,0,0,1-1-2.15A8.25,8.25,0,0,0,70.06,46.86Z"></path><path class="cls-1" d="M21.44,14.52a3,3,0,0,0-2,.64c-.59.45-1.14.95-1.74,1.37a3.4,3.4,0,0,1-4.17-.43c-.22-.23-.16-.43-.1-.67A4.31,4.31,0,0,1,18,12.34a3.66,3.66,0,0,1,3.38,2.19Z"></path><path class="cls-1" d="M69.64,62.6a3.06,3.06,0,0,0-.8,2c0,.77,0,1.53,0,2.29a3.49,3.49,0,0,1-3,3.07c-.33,0-.45-.15-.61-.35a4.46,4.46,0,0,1,.54-5.74,3.77,3.77,0,0,1,4-1.29Z"></path><path class="cls-1" d="M107.14,84.34a3,3,0,0,0-2.12.17c-.67.3-1.32.66-2,.94a3.39,3.39,0,0,1-4-1.35.6.6,0,0,1,0-.68,4.33,4.33,0,0,1,5.23-2,3.66,3.66,0,0,1,2.8,2.9Z"></path><path class="cls-2" d="M27.4,25.7A4.16,4.16,0,0,1,28,28.56,2.07,2.07,0,0,1,26.13,30,.25.25,0,0,1,26,30a1.58,1.58,0,0,1-.5-1.69,2.92,2.92,0,0,1,.83-1.21A5,5,0,0,0,27.4,25.7Z"></path><path class="cls-2" d="M42.12,48.05a4.2,4.2,0,0,1-1.1-2.7,2.06,2.06,0,0,1,1.52-1.8.19.19,0,0,1,.18,0,1.56,1.56,0,0,1,.81,1.56A2.69,2.69,0,0,1,43,46.48,4.9,4.9,0,0,0,42.12,48.05Z"></path><path class="cls-1" d="M140.87,126a2,2,0,0,0-.44,1.35c0,.49.06,1,0,1.47a2.27,2.27,0,0,1-1.86,2.08c-.21,0-.3-.08-.41-.2a2.9,2.9,0,0,1,.15-3.72,2.44,2.44,0,0,1,2.51-1Z"></path><path class="cls-1" d="M141.56,118.63a2,2,0,0,0-1-1c-.45-.2-.92-.36-1.36-.57a2.27,2.27,0,0,1-1.1-2.57c.06-.2.2-.23.36-.28a2.89,2.89,0,0,1,3.31,1.71,2.43,2.43,0,0,1-.19,2.68Z"></path><path class="cls-2" d="M64.46,70a4.14,4.14,0,0,1-2.23,1.88A2,2,0,0,1,60.05,71a.23.23,0,0,1,0-.18,1.57,1.57,0,0,1,1.24-1.25,2.8,2.8,0,0,1,1.46.13A4.91,4.91,0,0,0,64.46,70Z"></path><path class="cls-1" d="M73.33,69.22a2,2,0,0,0,0-1.41c-.18-.46-.4-.91-.56-1.37a2.28,2.28,0,0,1,1-2.6.42.42,0,0,1,.45.06,2.9,2.9,0,0,1,1.13,3.55,2.44,2.44,0,0,1-2,1.76Z"></path><path class="cls-2" d="M0,0A6,6,0,0,1,3.37,2.44,2.93,2.93,0,0,1,2.9,5.77a.37.37,0,0,1-.24.12A2.24,2.24,0,0,1,.5,4.6,3.87,3.87,0,0,1,.18,2.54,7.14,7.14,0,0,0,0,0Z"></path><path class="cls-2" d="M95.65,104.85a4.17,4.17,0,0,1-2-2.09,2.07,2.07,0,0,1,.73-2.24.3.3,0,0,1,.18-.06,1.6,1.6,0,0,1,1.34,1.15,2.82,2.82,0,0,1,0,1.47A5.13,5.13,0,0,0,95.65,104.85Z"></path><path class="cls-1" d="M73.25,89.78a2,2,0,0,0,.15,1.47c.21.46.47.91.67,1.38a2.35,2.35,0,0,1-.89,2.77.42.42,0,0,1-.47,0,3,3,0,0,1-1.43-3.61,2.54,2.54,0,0,1,2-2Z"></path><path class="cls-1" d="M84.39,114.12a2,2,0,0,0-.36-1.37c-.27-.41-.58-.8-.84-1.21a2.26,2.26,0,0,1,.42-2.76.41.41,0,0,1,.46,0,2.88,2.88,0,0,1,1.89,3.2,2.45,2.45,0,0,1-1.58,2.18Z"></path><path class="cls-2" d="M92,127a4.18,4.18,0,0,1,1.19-2.7,2.1,2.1,0,0,1,2.38-.16.28.28,0,0,1,.11.15,1.61,1.61,0,0,1-.57,1.69,2.81,2.81,0,0,1-1.38.52A4.87,4.87,0,0,0,92,127Z"></path><path class="cls-2" d="M50.56,70.85a4.38,4.38,0,0,1,1.66-2.56,2.16,2.16,0,0,1,2.46.22.27.27,0,0,1,.1.17,1.65,1.65,0,0,1-.86,1.63,2.92,2.92,0,0,1-1.5.31A5.52,5.52,0,0,0,50.56,70.85Z"></path><path class="cls-2" d="M83.51,67.22a4.8,4.8,0,0,1-3.2-.84,2.33,2.33,0,0,1-.59-2.61.26.26,0,0,1,.14-.15,1.78,1.78,0,0,1,2,.33,3.12,3.12,0,0,1,.82,1.44A5.55,5.55,0,0,0,83.51,67.22Z"></path><path class="cls-2" d="M67.1,90.48a4.5,4.5,0,0,1-.34-3.11A2.24,2.24,0,0,1,68.86,86a.33.33,0,0,1,.19.08,1.69,1.69,0,0,1,.37,1.85,3,3,0,0,1-1,1.22A5.27,5.27,0,0,0,67.1,90.48Z"></path><path class="cls-1" d="M101,104.28a1.92,1.92,0,0,0,.88,1.1c.42.27.86.49,1.27.76a2.27,2.27,0,0,1,.73,2.7c-.09.19-.23.2-.4.23a2.88,2.88,0,0,1-3-2.16,2.43,2.43,0,0,1,.56-2.63Z"></path><path class="cls-2" d="M59,71.37a4.57,4.57,0,0,1-1.19,3,2.27,2.27,0,0,1-2.58.27.3.3,0,0,1-.13-.16,1.73,1.73,0,0,1,.56-1.85A3,3,0,0,1,57.18,72,5.57,5.57,0,0,0,59,71.37Z"></path><path class="cls-1" d="M7,4.45a2.32,2.32,0,0,0-.24,1.61c.11.55.27,1.1.36,1.66A2.6,2.6,0,0,1,5.4,10.44c-.23.07-.35,0-.5-.16a3.3,3.3,0,0,1-.57-4.23A2.82,2.82,0,0,1,7,4.46Z"></path><path class="cls-1" d="M133.69,140.87a2.06,2.06,0,0,0-1.35.43c-.39.3-.76.63-1.16.91a2.25,2.25,0,0,1-2.78-.28c-.15-.15-.11-.29-.07-.45a2.88,2.88,0,0,1,3.1-2.06,2.42,2.42,0,0,1,2.25,1.46Z"></path><path class="cls-1" d="M114.71,100.35a2,2,0,0,0,1.4-.24c.43-.24.84-.52,1.28-.74a2.26,2.26,0,0,1,2.71.67.41.41,0,0,1,0,.45,2.89,2.89,0,0,1-3.36,1.61,2.43,2.43,0,0,1-2-1.76Z"></path><path class="cls-2" d="M104.28,96.23a4.22,4.22,0,0,1,2.85-.61,2.06,2.06,0,0,1,1.51,1.81.2.2,0,0,1,0,.18,1.55,1.55,0,0,1-1.68.52,2.71,2.71,0,0,1-1.22-.8A5,5,0,0,0,104.28,96.23Z"></path><path class="cls-2" d="M118.4,134.93a5.37,5.37,0,0,1,2,3.08,2.62,2.62,0,0,1-1.45,2.6.39.39,0,0,1-.24,0,2,2,0,0,1-1.37-1.74,3.53,3.53,0,0,1,.39-1.81A6.2,6.2,0,0,0,118.4,134.93Z"></path><path class="cls-2" d="M123.48,149.77a5,5,0,0,1-.11,3.48,2.47,2.47,0,0,1-2.53,1.23.4.4,0,0,1-.2-.11,1.89,1.89,0,0,1-.12-2.1,3.28,3.28,0,0,1,1.29-1.19A5.89,5.89,0,0,0,123.48,149.77Z"></path><path class="cls-2" d="M112.85,120.92a5.6,5.6,0,0,1,3.89,0,2.75,2.75,0,0,1,1.47,2.78.31.31,0,0,1-.11.22,2.12,2.12,0,0,1-2.35.22,3.66,3.66,0,0,1-1.37-1.39A6.69,6.69,0,0,0,112.85,120.92Z"></path><path class="cls-1" d="M21,8.43a2,2,0,0,0-1.11-.88c-.47-.17-.95-.28-1.41-.46a2.28,2.28,0,0,1-1.32-2.47c.05-.2.18-.25.34-.31A2.88,2.88,0,0,1,21,5.73,2.44,2.44,0,0,1,21,8.42Z"></path><path class="cls-2" d="M7.68,12a4.32,4.32,0,0,1,2.41,1.8,2.1,2.1,0,0,1-.39,2.39.28.28,0,0,1-.17.09,1.65,1.65,0,0,1-1.55-1,2.93,2.93,0,0,1-.2-1.49A5.19,5.19,0,0,0,7.68,12Z"></path><path class="cls-2" d="M67,49a4.36,4.36,0,0,1-2.92-.82,2.17,2.17,0,0,1-.51-2.41.32.32,0,0,1,.14-.14,1.65,1.65,0,0,1,1.8.34,2.91,2.91,0,0,1,.74,1.34A5.16,5.16,0,0,0,67,49Z"></path><path class="cls-1" d="M146.81,115.65a2,2,0,0,0-.31-1.39c-.26-.42-.56-.82-.81-1.25a2.26,2.26,0,0,1,.53-2.75.4.4,0,0,1,.45,0,2.92,2.92,0,0,1,1.8,3.29,2.48,2.48,0,0,1-1.67,2.13Z"></path><path class="cls-2" d="M94,80a4.56,4.56,0,0,1,3.15-.51,2.24,2.24,0,0,1,1.55,2.06.28.28,0,0,1-.06.2,1.75,1.75,0,0,1-1.87.48,3.16,3.16,0,0,1-1.3-1A5.24,5.24,0,0,0,94,80Z"></path><path class="cls-1" d="M97.25,129.74a2,2,0,0,0,.06-1.42c-.14-.47-.33-.93-.46-1.4a2.28,2.28,0,0,1,1.22-2.52.43.43,0,0,1,.45.09,2.89,2.89,0,0,1,.87,3.62,2.44,2.44,0,0,1-2.14,1.62Z"></path><path class="cls-1" d="M118,135a2.32,2.32,0,0,0,0-1.64c-.18-.54-.42-1.06-.58-1.6a2.6,2.6,0,0,1,1.3-3,.47.47,0,0,1,.52.08A3.34,3.34,0,0,1,120.4,133a2.83,2.83,0,0,1-2.42,2Z"></path><path class="cls-1" d="M85.21,55.16a2,2,0,0,0-.79,1.19c-.12.48-.19,1-.33,1.46a2.28,2.28,0,0,1-2.36,1.54c-.22,0-.27-.16-.35-.31a2.92,2.92,0,0,1,1.13-3.59,2.46,2.46,0,0,1,2.7-.28Z"></path><path class="cls-2" d="M95.53,110.51a4.22,4.22,0,0,1,2.92-.37,2.07,2.07,0,0,1,1.36,2,.26.26,0,0,1-.07.18,1.59,1.59,0,0,1-1.73.38,2.83,2.83,0,0,1-1.16-.92A5,5,0,0,0,95.53,110.51Z"></path><path class="cls-1" d="M129.44,123.72a2,2,0,0,0-1.18-.78c-.47-.12-1-.2-1.44-.34a2.24,2.24,0,0,1-1.52-2.33c0-.21.15-.27.3-.34a2.87,2.87,0,0,1,3.55,1.11,2.42,2.42,0,0,1,.28,2.67Z"></path><path class="cls-1" d="M89.44,80a2,2,0,0,0,1.11-.89c.26-.41.48-.85.76-1.26A2.24,2.24,0,0,1,94,77.09a.41.41,0,0,1,.23.39,2.89,2.89,0,0,1-2.16,3A2.45,2.45,0,0,1,89.44,80Z"></path><path class="cls-2" d="M69.91,77.16a4.2,4.2,0,0,1,.59-2.86,2.07,2.07,0,0,1,2.27-.64.22.22,0,0,1,.15.12,1.59,1.59,0,0,1-.21,1.75,2.84,2.84,0,0,1-1.23.79A4.9,4.9,0,0,0,69.91,77.16Z"></path><path class="cls-2" d="M46.68,26.11A4.24,4.24,0,0,1,46,29a2.07,2.07,0,0,1-2.28.6.28.28,0,0,1-.14-.12,1.57,1.57,0,0,1,.24-1.75,2.77,2.77,0,0,1,1.24-.77A5,5,0,0,0,46.68,26.11Z"></path><path class="cls-1" d="M128.54,136.38a2,2,0,0,0,1.4-.21c.43-.23.85-.5,1.29-.71a2.25,2.25,0,0,1,2.7.71c.12.17.06.3,0,.46a2.89,2.89,0,0,1-3.39,1.55,2.43,2.43,0,0,1-2-1.8Z"></path><path class="cls-1" d="M115.17,141a1.92,1.92,0,0,0,1.12.86c.47.16.95.26,1.42.43a2.27,2.27,0,0,1,1.36,2.44c0,.21-.18.26-.33.32a2.89,2.89,0,0,1-3.47-1.36,2.46,2.46,0,0,1-.09-2.69Z"></path><path class="cls-1" d="M35.41,38a2.5,2.5,0,0,0,1.37,1.17c.59.23,1.19.4,1.77.64A2.88,2.88,0,0,1,40.12,43c-.07.27-.24.32-.44.39a3.69,3.69,0,0,1-4.32-2A3.14,3.14,0,0,1,35.42,38Z"></path><path class="cls-1" d="M107.5,81.34a2.37,2.37,0,0,0-.82-1.45c-.44-.38-.91-.72-1.33-1.11a2.64,2.64,0,0,1-.35-3.26c.13-.21.3-.2.49-.19a3.39,3.39,0,0,1,3.13,3,2.87,2.87,0,0,1-1.13,3Z"></path><path class="cls-1" d="M91.91,100.1a2,2,0,0,0-.14-1.41c-.2-.45-.45-.88-.65-1.33A2.26,2.26,0,0,1,92,94.7c.18-.11.3,0,.45,0a2.87,2.87,0,0,1,1.37,3.46,2.43,2.43,0,0,1-1.9,1.9Z"></path><path class="cls-1" d="M19.22,24.7a2.35,2.35,0,0,0-.62-1.57c-.38-.44-.81-.85-1.18-1.31a2.69,2.69,0,0,1,.11-3.33c.17-.19.33-.15.53-.12a3.45,3.45,0,0,1,2.71,3.52,2.92,2.92,0,0,1-1.56,2.8Z"></path><path class="cls-2" d="M88.19,92.74A4.23,4.23,0,0,1,91,92.07a2.09,2.09,0,0,1,1.55,1.79.29.29,0,0,1,0,.18,1.59,1.59,0,0,1-1.67.55,2.74,2.74,0,0,1-1.24-.78A5,5,0,0,0,88.19,92.74Z"></path><path class="cls-1" d="M68.13,74.77a2,2,0,0,0-1-1c-.44-.21-.91-.37-1.35-.6a2.25,2.25,0,0,1-1.05-2.58c.07-.2.2-.23.36-.28a2.9,2.9,0,0,1,3.28,1.77,2.45,2.45,0,0,1-.23,2.68Z"></path><path class="cls-2" d="M267,77.71a6.7,6.7,0,0,1,3-3.61,3.32,3.32,0,0,1,3.72.8.45.45,0,0,1,.12.28,2.56,2.56,0,0,1-1.62,2.34,4.53,4.53,0,0,1-2.36.19A8.13,8.13,0,0,0,267,77.71Z"></path><path class="cls-2" d="M232.7,103.8a6.7,6.7,0,0,1,3-3.61,3.32,3.32,0,0,1,3.72.8.45.45,0,0,1,.12.28,2.54,2.54,0,0,1-1.62,2.33,4.43,4.43,0,0,1-2.36.2A8.13,8.13,0,0,0,232.7,103.8Z"></path><path class="cls-1" d="M286.73,64a3.2,3.2,0,0,0-.63-2.23c-.46-.67-1-1.29-1.42-2a3.7,3.7,0,0,1,.63-4.54c.25-.23.47-.16.74-.09a4.74,4.74,0,0,1,3.2,5.2c-.24,1.62-.85,3-2.53,3.61Z"></path><path class="cls-1" d="M226.26,112.79a3.55,3.55,0,0,0,.2-2.56c-.23-.86-.54-1.71-.74-2.58a4.09,4.09,0,0,1,2.37-4.47c.35-.15.55,0,.8.18a5.22,5.22,0,0,1,1.36,6.61c-.86,1.6-2,2.8-4,2.8Z"></path><path class="cls-2" d="M209.64,96.67a6.77,6.77,0,0,1,1.14,4.55,3.33,3.33,0,0,1-2.82,2.53.48.48,0,0,1-.29-.07,2.55,2.55,0,0,1-.94-2.68A4.48,4.48,0,0,1,208,99,8.26,8.26,0,0,0,209.64,96.67Z"></path><path class="cls-2" d="M274.42,53.85c-1.12-1.94-2-3.81-1.63-6a4.43,4.43,0,0,1,3.7-3.43.55.55,0,0,1,.39.09,3.37,3.37,0,0,1,1.3,3.53,6,6,0,0,1-1.57,2.71A10.65,10.65,0,0,0,274.42,53.85Z"></path><path class="cls-1" d="M263.24,90.38a3.32,3.32,0,0,0,1.59,1.79c.72.4,1.48.74,2.19,1.16a3.8,3.8,0,0,1,1.46,4.47c-.13.33-.36.36-.64.41a4.85,4.85,0,0,1-5.29-3.35c-.51-1.6-.56-3.14.71-4.47Z"></path><path class="cls-1" d="M248.31,58.47a3.25,3.25,0,0,0,1.58,1.78c.72.41,1.48.74,2.19,1.17a3.79,3.79,0,0,1,1.47,4.46c-.14.34-.37.37-.64.42A4.85,4.85,0,0,1,247.62,63c-.52-1.6-.57-3.15.7-4.47Z"></path><path class="cls-2" d="M253.21,88.15a6.71,6.71,0,0,1,.39-4.64,3.3,3.3,0,0,1,3.47-1.46.42.42,0,0,1,.25.16,2.52,2.52,0,0,1,0,2.81,4.5,4.5,0,0,1-1.8,1.5A8,8,0,0,0,253.21,88.15Z"></path><path class="cls-1" d="M240.12,114a3.28,3.28,0,0,0-1.08-2.06c-.59-.55-1.24-1-1.81-1.63a3.72,3.72,0,0,1-.33-4.58c.2-.28.43-.25.7-.24a4.74,4.74,0,0,1,4.23,4.43c.11,1.64-.21,3.12-1.73,4.07Z"></path><path class="cls-2" d="M217.93,106.51a5.9,5.9,0,0,1,3.39,2.36,2.92,2.92,0,0,1-.41,3.32.35.35,0,0,1-.23.12,2.22,2.22,0,0,1-2.17-1.23,3.94,3.94,0,0,1-.36-2A7.08,7.08,0,0,0,217.93,106.51Z"></path><path class="cls-2" d="M264.45,78.38a6,6,0,0,1,2.14,3.54,2.93,2.93,0,0,1-1.73,2.86.34.34,0,0,1-.26,0,2.22,2.22,0,0,1-1.48-2,3.85,3.85,0,0,1,.51-2A7.19,7.19,0,0,0,264.45,78.38Z"></path><path class="cls-1" d="M258.31,113.05a3.69,3.69,0,0,0,.35,2.65c.42.83.92,1.62,1.31,2.46a4.26,4.26,0,0,1-1.44,5.07c-.33.23-.57.11-.86,0a5.44,5.44,0,0,1-2.81-6.44c.52-1.81,1.44-3.28,3.46-3.71Z"></path><path class="cls-2" d="M307.53,39.6a7.06,7.06,0,0,1-4.24,2.46A3.46,3.46,0,0,1,299.93,40a.41.41,0,0,1,0-.31,2.66,2.66,0,0,1,2.42-1.71,4.69,4.69,0,0,1,2.38.64A8.18,8.18,0,0,0,307.53,39.6Z"></path><path class="cls-2" d="M287.52,74.69c-.07-1.92,0-3.69,1.19-5.22a3.8,3.8,0,0,1,4.18-1.11.47.47,0,0,1,.26.22,2.91,2.91,0,0,1-.43,3.21,5.18,5.18,0,0,1-2.29,1.42A8.91,8.91,0,0,0,287.52,74.69Z"></path><path class="cls-2" d="M236.92,84.31c-.07-1.92,0-3.69,1.19-5.21A3.78,3.78,0,0,1,242.29,78a.44.44,0,0,1,.26.22,2.88,2.88,0,0,1-.43,3.2,5.1,5.1,0,0,1-2.29,1.42A9.43,9.43,0,0,0,236.92,84.31Z"></path><path class="cls-1" d="M247.46,79.31a3,3,0,0,0-1.32-1.66c-.63-.39-1.29-.72-1.9-1.13a3.38,3.38,0,0,1-1.09-4c.13-.29.34-.31.59-.34a4.32,4.32,0,0,1,4.54,3.22,3.64,3.64,0,0,1-.84,3.93Z"></path><path class="cls-2" d="M281.4,71.9a6,6,0,0,1,.3,4.17,3,3,0,0,1-2.87,1.78.35.35,0,0,1-.24-.1,2.26,2.26,0,0,1-.41-2.5,4,4,0,0,1,1.38-1.57A7.37,7.37,0,0,0,281.4,71.9Z"></path><path class="cls-2" d="M208.08,72.79a7.5,7.5,0,0,1,4-3.36A3.68,3.68,0,0,1,216,71a.53.53,0,0,1,.08.32,2.84,2.84,0,0,1-2.22,2.24,5,5,0,0,1-2.6-.24A8.83,8.83,0,0,0,208.08,72.79Z"></path><path class="cls-1" d="M296.2,62.18A3.25,3.25,0,0,0,297,60c0-.83,0-1.66,0-2.48a3.79,3.79,0,0,1,3.25-3.38c.35,0,.49.16.66.37a4.83,4.83,0,0,1-.47,6.22c-1.17,1.21-2.5,2-4.27,1.47Z"></path><path class="cls-1" d="M243.9,108.49a3.29,3.29,0,0,0,.83-2.23c0-.82,0-1.65,0-2.47a3.79,3.79,0,0,1,3.25-3.38c.35,0,.49.15.66.37a4.82,4.82,0,0,1-.48,6.22,4.08,4.08,0,0,1-4.26,1.47Z"></path><path class="cls-2" d="M259.2,73.69A6.45,6.45,0,0,1,260.53,78,3.19,3.19,0,0,1,258,80.54a.4.4,0,0,1-.28-.06,2.43,2.43,0,0,1-1-2.51,4.27,4.27,0,0,1,1.07-2A7.67,7.67,0,0,0,259.2,73.69Z"></path><path class="cls-1" d="M301.25,79.71a2.81,2.81,0,0,0-1.42-1.44c-.64-.31-1.3-.56-1.92-.89a3.23,3.23,0,0,1-1.44-3.73c.09-.29.29-.33.52-.39a4.14,4.14,0,0,1,4.65,2.62,3.5,3.5,0,0,1-.4,3.83Z"></path><path class="cls-2" d="M204,75a3.77,3.77,0,0,0-2.08,1.72c-.49.81-.9,1.66-1.42,2.45a4.32,4.32,0,0,1-5.12,1.49c-.37-.17-.4-.44-.45-.75A5.51,5.51,0,0,1,199,74c1.84-.53,3.59-.52,5,1Z"></path><path class="cls-2" d="M270.73,106.76a6,6,0,0,1-3.85-1.62,3,3,0,0,1-.29-3.37.37.37,0,0,1,.21-.16,2.24,2.24,0,0,1,2.4.76,4,4,0,0,1,.78,1.95A7.38,7.38,0,0,0,270.73,106.76Z"></path><path class="cls-2" d="M230.63,94.09a6.11,6.11,0,0,1-4.16-.5,3,3,0,0,1-1.21-3.17.42.42,0,0,1,.15-.22,2.28,2.28,0,0,1,2.54.07,4.15,4.15,0,0,1,1.29,1.67A7.12,7.12,0,0,0,230.63,94.09Z"></path><path class="cls-2" d="M224.82,86.7a6.59,6.59,0,0,1-3.4,3.07,3.23,3.23,0,0,1-3.48-1.27.41.41,0,0,1-.08-.29,2.49,2.49,0,0,1,1.88-2,4.27,4.27,0,0,1,2.3.13A7.84,7.84,0,0,0,224.82,86.7Z"></path><path class="cls-1" d="M294.47,22.35a3.14,3.14,0,0,0,1.51-1.6c.31-.7.56-1.43.89-2.11a3.52,3.52,0,0,1,4-1.71c.31.1.36.31.44.56a4.47,4.47,0,0,1-2.66,5.13,3.81,3.81,0,0,1-4.17-.29Z"></path><path class="cls-1" d="M225.63,77.41a2.79,2.79,0,0,0,.51,1.94c.38.58.83,1.12,1.2,1.71a3.22,3.22,0,0,1-.61,3.92.58.58,0,0,1-.64.06,4.08,4.08,0,0,1-2.69-4.54,3.45,3.45,0,0,1,2.24-3.08Z"></path><path class="cls-1" d="M247.35,92.92a2.8,2.8,0,0,0,1.73-1c.45-.53.85-1.11,1.31-1.63a3.21,3.21,0,0,1,3.93-.49c.25.16.24.36.24.6a4.08,4.08,0,0,1-3.62,3.83,3.45,3.45,0,0,1-3.58-1.3Z"></path><path class="cls-2" d="M268.19,60a6.42,6.42,0,0,1,4,1.94,3.15,3.15,0,0,1,.12,3.59.42.42,0,0,1-.23.17,2.41,2.41,0,0,1-2.52-1,4.22,4.22,0,0,1-.71-2.11A7.88,7.88,0,0,0,268.19,60Z"></path><path class="cls-2" d="M248.61,69.93a5.92,5.92,0,0,1-4.09-.56,2.94,2.94,0,0,1-1.14-3.15.36.36,0,0,1,.16-.21,2.22,2.22,0,0,1,2.49.12,3.94,3.94,0,0,1,1.25,1.66A7.05,7.05,0,0,0,248.61,69.93Z"></path><path class="cls-2" d="M281.93,45.63a5.85,5.85,0,0,1,4.11.42,2.92,2.92,0,0,1,1.25,3.1.42.42,0,0,1-.15.22,2.25,2.25,0,0,1-2.5,0,4,4,0,0,1-1.3-1.62A6.71,6.71,0,0,0,281.93,45.63Z"></path><path class="cls-2" d="M237.44,87.54a3.36,3.36,0,0,0,2.27-.8c.65-.53,1.26-1.12,1.93-1.62a3.83,3.83,0,0,1,4.74.32c.26.25.2.48.15.76a4.92,4.92,0,0,1-5.16,3.69c-1.69-.12-3.16-.66-3.92-2.36Z"></path><path class="cls-2" d="M278.73,113.89c1,2.13,1.81,4.17,1.28,6.47a4.67,4.67,0,0,1-4.16,3.34.54.54,0,0,1-.4-.12,3.56,3.56,0,0,1-1.12-3.82A6.29,6.29,0,0,1,276.2,117,11.44,11.44,0,0,0,278.73,113.89Z"></path><path class="cls-1" d="M226.74,69.44a3.17,3.17,0,0,0-1,2.07c-.1.79-.12,1.6-.25,2.4A3.68,3.68,0,0,1,222,76.84c-.35,0-.46-.19-.61-.42a4.72,4.72,0,0,1,1.09-6c1.26-1,2.62-1.65,4.28-1Z"></path><path class="cls-1" d="M278.72,89.25a3,3,0,0,0-.22-2.19c-.32-.7-.71-1.36-1-2.07a3.51,3.51,0,0,1,1.33-4.13.63.63,0,0,1,.7,0,4.48,4.48,0,0,1,2.13,5.38,3.79,3.79,0,0,1-3,3Z"></path><path class="cls-1" d="M214.71,80.2a2.78,2.78,0,0,0-2,.37c-.61.34-1.18.75-1.79,1.08a3.21,3.21,0,0,1-3.86-.88.59.59,0,0,1,0-.65,4.08,4.08,0,0,1,4.72-2.36,3.44,3.44,0,0,1,2.92,2.45Z"></path><path class="cls-2" d="M294.55,48.07a7,7,0,0,1,4.84-.35,3.45,3.45,0,0,1,2.08,3.34.44.44,0,0,1-.12.28,2.65,2.65,0,0,1-2.9.48,4.71,4.71,0,0,1-1.84-1.61A8.17,8.17,0,0,0,294.55,48.07Z"></path><path class="cls-1" d="M258.85,60.63a2.84,2.84,0,0,0,2-.49c.6-.39,1.17-.84,1.79-1.21a3.31,3.31,0,0,1,4,.7c.2.24.13.43.06.67A4.23,4.23,0,0,1,262,63a3.59,3.59,0,0,1-3.15-2.37Z"></path><path class="cls-2" d="M251.17,104.64c2.1.45,4,1,5.35,2.7a4.26,4.26,0,0,1,.07,4.85.49.49,0,0,1-.31.22,3.24,3.24,0,0,1-3.37-1.33,5.73,5.73,0,0,1-.92-2.87A10.38,10.38,0,0,0,251.17,104.64Z"></path><path class="cls-2" d="M237.58,57.6c1.85.95,3.48,2,4.32,3.87A4.1,4.1,0,0,1,240.75,66a.53.53,0,0,1-.34.13,3.14,3.14,0,0,1-2.81-2.09,5.54,5.54,0,0,1-.14-2.91A9.92,9.92,0,0,0,237.58,57.6Z"></path><path class="cls-2" d="M193.75,52c1.85.95,3.48,2,4.32,3.86a4.11,4.11,0,0,1-1.15,4.55.53.53,0,0,1-.34.13,3.15,3.15,0,0,1-2.81-2.1,5.5,5.5,0,0,1-.14-2.9A9.93,9.93,0,0,0,193.75,52Z"></path><path class="cls-2" d="M240,99.22c.31-2,.75-3.72,2.22-5a3.89,3.89,0,0,1,4.43-.3.48.48,0,0,1,.22.28,3,3,0,0,1-1.06,3.14,5.21,5.21,0,0,1-2.58,1A9.34,9.34,0,0,0,240,99.22Z"></path><path class="cls-2" d="M298.52,31.85A6.36,6.36,0,0,1,297.09,36a3.14,3.14,0,0,1-3.54.55.36.36,0,0,1-.2-.2,2.4,2.4,0,0,1,.64-2.6,4.21,4.21,0,0,1,2-1A7.59,7.59,0,0,0,298.52,31.85Z"></path><path class="cls-2" d="M294.08,80a6.76,6.76,0,0,1,2.58,4,3.33,3.33,0,0,1-1.86,3.33.44.44,0,0,1-.3,0,2.55,2.55,0,0,1-1.76-2.24,4.43,4.43,0,0,1,.5-2.32A8,8,0,0,0,294.08,80Z"></path><path class="cls-2" d="M293,24.25a6,6,0,0,1,3.59,2.06,2.94,2.94,0,0,1-.12,3.34.37.37,0,0,1-.23.14,2.24,2.24,0,0,1-2.27-1,4,4,0,0,1-.53-2A7,7,0,0,0,293,24.25Z"></path><path class="cls-2" d="M310.66,64.78c-1.87-.54-3.54-1.18-4.65-2.77a3.84,3.84,0,0,1,.24-4.37.43.43,0,0,1,.29-.18,2.91,2.91,0,0,1,2.95,1.42,5.1,5.1,0,0,1,.65,2.64A9.25,9.25,0,0,0,310.66,64.78Z"></path><path class="cls-1" d="M274.59,108.34a3.88,3.88,0,0,0,2.33-1.49c.6-.76,1.12-1.58,1.74-2.31a4.42,4.42,0,0,1,5.4-.87c.35.21.35.49.36.81A5.65,5.65,0,0,1,279.6,110c-1.93.3-3.71.08-5-1.63Z"></path><path class="cls-1" d="M233.19,79.45a2.89,2.89,0,0,0-1.3-1.63c-.62-.39-1.27-.72-1.88-1.13a3.33,3.33,0,0,1-1.07-4c.13-.28.33-.3.58-.34A4.26,4.26,0,0,1,234,75.56a3.61,3.61,0,0,1-.82,3.89Z"></path><path class="cls-1" d="M318.74,62.07a2.91,2.91,0,0,0-1.31-1.63c-.61-.39-1.27-.72-1.87-1.13a3.34,3.34,0,0,1-1.08-4c.14-.28.34-.3.59-.34a4.26,4.26,0,0,1,4.48,3.19,3.63,3.63,0,0,1-.82,3.89Z"></path><path class="cls-2" d="M220.28,68.88a5.93,5.93,0,0,1-1.09-4,2.94,2.94,0,0,1,2.45-2.27.34.34,0,0,1,.26.06,2.23,2.23,0,0,1,.87,2.34,4,4,0,0,1-1.05,1.8A7,7,0,0,0,220.28,68.88Z"></path><path class="cls-1" d="M202,82.82a2.83,2.83,0,0,0-.73,1.87c0,.7,0,1.4,0,2.1a3.19,3.19,0,0,1-2.79,2.8c-.3,0-.41-.13-.56-.32a4.08,4.08,0,0,1,.5-5.25A3.45,3.45,0,0,1,202,82.84Z"></path><path class="cls-2" d="M275.11,61.63a6.19,6.19,0,0,1,4-1.62,3,3,0,0,1,2.66,2.24.41.41,0,0,1,0,.27,2.34,2.34,0,0,1-2.32,1.2,4.27,4.27,0,0,1-2-.85A7.26,7.26,0,0,0,275.11,61.63Z"></path><path class="cls-1" d="M235.27,73.25a2.8,2.8,0,0,0,1.22-1.59c.22-.67.37-1.35.61-2a3.21,3.21,0,0,1,3.46-1.93c.29.06.36.25.45.47a4.09,4.09,0,0,1-1.93,4.91,3.43,3.43,0,0,1-3.81.13Z"></path><path class="cls-2" d="M284.31,37.88c-1.13,1.68-2.32,3.14-4.25,3.72A4,4,0,0,1,275.79,40a.53.53,0,0,1-.09-.35,3.07,3.07,0,0,1,2.36-2.47,5.48,5.48,0,0,1,2.84.21A9.68,9.68,0,0,0,284.31,37.88Z"></path><path class="cls-1" d="M218.38,92.33a2.9,2.9,0,0,0-2,.39c-.63.36-1.23.78-1.87,1.12a3.33,3.33,0,0,1-4-.92.59.59,0,0,1,0-.67,4.25,4.25,0,0,1,4.91-2.46,3.6,3.6,0,0,1,3,2.55Z"></path><path class="cls-1" d="M201,61.08a2.83,2.83,0,0,0,1.41,1.48c.63.33,1.3.59,1.92.94a3.26,3.26,0,0,1,1.39,3.78c-.1.29-.3.33-.54.38a4.16,4.16,0,0,1-4.64-2.72,3.51,3.51,0,0,1,.48-3.85Z"></path><path class="cls-1" d="M234.24,113.76a2.89,2.89,0,0,0-1.47,1.45c-.31.64-.57,1.32-.9,2a3.31,3.31,0,0,1-3.8,1.47c-.29-.1-.33-.31-.39-.54a4.19,4.19,0,0,1,2.66-4.72,3.56,3.56,0,0,1,3.9.4Z"></path><path class="cls-1" d="M285.37,104.44a2.85,2.85,0,0,0,.12-2.07c-.19-.7-.46-1.38-.63-2.08a3.32,3.32,0,0,1,1.85-3.65.59.59,0,0,1,.65.14,4.22,4.22,0,0,1,1.19,5.33,3.58,3.58,0,0,1-3.19,2.32Z"></path><path class="cls-1" d="M291.21,23.85a2.83,2.83,0,0,0-.77-1.85c-.47-.52-1-1-1.43-1.53a3.2,3.2,0,0,1,.06-4,.57.57,0,0,1,.62-.15A4.08,4.08,0,0,1,293,20.48a3.44,3.44,0,0,1-1.78,3.36Z"></path><path class="cls-1" d="M286.75,79.6a2.82,2.82,0,0,0,.44,2c.37.59.79,1.15,1.14,1.75a3.21,3.21,0,0,1-.74,3.89.58.58,0,0,1-.65,0,4.08,4.08,0,0,1-2.52-4.63,3.44,3.44,0,0,1,2.34-3Z"></path><path class="cls-2" d="M284.61,24.77a6.6,6.6,0,0,1,4.38,1.4,3.26,3.26,0,0,1,.63,3.66.39.39,0,0,1-.21.21,2.48,2.48,0,0,1-2.7-.61,4.26,4.26,0,0,1-1-2.06A7.81,7.81,0,0,0,284.61,24.77Z"></path><path class="cls-1" d="M234.6,86a2.77,2.77,0,0,0,.5,1.94c.39.58.84,1.13,1.2,1.72a3.2,3.2,0,0,1-.6,3.91c-.23.2-.42.13-.65.07a4.09,4.09,0,0,1-2.68-4.54A3.45,3.45,0,0,1,234.61,86Z"></path><path class="cls-1" d="M255.85,72.83a3.39,3.39,0,0,0,.72-2.29c0-.83-.14-1.67-.14-2.5a3.84,3.84,0,0,1,3.1-3.58c.35-.06.51.13.69.34a4.87,4.87,0,0,1-.15,6.3c-1.11,1.28-2.42,2.13-4.22,1.71Z"></path><path class="cls-1" d="M286.65,39.53a3,3,0,0,0,1.92.92c.74.08,1.49.09,2.22.19a3.41,3.41,0,0,1,2.77,3.17c0,.32-.18.43-.38.57a4.35,4.35,0,0,1-5.54-.92,3.69,3.69,0,0,1-1-3.93Z"></path><path class="cls-1" d="M251.25,99.2a3,3,0,0,0,2.06-.58c.61-.42,1.18-.9,1.8-1.31a3.41,3.41,0,0,1,4.18.58.61.61,0,0,1,.08.68,4.35,4.35,0,0,1-4.78,2.94,3.67,3.67,0,0,1-3.32-2.32Z"></path><path class="cls-2" d="M289.15,96.52a3.45,3.45,0,0,0-.87-2.32c-.55-.67-1.17-1.28-1.7-2a4,4,0,0,1,.24-4.89c.25-.28.49-.22.78-.17a5.06,5.06,0,0,1,3.9,5.24c-.1,1.75-.63,3.27-2.36,4.09Z"></path><path class="cls-2" d="M270.57,116.74a6.66,6.66,0,0,1-3.81,2.69,3.31,3.31,0,0,1-3.36-1.72.5.5,0,0,1,0-.3,2.53,2.53,0,0,1,2.15-1.82,4.48,4.48,0,0,1,2.31.42A7.81,7.81,0,0,0,270.57,116.74Z"></path><path class="cls-1" d="M191.29,56a3,3,0,0,0-1.35,1.76c-.24.73-.41,1.49-.67,2.21a3.54,3.54,0,0,1-3.82,2.13c-.33-.06-.4-.27-.5-.51a4.51,4.51,0,0,1,2.13-5.43,3.82,3.82,0,0,1,4.2-.14Z"></path><path class="cls-1" d="M278.49,69a2.79,2.79,0,0,0,1.79-.9c.49-.5.93-1,1.43-1.53a3.19,3.19,0,0,1,4-.22.57.57,0,0,1,.2.61A4.09,4.09,0,0,1,282,70.55,3.47,3.47,0,0,1,278.5,69Z"></path><path class="cls-1" d="M269.16,92.08a2.78,2.78,0,0,0,2-.4c.6-.36,1.16-.78,1.77-1.11a3.2,3.2,0,0,1,3.88.81.58.58,0,0,1,0,.64,4.09,4.09,0,0,1-4.67,2.45,3.47,3.47,0,0,1-3-2.4Z"></path><path class="cls-2" d="M240.45,117.12a6,6,0,0,1,2.81-3,2.92,2.92,0,0,1,3.23.87.38.38,0,0,1,.09.25,2.26,2.26,0,0,1-1.53,2,4,4,0,0,1-2.08.06A7,7,0,0,0,240.45,117.12Z"></path><path class="cls-2" d="M197.75,63.86a5.94,5.94,0,0,1-.28,4.12,2.89,2.89,0,0,1-3.05,1.35.34.34,0,0,1-.23-.13,2.27,2.27,0,0,1-.06-2.5,4,4,0,0,1,1.58-1.36A6.94,6.94,0,0,0,197.75,63.86Z"></path><path class="cls-2" d="M221.61,96.76c.85,1.75,1.49,3.43,1,5.32a3.83,3.83,0,0,1-3.41,2.75.5.5,0,0,1-.33-.1,2.93,2.93,0,0,1-.92-3.14,5.17,5.17,0,0,1,1.53-2.25A9.24,9.24,0,0,0,221.61,96.76Z"></path><path class="cls-2" d="M299.92,63.79a5.94,5.94,0,0,1-1.19,4,2.93,2.93,0,0,1-3.29.63.37.37,0,0,1-.19-.18,2.26,2.26,0,0,1,.51-2.45,3.91,3.91,0,0,1,1.84-1A7.1,7.1,0,0,0,299.92,63.79Z"></path><path class="cls-2" d="M229.36,102.13a6.19,6.19,0,0,1-.08-4.3,3,3,0,0,1,3-1.67.37.37,0,0,1,.25.12,2.34,2.34,0,0,1,.28,2.58,4.16,4.16,0,0,1-1.51,1.55A7.41,7.41,0,0,0,229.36,102.13Z"></path><path class="cls-1" d="M294.55,51.69a2.82,2.82,0,0,0-1.78.93c-.48.51-.91,1.07-1.4,1.56a3.21,3.21,0,0,1-3.95.29.6.6,0,0,1-.21-.61A4.08,4.08,0,0,1,291,50.22a3.45,3.45,0,0,1,3.51,1.49Z"></path><path class="cls-2" d="M265.17,113.13a6.15,6.15,0,0,1-3.22-2.79,3,3,0,0,1,.78-3.36.46.46,0,0,1,.26-.1,2.31,2.31,0,0,1,2.09,1.51,4.07,4.07,0,0,1,.14,2.13A7.34,7.34,0,0,0,265.17,113.13Z"></path><path class="cls-2" d="M208.57,92.55a6,6,0,0,1-3.08-2.76,2.94,2.94,0,0,1,.82-3.24.38.38,0,0,1,.25-.09,2.23,2.23,0,0,1,2,1.49,3.84,3.84,0,0,1,.1,2.07A7.09,7.09,0,0,0,208.57,92.55Z"></path><path class="cls-1" d="M210.77,103.53a2.78,2.78,0,0,0,1,1.75c.52.46,1.09.87,1.6,1.34a3.2,3.2,0,0,1,.43,3.94c-.17.25-.37.23-.61.23a4.09,4.09,0,0,1-3.77-3.69,3.48,3.48,0,0,1,1.37-3.56Z"></path><path class="cls-2" d="M275.69,96.89a5.88,5.88,0,0,1-.27,4.12,2.94,2.94,0,0,1-3.06,1.36.43.43,0,0,1-.23-.14,2.25,2.25,0,0,1-.05-2.5,4,4,0,0,1,1.57-1.36A6.94,6.94,0,0,0,275.69,96.89Z"></path><path class="cls-1" d="M270.18,67.88a2.8,2.8,0,0,0-1.75,1c-.46.52-.87,1.09-1.34,1.6a3.2,3.2,0,0,1-3.94.43c-.25-.17-.23-.37-.23-.6a4.1,4.1,0,0,1,3.69-3.78,3.48,3.48,0,0,1,3.56,1.37Z"></path><path class="cls-2" d="M307,49.7A6.19,6.19,0,0,1,310.64,52a3,3,0,0,1-.25,3.47.45.45,0,0,1-.24.14,2.32,2.32,0,0,1-2.32-1.17,4.12,4.12,0,0,1-.48-2.11A7.46,7.46,0,0,0,307,49.7Z"></path><path class="cls-1" d="M273.38,88.08a2.89,2.89,0,0,0-1.29-1.6c-.6-.39-1.24-.71-1.83-1.11a3.27,3.27,0,0,1-1.06-3.91c.13-.28.33-.3.57-.33a4.19,4.19,0,0,1,4.4,3.13,3.53,3.53,0,0,1-.81,3.82Z"></path><path class="cls-1" d="M267.41,121.46a2.83,2.83,0,0,0,1.43,1.4c.63.3,1.29.53,1.92.85a3.21,3.21,0,0,1,1.49,3.67c-.09.28-.29.32-.52.39a4.09,4.09,0,0,1-4.64-2.51,3.46,3.46,0,0,1,.33-3.8Z"></path><path class="cls-2" d="M394.64,220.85c-1.12-1.94-2-3.81-1.63-6a4.43,4.43,0,0,1,3.7-3.44.57.57,0,0,1,.38.09A3.36,3.36,0,0,1,398.4,215a5.92,5.92,0,0,1-1.58,2.7A11,11,0,0,0,394.64,220.85Z"></path><path class="cls-2" d="M402.15,212.63a5.91,5.91,0,0,1,4.11.42,2.92,2.92,0,0,1,1.25,3.1.42.42,0,0,1-.15.22,2.23,2.23,0,0,1-2.5,0,4,4,0,0,1-1.3-1.62A6.82,6.82,0,0,0,402.15,212.63Z"></path><path class="cls-2" d="M404.53,204.88c-1.13,1.68-2.32,3.14-4.26,3.72A4,4,0,0,1,396,207a.52.52,0,0,1-.09-.36,3.06,3.06,0,0,1,2.36-2.47,5.48,5.48,0,0,1,2.84.21A9.68,9.68,0,0,0,404.53,204.88Z"></path><path class="cls-1" d="M406.87,206.54a3,3,0,0,0,1.92.91c.74.08,1.49.09,2.22.19a3.42,3.42,0,0,1,2.77,3.17c0,.32-.18.43-.38.57a4.35,4.35,0,0,1-5.54-.91,3.7,3.7,0,0,1-1-3.93Z"></path><path class="cls-2" d="M428.67,126.69a6.18,6.18,0,0,1,1.34-4,3,3,0,0,1,3.4-.57.37.37,0,0,1,.19.2,2.31,2.31,0,0,1-.58,2.51,4.08,4.08,0,0,1-1.93,1A7.25,7.25,0,0,0,428.67,126.69Z"></path><path class="cls-2" d="M436.06,124.83a4.07,4.07,0,0,1,2.19,1.79,2,2,0,0,1-.46,2.24.36.36,0,0,1-.17.07,1.53,1.53,0,0,1-1.41-1,2.66,2.66,0,0,1-.14-1.42A4.74,4.74,0,0,0,436.06,124.83Z"></path><path class="cls-2" d="M440.34,121.31a5.54,5.54,0,0,1-3.83.51,2.73,2.73,0,0,1-1.82-2.55.39.39,0,0,1,.09-.23,2.1,2.1,0,0,1,2.28-.52,3.76,3.76,0,0,1,1.54,1.19A6.71,6.71,0,0,0,440.34,121.31Z"></path><path class="cls-1" d="M441.05,123.13a2,2,0,0,0,.75,1.25c.39.32.81.61,1.19,1a2.32,2.32,0,0,1,.39,2.85c-.12.18-.26.18-.44.18a3,3,0,0,1-2.81-2.61,2.51,2.51,0,0,1,.93-2.61Z"></path><path class="cls-2" d="M461.27,122.76a5.7,5.7,0,0,1,2.54-3.05,2.82,2.82,0,0,1,3.14.68.32.32,0,0,1,.09.23,2.13,2.13,0,0,1-1.36,2,3.76,3.76,0,0,1-2,.17A6.56,6.56,0,0,0,461.27,122.76Z"></path><path class="cls-2" d="M477.56,122.31a6.5,6.5,0,0,1,1-4.4,3.21,3.21,0,0,1,3.53-.94.45.45,0,0,1,.22.19,2.44,2.44,0,0,1-.37,2.7,4.24,4.24,0,0,1-1.93,1.2A7.5,7.5,0,0,0,477.56,122.31Z"></path><path class="cls-2" d="M473.38,117.86a5.09,5.09,0,0,1,.26,3.51,2.5,2.5,0,0,1-2.42,1.51.36.36,0,0,1-.21-.09,1.91,1.91,0,0,1-.34-2.1,3.21,3.21,0,0,1,1.17-1.33A6.07,6.07,0,0,0,473.38,117.86Z"></path><path class="cls-1" d="M490.12,124.45a2.38,2.38,0,0,0-1.2-1.22c-.54-.26-1.1-.47-1.62-.75a2.74,2.74,0,0,1-1.22-3.15c.09-.24.25-.27.45-.32a3.48,3.48,0,0,1,3.91,2.2,2.93,2.93,0,0,1-.34,3.23Z"></path><path class="cls-2" d="M464.59,112.07A5.42,5.42,0,0,1,468,113.7a2.63,2.63,0,0,1,.1,3,.32.32,0,0,1-.19.15,2,2,0,0,1-2.12-.8,3.51,3.51,0,0,1-.6-1.79A6.6,6.6,0,0,0,464.59,112.07Z"></path><path class="cls-2" d="M483.55,121.79a5.71,5.71,0,0,1,2.18,3.33,2.82,2.82,0,0,1-1.57,2.81.36.36,0,0,1-.25,0,2.15,2.15,0,0,1-1.49-1.89,3.76,3.76,0,0,1,.42-2A6.69,6.69,0,0,0,483.55,121.79Z"></path><path class="cls-1" d="M470.93,115.42a2.3,2.3,0,0,0,1.51-.76c.41-.42.78-.88,1.21-1.29a2.69,2.69,0,0,1,3.33-.18c.2.15.18.32.17.52a3.45,3.45,0,0,1-3.28,3,2.9,2.9,0,0,1-2.93-1.31Z"></path><path class="cls-2" d="M493.26,125.33a5,5,0,0,1-1,3.33,2.45,2.45,0,0,1-2.77.53.39.39,0,0,1-.16-.15,1.9,1.9,0,0,1,.43-2.07,3.27,3.27,0,0,1,1.55-.81A6.15,6.15,0,0,0,493.26,125.33Z"></path><path class="cls-1" d="M461.38,119a2.36,2.36,0,0,0-1.47.83c-.39.44-.73.93-1.13,1.36a2.7,2.7,0,0,1-3.32.35c-.21-.14-.2-.31-.2-.5a3.44,3.44,0,0,1,3.11-3.18,2.9,2.9,0,0,1,3,1.15Z"></path><path class="cls-2" d="M335.31,118.25a7.11,7.11,0,0,1-4.35-2.4,3.52,3.52,0,0,1,.08-4,.44.44,0,0,1,.27-.17,2.68,2.68,0,0,1,2.75,1.2,4.78,4.78,0,0,1,.67,2.4A8.66,8.66,0,0,0,335.31,118.25Z"></path><path class="cls-1" d="M355.19,100.11a3.05,3.05,0,0,0,.62,2.08c.44.61.95,1.18,1.37,1.81a3.46,3.46,0,0,1-.51,4.24.64.64,0,0,1-.69.1,4.42,4.42,0,0,1-3.08-4.8,3.73,3.73,0,0,1,2.31-3.42Z"></path><path class="cls-2" d="M341.76,128.08a3.05,3.05,0,0,0,.62,2.08c.44.61.94,1.18,1.36,1.8a3.45,3.45,0,0,1-.51,4.25c-.23.22-.44.16-.69.1a4.42,4.42,0,0,1-3.07-4.81,3.73,3.73,0,0,1,2.3-3.41Z"></path><path class="cls-2" d="M388,88.27a3.07,3.07,0,0,0-1.75,1.28c-.43.62-.8,1.29-1.25,1.89a3.46,3.46,0,0,1-4.17,1c-.29-.15-.3-.37-.32-.62A4.43,4.43,0,0,1,384,87.26a3.74,3.74,0,0,1,4,1Z"></path><path class="cls-2" d="M353.7,62a6.61,6.61,0,0,1,4.2-1.8,3.23,3.23,0,0,1,2.87,2.34.37.37,0,0,1,0,.29,2.49,2.49,0,0,1-2.43,1.31,4.41,4.41,0,0,1-2.13-.87A7.6,7.6,0,0,0,353.7,62Z"></path><path class="cls-1" d="M342.67,110.84a3.39,3.39,0,0,0,.06-2.41c-.26-.8-.6-1.58-.83-2.39a3.85,3.85,0,0,1,2-4.32c.32-.16.52,0,.76.13a4.91,4.91,0,0,1,1.6,6.15c-.72,1.55-1.75,2.73-3.61,2.83Z"></path><path class="cls-2" d="M361.58,115.51a7,7,0,0,1,.15-4.79,3.4,3.4,0,0,1,3.49-1.69.43.43,0,0,1,.27.15,2.6,2.6,0,0,1,.17,2.89,4.64,4.64,0,0,1-1.77,1.64A8.13,8.13,0,0,0,361.58,115.51Z"></path><path class="cls-2" d="M369.08,90.24a6.52,6.52,0,0,1,2.79,3.54,3.22,3.22,0,0,1-1.49,3.33.42.42,0,0,1-.29,0,2.45,2.45,0,0,1-1.87-2,4.32,4.32,0,0,1,.29-2.25A7.72,7.72,0,0,0,369.08,90.24Z"></path><path class="cls-2" d="M342.37,68.33a6.55,6.55,0,0,1,2.79,3.54,3.2,3.2,0,0,1-1.5,3.33.45.45,0,0,1-.28.06,2.46,2.46,0,0,1-1.87-2A4.32,4.32,0,0,1,341.8,71,7.72,7.72,0,0,0,342.37,68.33Z"></path><path class="cls-2" d="M410.16,55.88a6.46,6.46,0,0,1-.78,4.44,3.17,3.17,0,0,1-3.47,1.11.39.39,0,0,1-.23-.17,2.46,2.46,0,0,1,.23-2.72,4.44,4.44,0,0,1,1.86-1.29A7.61,7.61,0,0,0,410.16,55.88Z"></path><path class="cls-2" d="M339.5,99.79a6.57,6.57,0,0,1-1.56-4.27,3.21,3.21,0,0,1,2.46-2.72.37.37,0,0,1,.29,0,2.44,2.44,0,0,1,1.17,2.48,4.33,4.33,0,0,1-1,2.06A7.81,7.81,0,0,0,339.5,99.79Z"></path><path class="cls-1" d="M375.77,133.88a3.44,3.44,0,0,0-2.48.28c-.78.38-1.52.83-2.32,1.19a4,4,0,0,1-4.7-1.43c-.21-.31-.1-.53,0-.8a5.09,5.09,0,0,1,6.06-2.52c1.68.52,3,1.4,3.41,3.29Z"></path><path class="cls-2" d="M386.61,65.53a3.5,3.5,0,0,0-2.48.29c-.78.38-1.53.83-2.32,1.18a4,4,0,0,1-4.71-1.42.74.74,0,0,1,0-.81,5.09,5.09,0,0,1,6.06-2.52c1.68.52,3,1.4,3.4,3.29Z"></path><path class="cls-1" d="M368.1,119.54a3.23,3.23,0,0,0-1.22,1.92c-.18.77-.28,1.56-.49,2.32a3.63,3.63,0,0,1-3.71,2.52c-.34,0-.43-.24-.55-.48a4.62,4.62,0,0,1,1.68-5.73,3.92,3.92,0,0,1,4.29-.53Z"></path><path class="cls-1" d="M352.41,65.76A2.58,2.58,0,0,0,351,67c-.32.57-.58,1.17-.92,1.73a3,3,0,0,1-3.51,1.15c-.26-.1-.29-.29-.33-.51a3.81,3.81,0,0,1,2.64-4.16,3.24,3.24,0,0,1,3.51.56Z"></path><path class="cls-1" d="M338.2,141.61a2.11,2.11,0,0,0,1.21.9c.5.15,1,.26,1.51.43a2.41,2.41,0,0,1,1.49,2.57c0,.22-.18.27-.34.34a3.08,3.08,0,0,1-3.71-1.38,2.61,2.61,0,0,1-.15-2.86Z"></path><path class="cls-2" d="M331.54,104.45a5.12,5.12,0,0,1,.73-3.47,2.51,2.51,0,0,1,2.76-.79.3.3,0,0,1,.18.15,1.92,1.92,0,0,1-.25,2.13,3.39,3.39,0,0,1-1.5,1A5.92,5.92,0,0,0,331.54,104.45Z"></path><path class="cls-1" d="M340.46,153.64a6.89,6.89,0,0,1,1-4.69,3.42,3.42,0,0,1,3.74-1.07.5.5,0,0,1,.23.2,2.6,2.6,0,0,1-.33,2.88,4.5,4.5,0,0,1-2,1.3A8.14,8.14,0,0,0,340.46,153.64Z"></path><path class="cls-2" d="M346.9,99.73a4.73,4.73,0,0,1,2-2.58,2.33,2.33,0,0,1,2.61.47.26.26,0,0,1,.08.19,1.77,1.77,0,0,1-1.06,1.66,3.18,3.18,0,0,1-1.64.19A5.6,5.6,0,0,0,346.9,99.73Z"></path><path class="cls-1" d="M379.59,88.63a2,2,0,0,0-1.3.62c-.36.35-.68.74-1.05,1.08a2.27,2.27,0,0,1-2.83.11c-.17-.13-.15-.27-.14-.44a2.94,2.94,0,0,1,2.83-2.52,2.49,2.49,0,0,1,2.48,1.16Z"></path><path class="cls-2" d="M364.56,130.6a4.21,4.21,0,0,1-2.57,1.49,2.1,2.1,0,0,1-2-1.27.31.31,0,0,1,0-.19,1.62,1.62,0,0,1,1.47-1,3,3,0,0,1,1.43.39A5,5,0,0,0,364.56,130.6Z"></path><path class="cls-2" d="M394.56,66.31A4.21,4.21,0,0,1,392,67.8a2.1,2.1,0,0,1-2-1.27.31.31,0,0,1,0-.19,1.62,1.62,0,0,1,1.47-1,2.85,2.85,0,0,1,1.43.4A5.19,5.19,0,0,0,394.56,66.31Z"></path><path class="cls-1" d="M335.14,87.52a2,2,0,0,0,1.44,0c.47-.15.94-.35,1.42-.49a2.29,2.29,0,0,1,2.57,1.2c.1.19,0,.31-.08.45a2.93,2.93,0,0,1-3.66,1,2.48,2.48,0,0,1-1.68-2.16Z"></path><path class="cls-1" d="M359,101.08a2,2,0,0,0,1.44,0c.48-.15.94-.35,1.42-.49a2.3,2.3,0,0,1,2.58,1.2.41.41,0,0,1-.08.45,2.93,2.93,0,0,1-3.66,1,2.49,2.49,0,0,1-1.69-2.16Z"></path><path class="cls-1" d="M359.5,95a2,2,0,0,0,1.38.41c.5,0,1-.1,1.5-.11a2.3,2.3,0,0,1,2.19,1.82.43.43,0,0,1-.2.42,2.93,2.93,0,0,1-3.79,0A2.48,2.48,0,0,1,359.51,95Z"></path><path class="cls-2" d="M342.65,116.9a4.28,4.28,0,0,1-2.14-2.05,2.1,2.1,0,0,1,.67-2.31.25.25,0,0,1,.17-.06,1.61,1.61,0,0,1,1.4,1.12,2.79,2.79,0,0,1,0,1.49A5.16,5.16,0,0,0,342.65,116.9Z"></path><path class="cls-1" d="M339,120.07a2.06,2.06,0,0,0-.35,1.46c.05.52.15,1,.19,1.56a2.41,2.41,0,0,1-1.78,2.38c-.22,0-.32-.06-.45-.19a3.06,3.06,0,0,1-.18-4,2.58,2.58,0,0,1,2.57-1.25Z"></path><path class="cls-1" d="M366.44,66a2.13,2.13,0,0,0-.94-1.18c-.45-.27-.92-.51-1.35-.8a2.4,2.4,0,0,1-.78-2.86c.09-.21.24-.22.41-.25A3.08,3.08,0,0,1,367,63.16a2.59,2.59,0,0,1-.59,2.79Z"></path><path class="cls-1" d="M342.54,76.87a2.13,2.13,0,0,0-.35,1.47c.06.52.16,1,.19,1.56a2.38,2.38,0,0,1-1.78,2.37c-.21.06-.32,0-.44-.18a3,3,0,0,1-.18-4,2.58,2.58,0,0,1,2.56-1.25Z"></path><path class="cls-2" d="M353.81,112a4.31,4.31,0,0,1-2.84.87,2.1,2.1,0,0,1-1.69-1.7.23.23,0,0,1,0-.18,1.57,1.57,0,0,1,1.65-.68,2.82,2.82,0,0,1,1.32.7A4.94,4.94,0,0,0,353.81,112Z"></path><path class="cls-2" d="M369.63,66.09a4.93,4.93,0,0,1-.54-3.38A2.42,2.42,0,0,1,371.3,61a.4.4,0,0,1,.21.07,1.87,1.87,0,0,1,.51,2,3.21,3.21,0,0,1-1,1.39A5.88,5.88,0,0,0,369.63,66.09Z"></path><path class="cls-1" d="M328.39,118.75a2,2,0,0,0-.68,1.27c-.08.49-.11,1-.21,1.49a2.3,2.3,0,0,1-2.23,1.75c-.22,0-.29-.13-.37-.28a2.94,2.94,0,0,1,.81-3.7,2.48,2.48,0,0,1,2.68-.52Z"></path><path class="cls-1" d="M400.32,60.91a2.05,2.05,0,0,0,.42,1.41c.3.42.64.8.92,1.23a2.35,2.35,0,0,1-.34,2.89.41.41,0,0,1-.47.06,3,3,0,0,1-2.09-3.26,2.54,2.54,0,0,1,1.56-2.33Z"></path><path class="cls-2" d="M446.27,65a6.4,6.4,0,0,1,1-4.39,3.18,3.18,0,0,1,3.52-.94.38.38,0,0,1,.22.19,2.44,2.44,0,0,1-.36,2.7,4.33,4.33,0,0,1-1.93,1.19A7.8,7.8,0,0,0,446.27,65Z"></path><path class="cls-2" d="M459.88,59.33a6.46,6.46,0,0,1,4,2A3.19,3.19,0,0,1,464,65a.41.41,0,0,1-.24.17,2.45,2.45,0,0,1-2.53-1A4.28,4.28,0,0,1,460.5,62,7.55,7.55,0,0,0,459.88,59.33Z"></path><path class="cls-1" d="M456.06,66.31a1.69,1.69,0,0,0-1.2-.18c-.42.08-.83.2-1.25.26a1.92,1.92,0,0,1-2-1.26c-.06-.17,0-.26.11-.38a2.49,2.49,0,0,1,3.17-.42,2.1,2.1,0,0,1,1.19,2Z"></path><path class="cls-1" d="M450.86,58a1.75,1.75,0,0,0-1.23-.12c-.41.1-.82.24-1.24.33A2,2,0,0,1,446.26,57a.35.35,0,0,1,.1-.38,2.51,2.51,0,0,1,3.18-.6A2.13,2.13,0,0,1,450.85,58Z"></path><path class="cls-1" d="M454.37,71.62a2.45,2.45,0,0,0,1.13-1.38c.22-.58.38-1.18.61-1.75a2.82,2.82,0,0,1,3.12-1.6c.26,0,.31.22.38.42a3.62,3.62,0,0,1-1.85,4.29,3.06,3.06,0,0,1-3.38,0Z"></path><path class="cls-1" d="M454.2,52.14a1.68,1.68,0,0,0-.27,1.15c0,.41.12.82.15,1.23a1.88,1.88,0,0,1-1.4,1.86c-.17,0-.25,0-.35-.14a2.4,2.4,0,0,1-.14-3.1,2,2,0,0,1,2-1Z"></path><path class="cls-2" d="M449.36,71.75a3.8,3.8,0,0,1,.72-2.54,1.88,1.88,0,0,1,2.1-.44.21.21,0,0,1,.12.11,1.43,1.43,0,0,1-.3,1.57,2.51,2.51,0,0,1-1.16.64A4.53,4.53,0,0,0,449.36,71.75Z"></path><path class="cls-2" d="M453.08,61.39a1.64,1.64,0,0,0,.83-.85c.18-.37.32-.76.5-1.12a1.87,1.87,0,0,1,2.16-.88c.17.05.19.17.23.3a2.4,2.4,0,0,1-1.48,2.73,2,2,0,0,1-2.23-.19Z"></path><path class="cls-2" d="M452,78.14a3.64,3.64,0,0,1,1.22-2.21,1.77,1.77,0,0,1,2,0,.2.2,0,0,1,.09.13,1.37,1.37,0,0,1-.61,1.4,2.43,2.43,0,0,1-1.22.35A4.14,4.14,0,0,0,452,78.14Z"></path><path class="cls-2" d="M392.82,196.1a2.94,2.94,0,0,0-2.09-.34c-.73.13-1.44.33-2.17.43a3.37,3.37,0,0,1-3.51-2.25c-.1-.3,0-.46.2-.65a4.32,4.32,0,0,1,5.53-.66,3.64,3.64,0,0,1,2,3.47Z"></path><path class="cls-1" d="M354.82,194.53a2.56,2.56,0,0,0,1.79,0c.59-.2,1.16-.45,1.76-.63a2.87,2.87,0,0,1,3.22,1.46.53.53,0,0,1-.1.57,3.64,3.64,0,0,1-4.55,1.22,3.06,3.06,0,0,1-2.11-2.66Z"></path><path class="cls-2" d="M374,201.19a5.5,5.5,0,0,1-2.52-2.89,2.71,2.71,0,0,1,1.12-2.9.31.31,0,0,1,.23-.06,2.07,2.07,0,0,1,1.68,1.6,3.61,3.61,0,0,1-.14,1.93A6.72,6.72,0,0,0,374,201.19Z"></path><path class="cls-1" d="M344.59,201.12a2.19,2.19,0,0,0-.21-1.57c-.25-.49-.54-1-.78-1.45a2.53,2.53,0,0,1,.85-3,.47.47,0,0,1,.51,0,3.21,3.21,0,0,1,1.66,3.8,2.72,2.72,0,0,1-2,2.2Z"></path><path class="cls-2" d="M350.3,198.13a4.67,4.67,0,0,1,.55-3.17,2.29,2.29,0,0,1,2.48-.79.24.24,0,0,1,.16.12,1.74,1.74,0,0,1-.16,1.94,3.11,3.11,0,0,1-1.32.92A5.68,5.68,0,0,0,350.3,198.13Z"></path><path class="cls-2" d="M365,199.84a4.62,4.62,0,0,1-.9-3.09A2.29,2.29,0,0,1,366,195a.29.29,0,0,1,.2,0,1.74,1.74,0,0,1,.7,1.81,3,3,0,0,1-.79,1.41A5.74,5.74,0,0,0,365,199.84Z"></path><path class="cls-1" d="M354.9,198.66a2.18,2.18,0,0,0,1.51.47c.55,0,1.1-.09,1.65-.09a2.52,2.52,0,0,1,2.36,2c0,.24-.09.34-.22.46a3.21,3.21,0,0,1-4.16-.1,2.72,2.72,0,0,1-1.13-2.78Z"></path><path class="cls-2" d="M381.94,196.35a4.7,4.7,0,0,1,.35,3.26,2.32,2.32,0,0,1-2.2,1.48.29.29,0,0,1-.2-.07,1.8,1.8,0,0,1-.39-2,3.06,3.06,0,0,1,1.05-1.28A5.79,5.79,0,0,0,381.94,196.35Z"></path><path class="cls-1" d="M169.08,175.57a2.32,2.32,0,0,0-.59,1.59c0,.59,0,1.18,0,1.77a2.71,2.71,0,0,1-2.32,2.42c-.25,0-.35-.11-.48-.27a3.46,3.46,0,0,1,.34-4.45,2.93,2.93,0,0,1,3.05-1Z"></path><path class="cls-1" d="M218.21,190.3a2.69,2.69,0,0,0,1.65-1.05c.42-.54.79-1.11,1.23-1.63a3.12,3.12,0,0,1,3.81-.62c.25.15.25.35.25.58a4,4,0,0,1-3.4,3.86,3.38,3.38,0,0,1-3.53-1.15Z"></path><path class="cls-2" d="M167,170.82a5.39,5.39,0,0,1,.19-3.74,2.65,2.65,0,0,1,2.75-1.28.35.35,0,0,1,.21.12,2.06,2.06,0,0,1,.09,2.27,3.71,3.71,0,0,1-1.41,1.26A6.36,6.36,0,0,0,167,170.82Z"></path><path class="cls-1" d="M175,171.16a2.41,2.41,0,0,0,1.69-.17c.53-.25,1-.54,1.58-.77a2.69,2.69,0,0,1,3.18,1c.14.21.06.36,0,.54a3.43,3.43,0,0,1-4.13,1.64,2.91,2.91,0,0,1-2.28-2.27Z"></path><path class="cls-2" d="M261.24,194a5.09,5.09,0,0,1-.56-3.46,2.51,2.51,0,0,1,2.27-1.7.31.31,0,0,1,.21.07,1.91,1.91,0,0,1,.53,2.06,3.43,3.43,0,0,1-1,1.42A5.82,5.82,0,0,0,261.24,194Z"></path><path class="cls-1" d="M215.2,190.33A2.56,2.56,0,0,0,214,189c-.56-.31-1.15-.57-1.7-.9a2.94,2.94,0,0,1-1.13-3.44c.11-.26.29-.29.5-.33a3.75,3.75,0,0,1,4.08,2.59,3.16,3.16,0,0,1-.55,3.45Z"></path><path class="cls-2" d="M204.64,179.92a2.63,2.63,0,0,0-1.73.79c-.47.46-.91,1-1.4,1.4a3,3,0,0,1-3.74.08c-.22-.18-.19-.37-.17-.59a3.87,3.87,0,0,1,3.79-3.25,3.27,3.27,0,0,1,3.24,1.58Z"></path><path class="cls-2" d="M233.67,191.38a2.65,2.65,0,0,0-1.72.79c-.48.46-.91,1-1.4,1.4a3,3,0,0,1-3.75.08c-.22-.18-.19-.37-.17-.59a3.87,3.87,0,0,1,3.79-3.25,3.27,3.27,0,0,1,3.24,1.58Z"></path><path class="cls-2" d="M190.71,179.5a5.31,5.31,0,0,1-1.73-3.23,2.6,2.6,0,0,1,1.66-2.46.39.39,0,0,1,.24,0,2,2,0,0,1,1.21,1.85,3.5,3.5,0,0,1-.54,1.76A6.23,6.23,0,0,0,190.71,179.5Z"></path><path class="cls-1" d="M164,166.83a2.29,2.29,0,0,0-1.64-.21c-.57.12-1.12.29-1.69.39a2.64,2.64,0,0,1-2.8-1.67.49.49,0,0,1,.14-.52,3.39,3.39,0,0,1,4.31-.65,2.87,2.87,0,0,1,1.67,2.67Z"></path><path class="cls-1" d="M256.83,192.21a2.44,2.44,0,0,0-1.51-.93c-.6-.13-1.22-.2-1.82-.35a2.83,2.83,0,0,1-2-2.86c0-.27.19-.34.37-.44a3.62,3.62,0,0,1,4.5,1.24,3.06,3.06,0,0,1,.47,3.34Z"></path><path class="cls-1" d="M235,177.74a2.68,2.68,0,0,0-1.51,1.21c-.36.57-.67,1.17-1,1.73a3.08,3.08,0,0,1-3.68,1c-.27-.12-.28-.31-.31-.53a3.94,3.94,0,0,1,2.94-4.15,3.35,3.35,0,0,1,3.59.76Z"></path><path class="cls-2" d="M209.17,182.39a2.53,2.53,0,0,0-.39-1.78c-.34-.54-.72-1.05-1-1.59a2.9,2.9,0,0,1,.68-3.53.52.52,0,0,1,.58,0,3.69,3.69,0,0,1,2.29,4.2,3.14,3.14,0,0,1-2.12,2.73Z"></path><path class="cls-1" d="M222.08,174a2.36,2.36,0,0,0,.4,1.65c.32.49.68,1,1,1.46a2.71,2.71,0,0,1-.57,3.29.49.49,0,0,1-.55.05,3.46,3.46,0,0,1-2.2-3.87,2.93,2.93,0,0,1,1.94-2.57Z"></path><path class="cls-2" d="M146.9,164.71a5.7,5.7,0,0,1,1,3.85,2.84,2.84,0,0,1-2.37,2.2.33.33,0,0,1-.25-.06,2.15,2.15,0,0,1-.84-2.26,3.87,3.87,0,0,1,1-1.74A6.72,6.72,0,0,0,146.9,164.71Z"></path><path class="cls-1" d="M158.19,172.49a2.6,2.6,0,0,0-1.88.12c-.61.25-1.19.57-1.8.8a3,3,0,0,1-3.5-1.26.56.56,0,0,1,.05-.61,3.86,3.86,0,0,1,4.68-1.66,3.26,3.26,0,0,1,2.44,2.62Z"></path><path class="cls-2" d="M240.1,185.84a3,3,0,0,0,.25,2.13c.32.67.71,1.31,1,2a3.42,3.42,0,0,1-1.22,4c-.27.18-.46.08-.69,0a4.36,4.36,0,0,1-2.17-5.21,3.69,3.69,0,0,1,2.83-2.93Z"></path><path class="cls-2" d="M151.77,160.52A5.07,5.07,0,0,1,155,162a2.5,2.5,0,0,1,.19,2.85.36.36,0,0,1-.18.14,1.9,1.9,0,0,1-2-.69,3.26,3.26,0,0,1-.63-1.66A6.08,6.08,0,0,0,151.77,160.52Z"></path><path class="cls-2" d="M227.53,188.35a5,5,0,0,1,2.36-2.46,2.41,2.41,0,0,1,2.65.77.25.25,0,0,1,.07.2,1.82,1.82,0,0,1-1.29,1.61,3.2,3.2,0,0,1-1.71,0A5.71,5.71,0,0,0,227.53,188.35Z"></path><path class="cls-2" d="M250,194.93a4.9,4.9,0,0,1,2.37-2.46,2.43,2.43,0,0,1,2.65.76.32.32,0,0,1,.06.21,1.83,1.83,0,0,1-1.28,1.61,3.24,3.24,0,0,1-1.72,0A5.94,5.94,0,0,0,250,194.93Z"></path><path class="cls-1" d="M178,180.38a2.24,2.24,0,0,0-1.65-.07c-.56.16-1.09.38-1.65.53a2.65,2.65,0,0,1-2.94-1.42c-.1-.23,0-.36.11-.52a3.37,3.37,0,0,1,4.23-1,2.87,2.87,0,0,1,1.89,2.51Z"></path><path class="cls-1" d="M244.86,190A1.57,1.57,0,0,0,246,190c.35-.14.7-.32,1.06-.45a1.75,1.75,0,0,1,2,.77.33.33,0,0,1,0,.36,2.27,2.27,0,0,1-2.76.92,1.91,1.91,0,0,1-1.4-1.56Z"></path><path class="cls-1" d="M184.08,173.29a2.22,2.22,0,0,0,.87,1.36c.44.35.91.65,1.34,1a2.58,2.58,0,0,1,.5,3.13.46.46,0,0,1-.48.21,3.26,3.26,0,0,1-3.16-2.8,2.75,2.75,0,0,1,.94-2.9Z"></path><path class="cls-1" d="M175.92,168a1.67,1.67,0,0,0-.76-.93c-.36-.21-.74-.4-1.1-.63a1.92,1.92,0,0,1-.66-2.28c.08-.17.2-.18.34-.2a2.45,2.45,0,0,1,2.61,1.79,2.08,2.08,0,0,1-.43,2.25Z"></path><path class="cls-2" d="M186.8,171.69a1.56,1.56,0,0,0-1.1-.13c-.38.09-.74.21-1.12.28a1.76,1.76,0,0,1-1.89-1.08c-.06-.16,0-.24.09-.34a2.24,2.24,0,0,1,2.87-.49,1.91,1.91,0,0,1,1.14,1.76Z"></path><path class="cls-1" d="M195.87,177a1.51,1.51,0,0,0,.33-1.06c0-.38-.06-.76-.06-1.15a1.78,1.78,0,0,1,1.43-1.65c.16,0,.23.06.32.16a2.24,2.24,0,0,1-.07,2.9,1.91,1.91,0,0,1-1.95.79Z"></path><path class="cls-1" d="M242.33,189.38a1.56,1.56,0,0,0,.33-1.06c0-.38-.06-.77-.06-1.15a1.76,1.76,0,0,1,1.42-1.65c.16,0,.23.06.32.16a2.24,2.24,0,0,1-.07,2.9,1.9,1.9,0,0,1-2,.79Z"></path><path class="cls-1" d="M213.89,179.37a1.72,1.72,0,0,0,1.18.09c.4-.11.79-.25,1.19-.35a1.91,1.91,0,0,1,2.07,1.1.35.35,0,0,1-.09.37,2.42,2.42,0,0,1-3.05.63,2.07,2.07,0,0,1-1.3-1.85Z"></path><path class="cls-1" d="M233.23,182.81a1.72,1.72,0,0,0,1.18.09c.4-.11.79-.25,1.19-.35a1.9,1.9,0,0,1,2.07,1.1c.07.16,0,.26-.09.37a2.42,2.42,0,0,1-3.05.63,2.07,2.07,0,0,1-1.3-1.85Z"></path><path class="cls-2" d="M168.89,172.82a1.75,1.75,0,0,0,1.19.09c.4-.11.79-.25,1.19-.34a1.89,1.89,0,0,1,2.07,1.09.35.35,0,0,1-.09.37,2.41,2.41,0,0,1-3.05.63,2.07,2.07,0,0,1-1.3-1.85Z"></path><path class="cls-2" d="M268.25,196.25a3.71,3.71,0,0,1-.49-2.52,1.81,1.81,0,0,1,1.62-1.31.24.24,0,0,1,.16.05A1.39,1.39,0,0,1,270,194a2.39,2.39,0,0,1-.73,1.07A4.45,4.45,0,0,0,268.25,196.25Z"></path><path class="cls-2" d="M212.9,174.85a3.53,3.53,0,0,1,.47-2.42,1.73,1.73,0,0,1,1.9-.58.19.19,0,0,1,.13.1,1.34,1.34,0,0,1-.15,1.48,2.41,2.41,0,0,1-1,.69A4.12,4.12,0,0,0,212.9,174.85Z"></path><path class="cls-2" d="M164.44,174.08a3.47,3.47,0,0,1-2.44,0,1.72,1.72,0,0,1-.89-1.76.23.23,0,0,1,.07-.14,1.32,1.32,0,0,1,1.47-.11,2.34,2.34,0,0,1,.85.89A4.07,4.07,0,0,0,164.44,174.08Z"></path><path class="cls-2" d="M159.88,175.37a3.29,3.29,0,0,1,0,2.27,1.61,1.61,0,0,1-1.61.89.24.24,0,0,1-.13-.07,1.21,1.21,0,0,1-.15-1.36,2.1,2.1,0,0,1,.8-.82A4.07,4.07,0,0,0,159.88,175.37Z"></path><path class="cls-2" d="M181.49,181.42a3.27,3.27,0,0,1-1-2.07,1.61,1.61,0,0,1,1.12-1.48.19.19,0,0,1,.15,0,1.24,1.24,0,0,1,.7,1.2,2.19,2.19,0,0,1-.4,1.08A3.8,3.8,0,0,0,181.49,181.42Z"></path><path class="cls-1" d="M240.79,173.75a1.83,1.83,0,0,0,1.11.68c.44.09.89.15,1.32.26a2.07,2.07,0,0,1,1.48,2.08c0,.2-.14.25-.27.32a2.64,2.64,0,0,1-3.29-.9,2.25,2.25,0,0,1-.34-2.44Z"></path><path class="cls-2" d="M223.72,183.71a3.28,3.28,0,0,1,1.37-1.82,1.62,1.62,0,0,1,1.81.29.24.24,0,0,1,.07.13,1.26,1.26,0,0,1-.73,1.18,2.19,2.19,0,0,1-1.13.15A3.88,3.88,0,0,0,223.72,183.71Z"></path><path class="cls-1" d="M276.32,194.48a1.55,1.55,0,0,0-1,.59c-.25.3-.47.63-.72.93a1.82,1.82,0,0,1-2.2.31c-.15-.09-.14-.2-.14-.33a2.29,2.29,0,0,1,2-2.19,1.92,1.92,0,0,1,2,.7Z"></path><path class="cls-2" d="M222.1,183.57a1.87,1.87,0,0,0-1.16.71c-.3.37-.57.76-.88,1.12a2.18,2.18,0,0,1-2.66.38c-.17-.11-.16-.24-.17-.4a2.78,2.78,0,0,1,2.42-2.65,2.35,2.35,0,0,1,2.44.85Z"></path><path class="cls-1" d="M601.48,140.74a2.84,2.84,0,0,0-1.26,1.59c-.24.67-.4,1.36-.66,2a3.23,3.23,0,0,1-3.52,1.88c-.3-.06-.36-.25-.45-.47a4.13,4.13,0,0,1,2-4.93,3.5,3.5,0,0,1,3.85-.07Z"></path><path class="cls-2" d="M584.14,141.87a3.74,3.74,0,0,0-2.67-.46c-.93.15-1.85.39-2.78.52a4.32,4.32,0,0,1-4.46-2.93c-.12-.39.07-.59.28-.83a5.5,5.5,0,0,1,7.07-.76c1.59,1.05,2.73,2.39,2.54,4.47Z"></path><path class="cls-2" d="M553,129.05A6.75,6.75,0,0,1,555.6,133a3.35,3.35,0,0,1-1.85,3.34.45.45,0,0,1-.3,0,2.56,2.56,0,0,1-1.77-2.24,4.41,4.41,0,0,1,.5-2.32A8.1,8.1,0,0,0,553,129.05Z"></path><path class="cls-1" d="M568,139.73a2.93,2.93,0,0,0-1.31-1.64c-.61-.39-1.27-.72-1.87-1.12a3.36,3.36,0,0,1-1.08-4c.13-.28.34-.3.59-.33a4.25,4.25,0,0,1,4.48,3.18,3.61,3.61,0,0,1-.83,3.89Z"></path><path class="cls-1" d="M612.24,158.17a2.91,2.91,0,0,0-1.31-1.63c-.61-.39-1.27-.72-1.87-1.13a3.33,3.33,0,0,1-1.08-4c.13-.28.34-.3.58-.34a4.27,4.27,0,0,1,4.49,3.19,3.61,3.61,0,0,1-.83,3.89Z"></path><path class="cls-1" d="M572.37,113.39a2.76,2.76,0,0,0,2-.4c.6-.36,1.17-.78,1.78-1.11a3.19,3.19,0,0,1,3.87.81c.19.24.11.42,0,.64a4.1,4.1,0,0,1-4.68,2.45,3.45,3.45,0,0,1-3-2.4Z"></path><path class="cls-1" d="M611,165.51a2.79,2.79,0,0,0,2-.4c.6-.36,1.16-.78,1.77-1.11a3.21,3.21,0,0,1,3.88.81.58.58,0,0,1,0,.64A4.09,4.09,0,0,1,614,167.9a3.47,3.47,0,0,1-3-2.4Z"></path><path class="cls-2" d="M500.16,96.12a6.22,6.22,0,0,1-.09-4.29,3.06,3.06,0,0,1,3.05-1.68.42.42,0,0,1,.24.12,2.34,2.34,0,0,1,.29,2.59,4.13,4.13,0,0,1-1.51,1.54A7.43,7.43,0,0,0,500.16,96.12Z"></path><path class="cls-2" d="M529.86,117.23a6.13,6.13,0,0,1,3.65,2.27,3,3,0,0,1-.25,3.46.33.33,0,0,1-.23.14,2.34,2.34,0,0,1-2.33-1.16,4.11,4.11,0,0,1-.47-2.11A7.44,7.44,0,0,0,529.86,117.23Z"></path><path class="cls-1" d="M601.65,119.77a3.64,3.64,0,0,0-2.17-1.48c-.88-.24-1.78-.4-2.65-.66a4.19,4.19,0,0,1-2.76-4.38c.06-.39.3-.49.58-.62a5.32,5.32,0,0,1,6.54,2.18c1,1.57,1.45,3.2.44,5Z"></path><path class="cls-2" d="M541.09,112.43c1.11,1.65,2,3.25,1.81,5.22a3.91,3.91,0,0,1-3.06,3.27.5.5,0,0,1-.34,0,3,3,0,0,1-1.38-3.05,5.18,5.18,0,0,1,1.23-2.49A9.53,9.53,0,0,0,541.09,112.43Z"></path><path class="cls-2" d="M615.84,158.5a7.16,7.16,0,0,1-.11-4.95,3.5,3.5,0,0,1,3.51-1.93.44.44,0,0,1,.28.14,2.69,2.69,0,0,1,.33,3,4.65,4.65,0,0,1-1.74,1.78A8.3,8.3,0,0,0,615.84,158.5Z"></path><path class="cls-2" d="M572.6,123.92A4.36,4.36,0,0,0,575,122c.57-.91,1.06-1.89,1.67-2.78a5,5,0,0,1,5.92-1.6c.42.19.44.5.5.86a6.35,6.35,0,0,1-4.74,6.67c-2.12.56-4.13.52-5.78-1.23Z"></path><path class="cls-1" d="M633,191.75a4.37,4.37,0,0,0-1.4-2.78c-.77-.76-1.62-1.44-2.38-2.22a5,5,0,0,1-.33-6.13c.28-.38.58-.34.95-.31a6.34,6.34,0,0,1,5.54,6c.11,2.2-.34,4.17-2.4,5.41Z"></path><path class="cls-1" d="M632.74,179.39a3.2,3.2,0,0,0-1.6-1.68c-.72-.37-1.48-.67-2.18-1.06a3.71,3.71,0,0,1-1.58-4.3c.12-.32.35-.37.61-.43a4.74,4.74,0,0,1,5.27,3.09c.55,1.54.65,3-.54,4.37Z"></path><path class="cls-1" d="M621.42,185.36A3.55,3.55,0,0,0,620,183.3c-.7-.51-1.45-1-2.13-1.49a4,4,0,0,1-1-4.85c.18-.32.43-.33.72-.35a5.1,5.1,0,0,1,5.09,4.18c.33,1.73.19,3.34-1.31,4.56Z"></path><path class="cls-1" d="M508.23,90.3a4,4,0,0,0,2.75-.51c.85-.49,1.65-1.06,2.51-1.51a4.47,4.47,0,0,1,5.39,1.23c.26.33.15.59,0,.9a5.72,5.72,0,0,1-6.6,3.3c-1.92-.45-3.51-1.33-4.08-3.42Z"></path><path class="cls-2" d="M602.94,123.75c1.66.92,3.12,1.91,3.83,3.67a3.77,3.77,0,0,1-1.2,4.13.52.52,0,0,1-.32.11,2.91,2.91,0,0,1-2.51-2,5,5,0,0,1,0-2.67A9.07,9.07,0,0,0,602.94,123.75Z"></path><path class="cls-2" d="M604.67,142.78c1.31,1.86,2.35,3.69,2.19,5.95a4.51,4.51,0,0,1-3.45,3.81.56.56,0,0,1-.4,0,3.45,3.45,0,0,1-1.64-3.47,6.05,6.05,0,0,1,1.36-2.89A10.83,10.83,0,0,0,604.67,142.78Z"></path><path class="cls-1" d="M627.9,156.77a3.43,3.43,0,0,0,2.38.62c.85-.08,1.7-.23,2.55-.27a3.91,3.91,0,0,1,3.82,3c.08.36-.1.52-.3.73a5,5,0,0,1-6.46.18c-1.36-1.07-2.3-2.36-2-4.23Z"></path><path class="cls-2" d="M637.65,169.71a7,7,0,0,1-4.84.69,3.45,3.45,0,0,1-2.32-3.2.46.46,0,0,1,.11-.29,2.63,2.63,0,0,1,2.87-.68,4.65,4.65,0,0,1,2,1.48A8.27,8.27,0,0,0,637.65,169.71Z"></path><path class="cls-2" d="M600.09,133.79a6.92,6.92,0,0,1-4.75.51,3.38,3.38,0,0,1-2.16-3.21.49.49,0,0,1,.11-.28,2.6,2.6,0,0,1,2.84-.57,4.67,4.67,0,0,1,1.86,1.52A8.14,8.14,0,0,0,600.09,133.79Z"></path><path class="cls-2" d="M614.68,121.65c-1.94.56-3.78.91-5.63.12a4,4,0,0,1-2.2-4,.52.52,0,0,1,.16-.32,3,3,0,0,1,3.38-.37,5.34,5.34,0,0,1,2,2A9.69,9.69,0,0,0,614.68,121.65Z"></path><path class="cls-2" d="M631.18,130.69c1.73,1.21,3.21,2.46,3.78,4.48a4.15,4.15,0,0,1-1.78,4.4.54.54,0,0,1-.37.08,3.18,3.18,0,0,1-2.52-2.49,5.64,5.64,0,0,1,.27-2.94A10.11,10.11,0,0,0,631.18,130.69Z"></path><path class="cls-1" d="M615.89,142a3.21,3.21,0,0,0,1.28,1.93c.64.49,1.33.91,2,1.42a3.72,3.72,0,0,1,.81,4.51c-.18.3-.41.3-.68.31a4.71,4.71,0,0,1-4.64-3.95c-.29-1.61-.13-3.11,1.28-4.21Z"></path><path class="cls-1" d="M548.46,131a3.8,3.8,0,0,0-1.71-2.07c-.8-.48-1.64-.89-2.42-1.39a4.3,4.3,0,0,1-1.48-5.09c.17-.36.43-.39.74-.44a5.45,5.45,0,0,1,5.82,4c.52,1.82.52,3.56-1,5Z"></path><path class="cls-2" d="M520.49,103.18c1.25-1.49,2.53-2.75,4.43-3.12a3.86,3.86,0,0,1,3.91,2,.51.51,0,0,1,0,.34,3,3,0,0,1-2.5,2.13,5.24,5.24,0,0,1-2.68-.49A9.33,9.33,0,0,0,520.49,103.18Z"></path><path class="cls-1" d="M604.9,105.94a3.81,3.81,0,0,0,2.39,1.29c.94.15,1.89.21,2.81.39a4.33,4.33,0,0,1,3.31,4.22c0,.4-.25.53-.52.7a5.54,5.54,0,0,1-7-1.54c-1.18-1.51-1.84-3.15-1-5.06Z"></path><path class="cls-1" d="M618.49,121.49a3.56,3.56,0,0,0,.38,2.5c.41.78.89,1.52,1.28,2.31a4,4,0,0,1-1.28,4.81.71.71,0,0,1-.81,0,5.15,5.15,0,0,1-2.77-6c.47-1.72,1.31-3.12,3.21-3.56Z"></path><path class="cls-2" d="M627.46,165.72a6.85,6.85,0,0,1-4.67-1,3.38,3.38,0,0,1-1.06-3.72.38.38,0,0,1,.2-.23,2.57,2.57,0,0,1,2.86.33,4.47,4.47,0,0,1,1.3,2A8.38,8.38,0,0,0,627.46,165.72Z"></path><path class="cls-2" d="M628.91,152.94a6.9,6.9,0,0,1-4.67-1,3.38,3.38,0,0,1-1.06-3.72.4.4,0,0,1,.2-.24,2.57,2.57,0,0,1,2.86.34,4.47,4.47,0,0,1,1.3,2A8.38,8.38,0,0,0,628.91,152.94Z"></path><path class="cls-1" d="M576.62,132.85a3.2,3.2,0,0,0,1.94-1.28c.49-.64.91-1.33,1.42-2a3.69,3.69,0,0,1,4.5-.8c.3.17.3.4.32.67a4.73,4.73,0,0,1-3.95,4.65c-1.62.28-3.11.12-4.22-1.29Z"></path><path class="cls-2" d="M587.22,117.32c-.68-1.77-1.16-3.45-.57-5.24a3.72,3.72,0,0,1,3.54-2.38.5.5,0,0,1,.31.12,2.86,2.86,0,0,1,.63,3.13,5.08,5.08,0,0,1-1.68,2A8.83,8.83,0,0,0,587.22,117.32Z"></path><path class="cls-2" d="M523,96.47a4.34,4.34,0,0,0,.51-3.09c-.18-1.08-.47-2.13-.62-3.21A5,5,0,0,1,526.2,85c.45-.14.68.08,1,.31a6.4,6.4,0,0,1,1,8.19c-1.21,1.86-2.75,3.19-5.16,3Z"></path><path class="cls-1" d="M531.94,98.17a3.7,3.7,0,0,0,2.27-1.39c.59-.72,1.11-1.5,1.71-2.2a4.26,4.26,0,0,1,5.21-.74c.33.21.33.47.33.79a5.42,5.42,0,0,1-4.72,5.17c-1.87.26-3.58,0-4.79-1.64Z"></path><path class="cls-1" d="M526.36,115.51a3.52,3.52,0,0,0-.19,2.53c.22.85.53,1.69.73,2.55a4.05,4.05,0,0,1-2.34,4.42.73.73,0,0,1-.79-.18,5.17,5.17,0,0,1-1.34-6.54c.84-1.58,2-2.76,3.94-2.76Z"></path><path class="cls-2" d="M621.2,113.83c1.92-.55,3.74-.9,5.57-.12a4,4,0,0,1,2.17,4,.52.52,0,0,1-.16.32,3,3,0,0,1-3.34.37,5.33,5.33,0,0,1-2-2A9.39,9.39,0,0,0,621.2,113.83Z"></path><path class="cls-2" d="M589.75,145.72c-1.56-1.73-2.85-3.45-3-5.77a4.6,4.6,0,0,1,3-4.3.58.58,0,0,1,.41,0,3.51,3.51,0,0,1,2.1,3.31,6.28,6.28,0,0,1-1,3.1A11.09,11.09,0,0,0,589.75,145.72Z"></path><path class="cls-1" d="M637.21,120.38a3.58,3.58,0,0,0-2.08,1.44c-.52.71-1,1.48-1.52,2.17a4,4,0,0,1-4.9,1c-.33-.18-.34-.43-.36-.73a5.17,5.17,0,0,1,4.23-5.15c1.76-.33,3.39-.19,4.62,1.33Z"></path><path class="cls-1" d="M629,141.77a3.19,3.19,0,0,0,2,1.14c.8.14,1.6.21,2.39.38a3.7,3.7,0,0,1,2.77,3.64c0,.35-.23.46-.46.59a4.73,4.73,0,0,1-5.94-1.41,4,4,0,0,1-.76-4.34Z"></path><path class="cls-1" d="M594.41,109.47c-.93-1.91-1.63-3.74-1.15-5.81a4.2,4.2,0,0,1,3.73-3,.56.56,0,0,1,.37.11,3.21,3.21,0,0,1,1,3.43,5.6,5.6,0,0,1-1.67,2.46A10.26,10.26,0,0,0,594.41,109.47Z"></path><path class="cls-1" d="M513.23,96.11a3.24,3.24,0,0,0,1.66,1.62c.73.35,1.5.62,2.21,1a3.71,3.71,0,0,1,1.73,4.24c-.11.33-.33.37-.6.44a4.71,4.71,0,0,1-5.36-2.9c-.61-1.51-.77-3,.38-4.38Z"></path><path class="cls-1" d="M560.83,131.88a3.23,3.23,0,0,0-1.51-1.76c-.69-.41-1.43-.75-2.12-1.18a3.7,3.7,0,0,1-1.34-4.37c.13-.32.36-.35.63-.39a4.72,4.72,0,0,1,5.09,3.35,4,4,0,0,1-.76,4.34Z"></path><path class="cls-1" d="M611.9,160.62a3.35,3.35,0,0,0-1.49,1.88c-.27.78-.47,1.59-.77,2.37a3.8,3.8,0,0,1-4.16,2.22c-.35-.07-.42-.3-.52-.56a4.86,4.86,0,0,1,2.39-5.81c1.49-.79,3-1.11,4.54-.08Z"></path><path class="cls-1" d="M597.33,126.48a3.23,3.23,0,0,0-2.17-.81c-.81,0-1.62,0-2.42,0a3.7,3.7,0,0,1-3.3-3.17c0-.34.15-.48.36-.65a4.71,4.71,0,0,1,6.08.47c1.17,1.14,1.92,2.44,1.43,4.16Z"></path><path class="cls-2" d="M609.62,184.18a7,7,0,0,1,4.43,1.95,3.44,3.44,0,0,1,.26,3.91.46.46,0,0,1-.24.19,2.62,2.62,0,0,1-2.77-.94,4.58,4.58,0,0,1-.86-2.27A8.42,8.42,0,0,0,609.62,184.18Z"></path><path class="cls-2" d="M612.62,136.59a6.84,6.84,0,0,1-.23,4.77,3.39,3.39,0,0,1-3.51,1.63.4.4,0,0,1-.26-.16,2.56,2.56,0,0,1-.12-2.88,4.52,4.52,0,0,1,1.79-1.6A8.19,8.19,0,0,0,612.62,136.59Z"></path><path class="cls-2" d="M598.54,187.53a7.41,7.41,0,0,1,4.81-1.76,3.62,3.62,0,0,1,3.07,2.78.45.45,0,0,1,0,.32,2.75,2.75,0,0,1-2.79,1.32,4.88,4.88,0,0,1-2.33-1.09A8.81,8.81,0,0,0,598.54,187.53Z"></path><path class="cls-2" d="M613.18,172.9A6.87,6.87,0,0,1,617,170a3.39,3.39,0,0,1,3.5,1.64.45.45,0,0,1,0,.3,2.57,2.57,0,0,1-2.13,2,4.6,4.6,0,0,1-2.38-.35A8.38,8.38,0,0,0,613.18,172.9Z"></path><path class="cls-2" d="M620.27,141.88a7.31,7.31,0,0,1-1.75-4.77,3.59,3.59,0,0,1,2.75-3,.45.45,0,0,1,.32,0,2.76,2.76,0,0,1,1.32,2.77,4.9,4.9,0,0,1-1.09,2.31A8.78,8.78,0,0,0,620.27,141.88Z"></path><path class="cls-2" d="M303.09,197.66a3,3,0,0,0-2.1-.34c-.72.13-1.43.33-2.16.43a3.37,3.37,0,0,1-3.52-2.25.62.62,0,0,1,.21-.65,4.31,4.31,0,0,1,5.53-.66,3.66,3.66,0,0,1,2,3.48Z"></path><path class="cls-1" d="M314.86,191.05a3.23,3.23,0,0,0,2.31,0c.76-.25,1.5-.58,2.27-.8a3.7,3.7,0,0,1,4.16,1.88.69.69,0,0,1-.13.73,4.7,4.7,0,0,1-5.86,1.58,4,4,0,0,1-2.73-3.44Z"></path><path class="cls-2" d="M299.36,201.46a3.86,3.86,0,0,1,1.92-1.86,1.88,1.88,0,0,1,2.05.67.3.3,0,0,1,.05.16,1.45,1.45,0,0,1-1.06,1.23,2.54,2.54,0,0,1-1.34,0A4.52,4.52,0,0,0,299.36,201.46Z"></path><path class="cls-2" d="M314.06,195.11a3.69,3.69,0,0,1-2.52,0,1.78,1.78,0,0,1-.91-1.81.23.23,0,0,1,.07-.14,1.36,1.36,0,0,1,1.52-.12,2.53,2.53,0,0,1,.87.91A4.2,4.2,0,0,0,314.06,195.11Z"></path><path class="cls-2" d="M291.94,194.27a4.65,4.65,0,0,1,.79,3.12,2.27,2.27,0,0,1-1.94,1.73.3.3,0,0,1-.2-.05,1.74,1.74,0,0,1-.64-1.83,3.07,3.07,0,0,1,.84-1.38A5.42,5.42,0,0,0,291.94,194.27Z"></path><path class="cls-1" d="M321.56,199.41a1.55,1.55,0,0,0-1-.57c-.38-.07-.77-.11-1.15-.2a1.79,1.79,0,0,1-1.31-1.78c0-.17.11-.22.23-.28a2.28,2.28,0,0,1,2.85.73,1.91,1.91,0,0,1,.33,2.1Z"></path><path class="cls-1" d="M294.67,203.35a1.56,1.56,0,0,0,.14-1.1c-.08-.38-.19-.75-.26-1.13a1.78,1.78,0,0,1,1.13-1.89.33.33,0,0,1,.34.1,2.27,2.27,0,0,1,.44,2.9,1.93,1.93,0,0,1-1.79,1.12Z"></path><path class="cls-2" d="M307.69,201.45a3.23,3.23,0,0,1-1.95-1.21,1.61,1.61,0,0,1,.13-1.84.18.18,0,0,1,.13-.08,1.26,1.26,0,0,1,1.24.62,2.23,2.23,0,0,1,.25,1.13A3.76,3.76,0,0,0,307.69,201.45Z"></path><path class="cls-1" d="M307.07,196.87a1.67,1.67,0,0,0-.49-1.07c-.28-.29-.6-.56-.87-.86a1.88,1.88,0,0,1,0-2.32c.11-.14.22-.12.36-.11a2.4,2.4,0,0,1,2,2.35,2,2,0,0,1-1,2Z"></path><path class="cls-2" d="M316.6,198.17a3.34,3.34,0,0,1-1.53,1.71,1.65,1.65,0,0,1-1.8-.45.24.24,0,0,1,0-.14,1.23,1.23,0,0,1,.83-1.11,2.24,2.24,0,0,1,1.15-.06A3.84,3.84,0,0,0,316.6,198.17Z"></path></g></g></svg> 