<?xml version="1.0" encoding="UTF-8"?> <svg xmlns="http://www.w3.org/2000/svg" viewBox="0 0 514.39 356.64"><defs><style>.cls-1{fill:#9aca3c;}</style></defs><g id="Layer_2" data-name="Layer 2"><g id="Layer_1-2" data-name="Layer 1"><path class="cls-1" d="M234.7,97.11s-5.54.87-6.88,5.43S231.58,114,231.58,114a5.45,5.45,0,0,1,1.84-4.9c2.42-2.16,6.88-7.31,1.28-12"></path><path class="cls-1" d="M1.25,241a20.65,20.65,0,0,0,1.94,18.08c1.63-8.31,12.37-9.42,19.48-13.6s2.76-16.17,2.76-16.17c-8.72-5.25-20.5,1.46-24.18,11.69"></path><path class="cls-1" d="M178.72,32.15c4.49,3.27,10.39-2.82,10.39-2.82.66-6.94-6.64-12.43-13.77-11.85a13.24,13.24,0,0,0-10.2,6.31c5.4-1.32,9.09,5.09,13.58,8.36"></path><path class="cls-1" d="M191.73,66a15,15,0,0,0,1.42,13.15c1.18-6,9-6.85,14.17-9.9s2-11.76,2-11.76c-6.35-3.82-14.92,1.06-17.6,8.51"></path><path class="cls-1" d="M157.94,184c11.1-21.19-16.1-31.91-16.1-31.91-2.78,33.85,16.1,31.91,16.1,31.91"></path><path class="cls-1" d="M132.4,179.44c10.77-12.88-6.89-26.1-6.89-26.1,3.33,5.13-.67,12.65-1.55,18.35s8.44,7.75,8.44,7.75"></path><path class="cls-1" d="M247.48,44c1.62-5.41,5.24-7.37,5.24-7.37-20.15-1.35-17.52,14.07-17.52,14.07,8.92,2.29,10.66-1.29,12.28-6.7"></path><path class="cls-1" d="M49.22,224.91c9.1-1.25,9.44-5.24,9-10.88a12.85,12.85,0,0,1,2.22-8.84c-19.21,6.39-11.21,19.72-11.21,19.72"></path><path class="cls-1" d="M93.64,170c24.1-10.49,5.11-40.23,5.11-40.23C69,155.39,93.64,170,93.64,170"></path><path class="cls-1" d="M222.48,46.66C235.94,34,216.66,19,216.66,19c-13.72,24,5.82,27.68,5.82,27.68"></path><path class="cls-1" d="M90.12,246.67c19.22-8.36,4.07-32.08,4.07-32.08-23.74,20.45-4.07,32.08-4.07,32.08"></path><path class="cls-1" d="M54.33,137.38c10.32-21.54-7.74-33.4-7.74-33.4-11.84,22,7.74,33.4,7.74,33.4"></path><path class="cls-1" d="M19.84,200.13c3.9-15.53-10.32-20-10.32-20-4.88,16.07,10.32,20,10.32,20"></path><path class="cls-1" d="M195.78,90.82c-20.64,6.91-11.31,27.06-11.31,27.06,19.22-7.59,11.31-27.06,11.31-27.06"></path><path class="cls-1" d="M97.8,80.55s4.86-9.08-5.55-17.64c0,0-5.26,10.62,5.55,17.64"></path><path class="cls-1" d="M62.21,164.15c-10,.13-24.43,13.12-24.43,13.12s28.43,13.34,38.2-4.1c0,0-3.78-9.15-13.77-9"></path><path class="cls-1" d="M166.1,43.31s-18.62,25.77-4,39.21c0,0,9.5-1.89,11.46-12s-7.43-27.26-7.43-27.26"></path><path class="cls-1" d="M132.43,80.21s-6.32,18.1,5.75,22.18c0,0,9.21-8-5.75-22.18"></path><path class="cls-1" d="M232.29,0s-15.87,10.23-8.83,21.09c0,0,12.08-.49,8.83-21.09"></path><path class="cls-1" d="M126.81,207.87c-6.41,3.25-9.74-.43-9.74-.43s6.83,14.11,18,13.08S148,210.09,148,210.09c-6-11.45-14.74-5.47-21.16-2.22"></path><path class="cls-1" d="M125.08,62c10.63,3.65,15.9-4.24,15.9-4.24-1-13-11.37-11.08-18.51-10.74s-8.76-4.4-8.76-4.4S114.46,58.3,125.08,62"></path><path class="cls-1" d="M30.52,337.12S23.93,330,14,335.33s-8,21.31-8,21.31.8-5,8-5.8,17.75-.49,16.55-13.72"></path><path class="cls-1" d="M328.91,212.26s5.33-22-30.43-16.3c0,0,16.21,27.81,30.43,16.3"></path><path class="cls-1" d="M511.2,259.07A20.65,20.65,0,0,0,513.14,241c-3.68-10.23-15.46-16.94-24.19-11.69,0,0-4.33,12,2.77,16.17s17.85,5.29,19.48,13.6"></path><path class="cls-1" d="M335.67,32.15c4.49-3.27,8.17-9.68,13.58-8.36A13.27,13.27,0,0,0,339,17.48c-7.12-.58-14.43,4.91-13.76,11.85,0,0,5.9,6.09,10.39,2.82"></path><path class="cls-1" d="M372.55,152.08S345.34,162.8,356.45,184c0,0,18.88,1.94,16.1-31.91"></path><path class="cls-1" d="M382,179.44s9.33-2.06,8.44-7.75-4.88-13.22-1.55-18.35c0,0-17.66,13.22-6.89,26.1"></path><path class="cls-1" d="M289.52,141.93s5.89-7.71,1.65-11.5-12-6.94-12.65-13.07c0,0-5.31,21.76,11,24.57"></path><path class="cls-1" d="M266.91,44c1.62,5.41,3.36,9,12.27,6.7,0,0,2.63-15.42-17.51-14.07,0,0,3.62,2,5.24,7.37"></path><path class="cls-1" d="M465.17,224.91s8-13.33-11.22-19.72a12.79,12.79,0,0,1,2.22,8.84c-.44,5.64-.11,9.63,9,10.88"></path><path class="cls-1" d="M420.75,170s24.65-14.59-5.11-40.23c0,0-19,29.74,5.11,40.23"></path><path class="cls-1" d="M291.91,46.66S311.45,43,297.72,19c0,0-19.27,15-5.81,27.68"></path><path class="cls-1" d="M424.27,246.67s19.66-11.63-4.07-32.08c0,0-15.15,23.72,4.07,32.08"></path><path class="cls-1" d="M296.54,161.12s-2,23.2,28,14.94c0,0-10.29-26.33-28-14.94"></path><path class="cls-1" d="M372.08,142.91s-20-23.36-34.92-7.72c0,0,5.88,23.35,34.92,7.72"></path><path class="cls-1" d="M282.57,93.88S300,110.12,315.92,80.72c0,0-29.2-8.31-33.35,13.16"></path><path class="cls-1" d="M460.06,137.38S479.64,126,467.8,104c0,0-18.07,11.86-7.74,33.4"></path><path class="cls-1" d="M494.54,200.13s15.2-4,10.33-20c0,0-14.23,4.52-10.33,20"></path><path class="cls-1" d="M329.92,117.88s9.32-20.15-11.31-27.06c0,0-7.91,19.47,11.31,27.06"></path><path class="cls-1" d="M421.21,95.78c1,5.93,12,11.17,22.65,9.46S460.4,92.89,460.4,92.89c-12.68,3.14-19-6.11-27.42-7.14s-11.77,10-11.77,10"></path><path class="cls-1" d="M452.18,164.15c-10-.13-13.77,9-13.77,9,9.77,17.44,38.2,4.1,38.2,4.1s-14.44-13-24.43-13.12"></path><path class="cls-1" d="M290.93,21.09C298,10.23,282.1,0,282.1,0c-3.25,20.6,8.83,21.09,8.83,21.09"></path><path class="cls-1" d="M397.32,207.44s-3.34,3.68-9.75.43-15.16-9.23-21.15,2.22c0,0,1.75,9.41,12.91,10.43s18-13.08,18-13.08"></path><path class="cls-1" d="M500.38,335.33c-9.92-5.34-16.51,1.79-16.51,1.79-1.2,13.23,9.4,12.95,16.55,13.72s7.95,5.8,7.95,5.8,1.94-16-8-21.31"></path></g></g></svg> 