<?xml version="1.0" encoding="UTF-8"?> <svg xmlns="http://www.w3.org/2000/svg" viewBox="0 0 174.64 174.64"><defs><style>.cls-1{fill:#026735;}.cls-2{fill:none;stroke:#fff;stroke-miterlimit:10;stroke-width:5px;}</style></defs><g id="Layer_2" data-name="Layer 2"><g id="Layer_1-2" data-name="Layer 1"><circle class="cls-1" cx="87.32" cy="87.32" r="87.32"></circle><path class="cls-2" d="M119.74,63.4a192.12,192.12,0,0,0-12.16-18.85C98,31.84,81.77,29.09,68.36,44a63,63,0,0,0-8.21,12"></path><path class="cls-2" d="M96.61,126.26c5.09-.17,12.47-.52,19.84-1.19,15.53-1.43,24-12.1,18.42-30.36-.38-1.57-1.08-3.69-1.08-3.69"></path><path class="cls-2" d="M47.21,85.35c-3.79,8.55-7.32,18.81-7.39,24.28-.11,8,7,15.25,22.8,17.34"></path><path class="cls-2" d="M62.64,67C32.6,65.62,19.13,99.6,37,109.56c5.27,2.93,18.09,1.72,22.81-9.09C66.1,86.09,54.31,82.9,62.64,67Z"></path><path class="cls-2" d="M126.83,82.22C142.2,57,119.52,31,102.32,41.9c-5.07,3.21-8.95,14.16-1.84,23.22C108.67,75.55,116.74,67.93,126.83,82.22Z"></path><path class="cls-2" d="M76,123c14.34,26.43,50.6,20.81,49.89.35-.21-6-7.87-16.37-19.56-14.84C90.72,110.5,93.88,121.86,76,123Z"></path></g></g></svg> 