<?xml version="1.0" encoding="UTF-8"?> <svg xmlns="http://www.w3.org/2000/svg" viewBox="0 0 506.13 533.95"><defs><style>.cls-1{fill:#663614;}</style></defs><g id="Layer_2" data-name="Layer 2"><g id="Layer_1-2" data-name="Layer 1"><path class="cls-1" d="M278,307c4.66-15,8.88-28.49,17.32-36s28.65-13.45,40.2-17.78,41.54,4,56.08,5.36,22.66,8.77,29,15.5,16.55,25.41,17.77,30.65,4.66,10.83,10.33,13.34,14.32,7.18,19.1,11.51,9.55,9.46,9.55,9.46-8.33-12.77-16.22-19.37-14.65-4.45-16.32-15.28-3.55-14.47-7.89-20.4a91.3,91.3,0,0,1-7.55-12.65,268.4,268.4,0,0,0,27.88,10.39c13.1,3.86,28.32,3.52,38.42-.93,0,0-23.1,4.33-43.31-7.06a307,307,0,0,0-39.31-18.47s17.54-17.09,35.53-26.89,35.1-18.24,57.53-12.31c0,0-23.77-10.72-53.53,4.33s-46.42,29.86-57.74,28.49S366.65,236.6,355.1,238.2a63.42,63.42,0,0,1-22.44-1.37s16.22-41,32.88-48.78,37.09-5.24,49.53-11.85,29.76-46.73,48.19-47c0,0-12-3.87-28.2,16.19s-19.77,24.84-35.54,26.21-34.21-7.52-51.53,12.08S306.68,235,290.91,240s-17.77,3.19-19.77-12.76-6.89-48.1,2.22-65.65,26-24.62,39.09-27.81,20.21-11.17,24.88-19.83,7.77-9.57,18.66-11.63,22.43-3.41,31.09-8.43S412,73.4,430.39,67.47c0,0-16,3-27.1,11.62s-16.43,11.4-28,13.45-22.21,2-26.43,2.28-7.11-2.5-1.56-6.61,9.33-4.56,11.55-17.55,6.89-19.83,10.89-30.54S376.2,25.3,376.2,25.3,366,42.17,361.09,52.43,355.32,74.08,346,78.87s-8.88,7.29-10.44,14.59-7.11,23.25-23.1,27.8-22.21,9.58-29.76,12.77-18.44,6.61-19.77,1.59-3.77-24.84,0-33.28S274,85.7,279.8,72.48,282.91,60,290.24,51.29s18.66-9.35,24.43-22.57S320.45,0,320.45,0,318,22.11,310.67,27.12,289.8,41.49,286,39.43s-4.66-23-22-21.2c0,0,19.77,8,15.11,29.41s-12.4,33.27-26.07,38.06C239.4,80.91,231.66,69.06,227,47.64s15.1-29.41,15.1-29.41c-17.33-1.82-18.21,19.15-22,21.2s-17.32-7.29-24.65-12.31S185.68,0,185.68,0s0,15.5,5.78,28.72,17.1,13.9,24.43,22.57,4.66,8,10.44,21.19,13.1,21.43,16.88,29.86,1.33,28.27,0,33.28S231,137.22,223.44,134s-13.77-8.21-29.76-12.77-21.55-20.51-23.1-27.8-1.11-9.81-10.44-14.59S149.92,62.68,145,52.43,129.93,25.3,129.93,25.3s2.45,4.1,6.45,14.82S145,57.67,147.26,70.66s6,13.45,11.55,17.55,2.66,6.84-1.56,6.61-14.88-.23-26.43-2.28-16.88-4.78-28-13.45-27.1-11.62-27.1-11.62c18.43,5.93,34.65,21.43,43.31,26.44s20.21,6.38,31.1,8.43,14,3,18.65,11.63,11.77,16.64,24.88,19.83,30,10.26,39.09,27.81S237,211.3,235,227.26,231,245,215.22,240s-39.75-36.7-57.08-56.3S122.38,173,106.61,171.64s-19.32-6.16-35.54-26.21-28.2-16.19-28.2-16.19c18.43.23,35.76,40.35,48.19,47s32.88,4.1,49.54,11.85,32.87,48.78,32.87,48.78A63.42,63.42,0,0,1,151,238.2c-11.55-1.6-28.43,9.34-39.75,10.71s-28-13.45-57.75-28.49S0,216.09,0,216.09c22.43-5.93,39.54,2.5,57.53,12.31s35.53,26.89,35.53,26.89a307,307,0,0,0-39.31,18.47c-20.21,11.39-43.31,7.06-43.31,7.06,10.11,4.45,25.32,4.79,38.42.93a268.4,268.4,0,0,0,27.88-10.39A91.3,91.3,0,0,1,69.19,284c-4.33,5.93-6.22,9.58-7.89,20.4S52.86,313.08,45,319.69s-16.22,19.37-16.22,19.37,4.78-5.13,9.55-9.46,13.44-9,19.11-11.51,9.1-8.09,10.32-13.34,11.44-23.93,17.77-30.65S100,260,114.5,258.6s44.53-9.69,56.08-5.36,31.76,10.26,40.2,17.78,12.66,21,17.33,36c-1.27,87.42-25.69,104-83.76,122.88-6.87,2.24-46.58,2.48-74.15-2a20.13,20.13,0,0,0-16,5.08c-7.38,6.68-18.56,7.77-18.56,7.77A66.44,66.44,0,0,0,64,436.63c14.44-5.7,34.09,2.88,30.92,5.26s-24.94,10-24.94,10,25.14-3,40.33-7.46,28.07.14,34.17.94c5.42.71,41.42-3.41,51-5.46,7.91,0,6.47,2.95,5.1,7.23,0,0-9.66,14.19-21.82,19.83s-19.32,4.62-28.65,2.91-14.83-3.25-21.66-1.71-14.49,6.32-28.48,5.13a69.92,69.92,0,0,1-24.47-6.8C82,472.7,98.62,478.62,102.11,480s18.83-1.71,27.49-4.27S150.92,479,150.92,479a20.63,20.63,0,0,0-8,8.72c-2.25,4.91-1.3,14.2-1.15,16.46.45-2.56,5.05-14.35,11.47-17.49,7-3.42,16.16-3.76,28.49-4.61s17.82-12.66,31.15-19.32,10-1.54,9.5,1.54-11.5,10.25-17,15-5.17,6.67-7,14.53-10.5,6.84-15.16,11.28-5.16,6.16-9.66,6.84-24,2.57-24,2.57,19.63,1.36,25,3.24,6.66-2.9,12.82-7.35,14.83-6,19.16-13.33,2.5-12.65,13.66-14,19.32-11.45,19.32-11.45-1.33,9.91-3.16,14.7-10.83,12.31-17.82,17.1-.34,9.57-6.5,15.38-28.17,7.75-28.17,7.75,31.17-.74,35.83-3.48,5-7.35,5.83-13.16,12.5-8,12.5-8,4.49,12.65,3.16,21.71A13.71,13.71,0,0,1,233.44,534c4.37-1.86,13.31-6.31,14.93-12.08,2.17-7.7,1-19-.16-24.62s4.64-11.4,4.86-11.61c.21.21,6,6.07,4.85,11.61s-2.33,16.92-.16,24.62c1.62,5.77,10.56,10.22,14.93,12.08a13.71,13.71,0,0,1-7.77-10.37c-1.33-9.06,3.17-21.71,3.17-21.71s11.66,2.22,12.49,8,1.17,10.43,5.83,13.16,35.83,3.48,35.83,3.48-22-1.94-28.17-7.75.5-10.6-6.49-15.38-16-12.31-17.83-17.1-3.16-14.7-3.16-14.7,8.16,10.08,19.32,11.45,9.33,6.67,13.66,14,13,8.89,19.16,13.33,7.49,9.24,12.82,7.35,25-3.24,25-3.24-19.46-1.88-24-2.57-5-2.39-9.66-6.84-13.32-3.42-15.16-11.28-1.5-9.74-7-14.53-16.5-12-17-15-3.84-8.21,9.49-1.54,18.82,18.46,31.15,19.32,21.49,1.19,28.49,4.61c6.42,3.14,11,14.93,11.47,17.49.15-2.26,1.1-11.55-1.15-16.46a20.63,20.63,0,0,0-8-8.72s12.66-5.81,21.32-3.25,24,5.64,27.49,4.27,20.08-7.28,26.63-13.46a69.83,69.83,0,0,1-24.47,6.8c-14,1.19-21.65-3.59-28.48-5.13s-12.33,0-21.66,1.71-16.49,2.73-28.65-2.91-21.82-19.83-21.82-19.83c-5-9.34-3.82-9.19,3.49-6.57,12.78,2.15,42.56,5.44,47.44,4.8,6.1-.8,19-5.35,34.17-.94S431,451.91,431,451.91s-21.79-7.63-24.95-10,16.49-11,30.93-5.26a66.39,66.39,0,0,0,28.41,4.17s-11.18-1.09-18.56-7.77a20.13,20.13,0,0,0-16-5.08c-27.57,4.44-67.28,4.2-74.15,2C299.75,411.39,282,402.37,278,307"></path></g></g></svg> 