<?xml version="1.0" encoding="UTF-8"?> <svg xmlns="http://www.w3.org/2000/svg" viewBox="0 0 1121.44 1121.29"><defs><style>.cls-1{fill:none;stroke:#89a940;stroke-miterlimit:10;}</style></defs><g id="Layer_2" data-name="Layer 2"><g id="Layer_1-2" data-name="Layer 1"><path class="cls-1" d="M1061.71,603.89c-4.8-2.18-9.45.38-14.09.76-25,2-49.83,3.19-73.82-6.09-9.95-3.85-19.75-8.11-29.64-12.13-2.15-.88-4.95-2.48-6.55-.42s.91,3.91,2.17,5.76c5.43,7.92,10.83,15.88,16,24,5.54,8.64,8.51,18.3,10.76,28.25,2.12,9.37,7.78,15.8,16.16,20.69,19.76,11.56,35.19,27.3,44.78,49.54-4.31-1.06-6-4.32-8.24-6.33-11.24-10.37-24.18-18-37.56-25.14-5.08-2.69-10.05-5.58-15.14-8.24-10.09-5.27-14.34-14.77-17.75-24.73-5.31-15.48-10.26-31.13-20.49-44.27C918.56,593,909.53,579.74,895.64,571c-7.76-4.85-16.5-6.75-25.08-9.13-11.37-3.16-22.71-6.56-34.25-9-15.16-3.16-30.28-6.53-45.75-8.34-7.69-.9-15.38-.69-23-1.46-10.17-1-20.45,1.38-30.4,4.12-16.27,4.47-31.38,13-48,15.71-18.62,3.1-31.91,15.11-46.69,24.69-6,3.91-9,10.64-11.28,17.4-4.39,13.25-11.24,25.6-14.54,39.23a90.18,90.18,0,0,0-2.87,21.4c0,19.35-.94,38.73,2.27,57.94,2.64,15.78,6.57,31.27,10.73,46.68,3.64,13.46,6.95,27,13.41,39.59,8.69,17,21.68,28.16,40,33.32,30.57,8.6,59.61,21.16,88.35,34.46,6.16,2.85,12.85,4.25,19,6.92a147.48,147.48,0,0,0,19.7,7.49c12.37,3.4,25.16,3.91,37.78,5.42,18.54,2.23,37.24,2.11,55.85,1.13,15.38-.81,30.7-2.78,46.13-3.32,12-.43,22.41,3.25,32.21,9.79,12.57,8.39,24.74,17.4,38.32,24.38-10.37,1.76-20.11-.53-29.81-3.6-8.38-2.64-15.88-7.83-24.68-9a143.1,143.1,0,0,0-44.68.66c-5.88,1-11.91,1.68-17.69,6,18.77,8.84,34.49,21.7,53.52,29.09-2.37-.2-4.84,0-7.07-.7-2.69-.79-5.47,0-8.15-1.15-2.31-1-5-1-7.44-1.68-19-5-37.54-11.39-56.12-17.71a59.66,59.66,0,0,0-20.49-3.51c-9,.15-18-1.1-27.15-1-9.31,0-18.43,1.56-27.51,2.75-8.87,1.16-17.2-.75-25.55-1.92-14.78-2.06-29.53-4.41-44.33-6.44-11.86-1.63-23.56-4.37-35.34-6.62a2.75,2.75,0,0,0-2.8.55c2.1,7.54,7.58,13.08,12.9,18.2,12,11.55,24.71,22.31,39.15,30.9,13,7.72,26.55,9.19,41.11,5.86,13.67-3.12,27.4-6.08,41.23-8.4,19.51-3.26,38.35.44,56.46,7.66,12.64,5,24.86,11.13,37.45,16.31,5.89,2.43,12.22,3.81,18.85,5.82-6.22,2.07-12.13,1.91-18.16.68-15.26-3.12-29.57-9.51-44.72-13-16.6-3.8-33.06-4.91-49.38,1.59-5,2-10.35,3.26-15.49,4.85,29.65,18.94,32.64,25.32,27.79,60.79-2.21.14-1.48-1.67-1.78-2.73-5.25-19.16-16.64-33.19-35.36-40.2-8.29-3.1-17.49-2.32-26.33-3-18-1.33-36.26-.65-53.39-7.63-9.25-3.77-16.88-10.15-24.82-16-12.75-9.37-24.48-20.19-39.11-26.87-5.75-2.62-11.58-4.43-18.31-4.31,2.49,11.82,8.79,20.64,19.63,25.88,7.69,3.72,12.75,9.68,16.59,17.1,5.49,10.61,10.36,21.53,16.71,31.68,6.13,9.8,13.91,17.81,24.45,22.85,20.25,9.68,21.28,24.22,18.7,41.92-.38,2.58.51,5.71-1.8,7.94-1.52-.45-1.92-1.7-2.24-3-3.93-15.88-14.32-26.64-29.1-31.8-14.49-5.06-24.3-14.45-32.32-26.71-4.09-6.25-8-12.6-12.88-18.36-7.81-9.17-18.81-12-29.31-15.56-8.71-3-17.37-5.64-24.22-12.21-1.39-1.33-3.32-2.09-5.29-3.29-1.21,13.89,5.4,24.26,14.19,33.21,10,10.23,20,20.45,28.45,32.08,3.62,5,6.1,10.19,5.38,16.39-1.07,9.25,2.25,16.24,8.86,22.82,7,7,13.51,14.62,20.9,21.46a66.85,66.85,0,0,1-18.1-6.78c-7.6-4.07-14.9-8.69-22.2-13.29-4-2.5-6.8-6.19-6.23-11.1,1.31-11.35-4.4-18.51-13.8-23.07-6.48-3.14-12.48-7-18.71-10.56-10.84,23.25-12,47.35-5.75,76.11-5.51-.77-8.14-4.89-10.36-8.89-5.6-10.06-7.73-21.15-9.73-32.42-2.12-11.93,1.14-23.59.28-35.36-.9-12.43-1.47-24.92-8.8-35.87-2.06-3.07-2.82-3.08-4.75-.11-5,7.64-6.66,16.2-7.9,25-1.7,12.08.5,24.1.13,36.16-.45,14.58-3.15,28.52-10.14,41.47a22.82,22.82,0,0,1-11.45,10.76c5.76-11.13,2-22.14,4.36-32.69,1.43-6.49.51-13.29-1.1-19.75-1.81-7.26-4.18-14.38-6.33-21.56-.54-1.82-.87-3.79-3.68-2.07-7.57,4.63-15.27,9-22.86,13.6-5,3-7.78,7.51-7.12,13.44.94,8.45-2.75,14.1-9.72,18.38-12,7.4-24.11,14.71-39.4,19.39,3.92-3.64,6.72-6,9.28-8.67q9.9-10.14,19.61-20.46a11.82,11.82,0,0,0,3.06-9.59c-2.4-13.54,5.09-22.88,12.28-32.71,5-6.84,11.47-12.1,17.27-18.06,6.32-6.49,12.35-13.11,15.87-21.65A40.72,40.72,0,0,0,524,982c-3.12.09-4.79,2.45-6.54,3.91-7.27,6.09-15.79,9.17-24.69,11.71-14.36,4.09-27.16,10.38-35.08,24.1-3.6,6.23-8.05,12-12.19,17.91-6.06,8.66-14.55,14-24.34,17.51-16.1,5.71-26.63,16.68-31.42,33.1-.31,1.07-.28,2.27-2.13,2.76-2.19-11.83-4.8-23.51.78-35.15,3.91-8.18,11.16-12.88,18.75-16.51,12.41-5.94,19.38-16.51,25.88-27.65a126.13,126.13,0,0,0,8.17-16.21c5.51-13.59,14.66-23.51,27.61-30.42,7.68-4.1,10.8-12,13.55-19.81.92-2.6-1-2.2-2.88-2-12.39,1.33-22.62,7.41-32.44,14.43-12.64,9-24.51,19.1-37.56,27.61-10.57,6.88-22.16,10.28-34.58,11.19-16.59,1.23-33.25,1.79-49.75,3.74-11.23,1.33-20,8.21-27.42,16.59-6.62,7.47-11.13,16-12.69,25.93a10.63,10.63,0,0,1-1.37,2.68c-4.46-25.93-7.13-42.32,27.22-62.13-9.38-.45-17.25-4.86-25.75-7.14-10.72-2.86-21.1-2.13-31.67-.45-16.71,2.66-32.18,9.85-48.6,13.5-7,1.56-14.39,3.45-22.42,0,19.65-3.14,35.63-13.8,53.15-20.6,16.13-6.26,32.71-10.68,50.15-10,11.82.44,23.29,3.72,34.88,5.94,8.86,1.7,17.67,3.67,26.59,5,14.74,2.21,27-4.39,38.5-12.28,7.12-4.9,14.39-9.77,20.51-16,7.19-7.38,16.17-13,21.44-22.27.54-.94,1-1.9,1.55-2.86,1.43-2.72.6-3.9-2.41-3.32-11.31,2.18-22.61,4.27-34.06,5.76-16.32,2.13-32.55,5-48.83,7.51-5.06.78-10.16,1.34-15.24,2.07-8.21,1.2-16-1.74-24-2.56a197.23,197.23,0,0,0-38.41-.14c-20.21,1.87-38.61,11-57.88,16.8-13.27,4-26.59,7.9-41.53,8.53,3.6-2.91,7.41-3.12,10.5-4.85q20.47-11.5,41-22.91c3.44-1.91,1.47-2.76-.61-3.65-5.55-2.36-11.43-3.5-17.31-4.57-9.72-1.77-19.58-.47-29.35-1.12S152.64,918,144,921.94c-12.47,5.63-25.4,9.39-40.71,8.08,6.48-3.86,12-6.95,17.36-10.37q12.48-8,24.75-16.35c12.54-8.53,26.65-8.89,40.89-7.56,25,2.32,50.06,4.18,75.21,3.07,33.51-1.47,65.62-8,96.1-23a478.94,478.94,0,0,1,82.76-32c25-6.95,39.94-23.83,48-48.25,7.38-22.35,12.4-45.23,17.45-68.11,1.79-8.09,2.21-16.63,2.82-25,.76-10.6.88-21.16.66-31.7-.35-16.63-3.66-32.69-10.95-47.85-2.9-6-5-12.48-7.25-18.81A37.13,37.13,0,0,0,476,585c-6.58-4.33-13.28-8.51-19.6-13.2-7.95-5.88-17.5-6.59-26.48-9.27-11.38-3.4-22.55-7.47-33.75-11.45a145.27,145.27,0,0,0-36-7.44c-22.45-2-43.91,2.9-65.41,7.24-18.47,3.74-36.57,9.31-54.84,14a47.7,47.7,0,0,0-24.37,14.73c-11.79,13.3-24.13,26.28-31.44,42.76-4.69,10.57-8.66,21.5-12.31,32.48-3.36,10.09-10.38,16.33-19.32,21.1-15.14,8.09-30.43,16-43.84,26.89-2.88,2.34-5.59,4.89-8.34,7.39-1.1,1-2.23,2.48-3.76,1.33s.33-2.37.83-3.25c7.65-13.65,16.86-25.87,29.82-35.19,5.47-3.92,11-7.54,16.68-11.12,8.09-5.11,12.15-13.52,13.56-22.77,1.86-12.13,8.21-22,14.7-31.87,5.18-7.89,10.55-15.66,16.47-24.4-6.42.78-11,3.48-15.74,5.4-13,5.18-25.45,11.61-39.16,14.74-15.55,3.56-31.35,2.77-47.1,2.6a105.24,105.24,0,0,1-28.23-3.94,17.93,17.93,0,0,1-5.25-2.62c9.64-.76,19.19-.69,28.72-1.59,24.31-2.28,48-6.67,69.93-18,15.33-7.9,30.51-16.08,46-23.71,8.79-4.34,18-7.85,27.83-12.07-9.91-5.65-18.57-11.95-27.3-18.14-16.16-11.47-31.9-23.55-48.67-34.13-21.25-13.39-43.8-23.83-68.71-28.49a4.77,4.77,0,0,1-1.5-.56A16.31,16.31,0,0,1,77.62,461c20,.55,38.86,3.75,57.07,10.79,17.83,6.9,34,16.74,50.13,26.8,19.9,12.43,40,24.5,62.36,32.2,6.91,2.38,13.45,3.47,21,1.37,20.29-5.66,40-13.33,60.61-17.8,12.93-2.79,25.87-5.55,39.29-3.37,4.42.72,8.94-.29,13.2-1.68,5.46-1.78,7.64-5.71,6.28-11.3-1.77-7.28-5.22-13.93-8.7-20.49-11.8-22.24-26.88-42-46.56-57.83-14.09-11.35-29.61-18.41-48.67-18.52-15.79-.1-31.3-4.78-45.72-11.95-12.95-6.43-25.72-13-37.19-22.09-6.93-5.48-12.16-12.28-17.06-19.21-12.53-17.69-25.57-34.87-41.25-49.92-2.08-2-5.6-2.37-6.62-6.62a100.06,100.06,0,0,1,19,9.2c12.76,7.58,23.74,17.25,31.93,29.65,15.93,24.12,39.08,36.77,66.46,43.21a114.88,114.88,0,0,0,27.47,3.41c18-.15,35.87,1,53.52,5.25,11.55,2.8,20.57,9.33,28.92,17.07,22.2,20.58,41.93,43.47,61.71,66.32,10.7,12.37,20.12,26,32.63,36.64,15.56,13.27,34,18.2,54.25,16.81,4-.27,6.53-2.91,8.38-6.41,4.11-7.75,5.57-16.33,7-24.73a320,320,0,0,0,3.73-36.05c.65-12.95,2-25.93,1-38.9-1-13.28-.29-26.91-4.46-39.68C523,360.25,515.4,349,506.08,339c-9.89-10.59-22-18.18-35.11-24-12.72-5.61-25.7-10.69-38.79-15.38-15.66-5.6-28-15-37-29-4.07-6.37-8-12.88-12.78-18.7-5-6.12-12.14-9.46-19.3-12.81-12.87-6-26.79-5.93-40.35-8C301.61,228,281.6,221.83,263.41,210,256,205.12,248,200.76,239,198.84a20,20,0,0,1-5.84-2.51c11.3,0,22.33.87,33.18,4.27,17.55,5.49,34.69,12.25,52.62,16.58,15.19,3.67,30.76,2.87,46.12,4.45,4.5.46,6.67-3.3,5.13-8.24A23.31,23.31,0,0,0,364,202.9c-17.59-16-25.86-36.39-29.53-59.29A75.84,75.84,0,0,0,328.07,124c2.87-1,3.59,1.48,4.67,2.91a117.18,117.18,0,0,1,14.37,25.79,135,135,0,0,0,16.17,28.62c3.47,4.68,7.36,9,12.59,11.73,6.61,3.4,9.57,8.77,10.55,16,2.62,19.35,11.1,36.05,23.31,51.15,10.9,13.47,25.67,19,41.85,22.55,18.77,4.08,36.68,10.84,54.37,18.25,6,2.52,12,5.17,18.15,7.12,10.22,3.2,15.35.1,15.94-10.47.78-14,3.32-27.75,4.32-41.7,1-14.42-2.12-27.51-10.84-38.92a323.23,323.23,0,0,1-44.74-80.2c-3.31-8.55-9.45-14.53-17.14-19.27-9.83-6-20-11.5-28.82-19.18-9.8-8.57-15.55-19-16.33-32.11-.12-2,.35-4-.84-6.26,2.82.41,2.59,2.55,3.08,3.83,5.48,14.36,14.65,24.86,29.33,30.63,9.4,3.69,18.5,8.14,28.06,11.45,7.16,2.49,10.08,1.32,14.24-5,3.76-5.69,6.1-12.11,9.39-18,6.33-11.39,15.17-19.24,30.57-18.49-5.56,4.1-11.22,6.55-14.34,12C516,93.6,507.15,111.41,508.66,132c1,14.31,8.07,26.81,16.61,38.08,8.83,11.66,21.08,19.68,32.7,28.26,5.08,3.76,9.21-1.21,11.79-3.62,7.78-7.27,17.81-12.06,24.21-20.52,9.5-12.56,18.5-25.54,19.62-42.26,1.41-21.24-7.49-39.18-17.73-56.58-2.76-4.68-7.67-8.1-13.74-9.92,8-2.44,18.75,2.08,25,9.36,5.93,6.91,8.87,15.4,13.16,23.17,5.51,10,8.53,11.08,18.93,6.69,9.14-3.86,18.35-7.55,27.5-11.36,13.88-5.77,22-16.82,27.62-30.18.41-1,.23-2.26,1.61-2.62C698.53,69,691.1,86.78,684.6,93.8a81.69,81.69,0,0,1-24,17.82c-15.31,7.52-25.27,18.93-31,34.9C620.69,171,607.2,193,591.47,213.65c-7.69,10.1-13,21.22-13.31,34-.19,8.1,1.18,16.24,2,24.35,1,9.92,1.84,19.88,3.35,29.73,1,6.42,4.72,8.25,11.22,7.18,9.83-1.63,18.32-6.75,27.33-10.43,19-7.76,38.57-13.43,58.45-18.28,19.29-4.7,32.34-17.37,42.15-34,6.83-11.57,12.06-23.52,13.29-37.26.53-6,3.1-11.7,9.72-15.28,11.46-6.21,17.66-17.49,23.71-28.57,6.84-12.51,11.15-26.36,20.1-37.74.67-.86,1.14-1.89,1.89-2.68a2.46,2.46,0,0,1,1.85-.81c1.2.31,1,1.5.66,2.29-6.58,15.12-7.38,31.93-13.63,47.12-3.85,9.36-9.86,17.4-17,24.53a48.07,48.07,0,0,0-9.46,13c-1.48,3-2.24,6.29-.54,9.07s4.94,2.07,8,1.73c9.24-1,18.55-1.24,27.79-2.16,18.28-1.83,35.31-8.41,52.55-14.18,16.5-5.52,33-10.91,50.91-9.61a2.26,2.26,0,0,1-2.18,1.92c-11.83.25-21.56,6.23-31.11,12a153.9,153.9,0,0,1-63.86,22c-13.06,1.44-26.22,2.71-38.6,8.16-13.28,5.86-20.35,17.2-27.72,28.58-9,14-20.92,24.53-36.84,30.36-18.51,6.77-37,13.62-54.21,23.44-19.22,11-32.28,27.42-41.13,47.27-4.71,10.54-4.86,22.2-5.27,33.5-1.1,30.43-.22,60.8,5.34,90.87a90.34,90.34,0,0,0,5.23,18.18c1.93,4.67,5.24,7.14,10.25,7.18,23,.18,43.86-5.19,59.69-23.51,18.29-21.18,36.61-42.36,55.2-63.27,9.54-10.73,19.57-21,29.63-31.26,13.68-13.93,30.46-20.67,49.94-22.21,15.23-1.2,30.44-1.67,45.68-2.24,12.22-.46,23.76-5,35.18-9.19,11.95-4.33,23.1-10.45,32.5-19a95.34,95.34,0,0,0,14.66-17.09c11.53-17.15,27.09-29.11,45.65-37.6a6.82,6.82,0,0,1,4.82-.53c-1.7,3.43-5.19,4.8-7.72,7.13-16,14.73-28.16,32.56-40.69,50-13,18.1-30.88,29.12-50.62,37.84-4.89,2.15-9.8,4.28-14.82,6.18a96.94,96.94,0,0,1-34.93,6.82c-18.06-.1-32.65,7.15-45.81,18.27-24.92,21.06-44.08,46.33-55,77.36-2.47,7,1.21,11.79,8.49,13.52,7.52,1.79,14.8-.53,22.15,0a193.46,193.46,0,0,1,34.94,5.84c18.76,5,36.89,12,55.69,16.85,7.7,2,13.93-.93,20.12-3.26,13.28-5,26.29-10.73,38.47-18.29,16.35-10.14,33.16-19.54,49.74-29.31C989.55,467.86,1016,462,1044,460.93c-1.81,3.21-5.15,2.51-7.54,3-22.17,4.92-42.41,14.22-61.6,26.1-21.78,13.48-41.77,29.54-63,43.85-4.89,3.3-9.89,6.42-15.16,9.83,3.59,2.88,7.85,3.47,11.6,5,21.82,9.17,42.47,20.7,63.45,31.54,15.44,8,32,12.24,49,14.81,15.89,2.41,31.89,3.93,48.54,3.39-2.06,2.71-5.74,2.17-6.46,5.31Z"></path><path class="cls-1" d="M127.12,207.12c15.14-17.26,31.25-31,54.59-32.46,15.08-1,32.45,10.54,38.18,24.46a4.7,4.7,0,0,1-.1,4.2c-6.2,13.19-16.64,20.89-31,22.13-6.34.54-12.73-2.16-18.78-4.4-7.16-2.65-14.22-5.67-21.1-9C142.45,209,135.55,208.41,127.12,207.12Z"></path><path class="cls-1" d="M995.11,207.24c-16,.83-28.33,8.28-41.48,14a44.42,44.42,0,0,1-29.22,2.35c-11.3-3-17.15-11.28-22-20.94a2.74,2.74,0,0,1,.12-3.31c4.79-8.15,10.2-15.84,18.7-20.36,8.74-4.63,18.26-5.23,27.86-3.1C968.21,180.09,981.68,192.63,995.11,207.24Z"></path><path class="cls-1" d="M57.63,314.28c13.68-.93,24-8,35-12.94,7.49-3.36,15.34-5.41,23.55-4.64,11.32,1.07,18.61,8.06,24,17.54,2.1,3.73.34,7.27-1.68,9.66-9.05,10.69-19.57,19.06-34.78,17.86-11.36-.89-21-6.2-30.07-12.57C67.91,325.17,63.2,320,57.63,314.28Z"></path><path class="cls-1" d="M1063.55,314.72c-10.94,13.4-24.37,22.48-41.11,26.37-10.62,2.47-20.09-.24-28.3-7.09-4.52-3.77-8.65-8-11.4-13.43-1.55-3-.9-5.22.74-8.11,11.48-20.09,29.89-18,45.54-11.15,7.24,3.16,14.18,7,21.47,10C1054.51,313,1059,313.58,1063.55,314.72Z"></path><path class="cls-1" d="M862.7,295.65c-1.62-8.72-8.35-11.5-14.94-14.33-7.1-3.05-14.73-4.49-22-7.22-10.45-3.94-14.59-12.18-16.92-21.94-.72-3-.6-6.31-.64-9.47-.12-7.67.56-8.46,7.91-10.09,23.8-5.3,49.5,13.38,51.78,37.62C869,282,868.05,287.07,862.7,295.65Z"></path><path class="cls-1" d="M260.41,296.47c-5.26-6.23-5.94-12.9-6.11-19.34-.42-15.51,6.55-27.5,18.55-37.07,11.09-8.86,23.36-9.81,36.53-6.7,3.74.88,5.39,2.74,5.5,6.93.49,19.76-7.78,31.31-26.84,37-6.4,1.9-13,3.31-19,6.5C264.26,286.34,260.56,289.49,260.41,296.47Z"></path><path class="cls-1" d="M1049.08,526.72c-13.33,1.6-25.47,3.71-38,3.43-10.49-.24-19.65-3.13-26.93-10.74-4.81-5-7.1-11.2-7.44-18.26a8.63,8.63,0,0,1,4.51-8.29c14.23-7.93,26.84-7.63,41,3.9C1032.42,505.06,1039.44,516.13,1049.08,526.72Z"></path><path class="cls-1" d="M835.29,176c.66-10.53,4.5-17.68,9.88-24.41,7.84-9.81,18.66-16.1,27.73-24.43.91-.84,1.88-1.49,3-.95s-.17,1.52-.09,2.34c.93,9,2.11,18,2.61,27,.85,15.09-2.49,31.79-18.77,39.36-11.25,5.24-19,1.62-22.1-10.52C836.65,181.07,834.23,178,835.29,176Z"></path><path class="cls-1" d="M246.82,125.39c12.22,10.7,26,18.81,34.72,32.26,7.73,11.88,7.13,24.66-.9,35.46-2.77,3.72-6,4.7-10.66,3.9-12.1-2.06-19.8-8.93-23.79-20.22-1.58-4.46-1.72-9.16-2.05-13.89C243.29,150.55,245.71,138.52,246.82,125.39Z"></path><path class="cls-1" d="M74,526.13c7.9-9.82,15.87-19.59,25.23-28.28,8.21-7.61,17.47-11.29,28.58-10,5,.57,9.54,2.81,13.66,5.65,3.63,2.5,5.13,5.77,4.24,10.55a31.51,31.51,0,0,1-24.18,24.85c-11.5,2.59-23.06,1.41-34.46-.46C82.91,527.74,78.49,529.28,74,526.13Z"></path><path class="cls-1" d="M253.64,455.41c13.35,9.3,26.53,16.45,36.18,28.34,8.25,10.16,9.47,24.37,2.87,35.32-2.56,4.24-6.14,5.71-10.61,5.63-10.26-.2-24.21-11.83-26.75-21.74C251.38,487.58,253.27,472.09,253.64,455.41Z"></path><path class="cls-1" d="M900.26,667.65c-8.67-4.49-15.12-10.63-18.21-19.86-5.75-17.14-3.21-32.69,9.93-45.43,4.57-4.43,10-8.84,17.22-8.8,1.17,0,2.19,0,3,1.05,4.63,6.3,8.34,12.86,9.66,20.85,1.62,9.84-3.86,16.41-9.13,23.29-3.38,4.42-6.94,8.73-10,13.39S898,661.77,900.26,667.65Z"></path><path class="cls-1" d="M683.07,248.64c.66,16.81-9.08,25.22-22.27,28.66-3.74,1-6.83-2.63-9-5.38-12-14.94-11.65-30.39-.93-45.81,5.63-8.12,13.31-14,21.46-19.33,1.71-1.12,4.18-2.91,4,1-.61,10.63,3.42,20.29,5.69,30.31C682.77,241.77,683.47,245.4,683.07,248.64Z"></path><path class="cls-1" d="M683.55,194.41c-10.66-5-17.54.88-24.66,5.61-6,4-11.51,8.52-18.48,10.84-9.56,3.18-17.79-.52-25.08-5.64-8.83-6.2-8.27-6.64-3.17-16.54,9.27-18,34.69-23.09,51.85-15.11C673,177.75,680,183.62,683.55,194.41Z"></path><path class="cls-1" d="M86.93,382.72c6.16,7.13,11.61,14.14,17.82,20.39,4.5,4.52,7,10,9.08,15.6,1.06,2.84,4.73,3.44,4.32,7.52-1.05,10.46-2.6,20.45-10.87,28a8.72,8.72,0,0,1-8.85,2,46,46,0,0,1-19.15-13.37c-2.11-2.38-1.49-7.24-2-11-1.7-13.63,2.15-26.44,5.93-39.24C84.13,389.62,85.42,386.73,86.93,382.72Z"></path><path class="cls-1" d="M869.47,473.46a79.62,79.62,0,0,1-1.55,26.07c-3.65,15.2-14.16,24-29.67,24.63a7.53,7.53,0,0,1-6.74-3.11c-7-9-7.5-18.94-3.3-29.11,3.92-9.48,11.15-16.24,19.55-21.87,6-4.05,12-8.23,17.9-12.42,2.53-1.79,3.93-1.87,3.83,1.85C869.38,464.15,869.47,468.81,869.47,473.46Z"></path><path class="cls-1" d="M222,667.27c2.4-7.45-.53-13-4.58-18.5-4.78-6.44-10.19-12.36-14.16-19.48-6.75-12.13-.12-25.87,6.92-34.07,1.29-1.5,2.46-1.55,4.33-1.15,14.79,3.16,27.44,18,28.37,33.21.7,11.45-1.08,22.11-8.44,31.33A24.27,24.27,0,0,1,222,667.27Z"></path><path class="cls-1" d="M440.06,193.24c.47-5.4,3.93-9.08,7.56-12.5,20.64-19.53,55.85-12,65.47,13.9,1.28,3.43.71,5.42-2,7.65-13.74,11.49-27.22,12.06-41.67,1.65q-5.65-4.08-11.53-7.86c-5.54-3.54-11.44-5.25-18-2.94Z"></path><path class="cls-1" d="M446,204.36c12.53,7.62,23.22,16.16,29.7,28.87,7.77,15.22,3.46,32.18-10.31,42.93-2,1.55-3.56,1.41-5.6.73-16.32-5.38-23.49-19.19-19.27-37.46,1.71-7.43,3.65-14.82,5.49-22.22C447,213.19,446.79,209.14,446,204.36Z"></path><path class="cls-1" d="M800.52,292.35c-9.43,4.1-18.12,7.65-26.61,11.64-5.54,2.61-11.56,3.4-17.33,4.31-13.68,2.16-27.86-7.69-31.09-20.85-1.68-6.82,4.17-11.38,8.77-14.25,9.3-5.8,19.74-7.42,30.28-2.25,3.65,1.79,7.52,3.21,11,5.32C783.7,281.3,791.7,286.65,800.52,292.35Z"></path><path class="cls-1" d="M776.21,43c12,7.72,21.07,17,26.79,29,8.88,18.65.35,34.81-12,42.85-1.44.93-2.64,1.81-4.85,1.21-8.82-2.36-16.88-11.19-18.88-20-2.84-12.58,2.78-23.5,6.05-34.88C774.94,55.45,776.45,49.85,776.21,43Z"></path><path class="cls-1" d="M743.62,342.58c-5.63,6.92-4.08,13.59-1.44,20.31,2.45,6.22,5.33,12.31,7.26,18.69,4,13.08-3.16,28.47-15.25,34.63-2.29,1.17-3.48,0-5-.93-18.21-10.6-23.53-35.56-11.76-54.94C723.32,350.66,731.44,344.35,743.62,342.58Z"></path><path class="cls-1" d="M347.1,42.78c-1.52,11.67,3.13,21.14,6.14,31,2.61,8.56,4.24,17.06.72,26-3.32,8.49-10,12.56-17.65,15.92-2.29,1-3.94-.42-5.56-1.67C316.37,103,311.32,87.69,320.31,69.92c5.33-10.54,13.67-18.52,23-25.5A21.12,21.12,0,0,1,347.1,42.78Z"></path><path class="cls-1" d="M379,342.69c17,1.51,28.53,15.29,31.77,32.17,3.33,17.36-3,31.83-16.37,40.15-2.67,1.67-4.67,1.89-7.43,0-13.61-9.41-18.05-23-11.75-38.4,2.08-5.07,3.69-10.31,6-15.33C384.06,355.19,385.13,348.34,379,342.69Z"></path><path class="cls-1" d="M372.5,268.25c9.31-1,16.92,4.58,23.22,12.52,2.33,2.94,2.51,6.17.89,9.87-5.07,11.59-20.1,21.89-38.25,16.19-11.17-3.51-22-8-33-12.17-2.41-.92-3.32-2.92-.64-4.46,12.35-7.1,23.38-16.57,37.39-20.68A38.23,38.23,0,0,1,372.5,268.25Z"></path><path class="cls-1" d="M1036.4,382.52c3.47,13.06,7.22,24.8,9.27,37,2.77,16.51-6.08,31.69-21.6,36.25-5.1,1.5-8.74.17-12-4.55-9-13.1-8.42-26-.26-39C1018.55,401.59,1027.22,392.5,1036.4,382.52Z"></path><path class="cls-1" d="M189,233.62c-.35,9.35,3.1,17.24,5.85,25.27,3,8.61,5.7,17.09,3.42,26.48-2.47,10.14-10.16,14.54-18.65,18.25-3,1.31-4.76-1.57-6.61-2.93-5.62-4.12-9.38-10.37-12.18-16.2-2.38-5-1.29-12,.55-17.95,4.08-13.29,14.11-22.16,23.54-31.44C185.75,234.3,187.28,234.22,189,233.62Z"></path><path class="cls-1" d="M472.37,9.92c-9,7.17-7,16.14-6,24.63,2.3,19.82-.18,30.21-21.78,39.17-3,1.23-4.12-.09-6.15-2.43-17.16-19.8-5.81-48.32,13.27-58.2C457.36,10.15,463.39,9.14,472.37,9.92Z"></path><path class="cls-1" d="M933.89,233c13.64,10.62,25,21.48,27.9,38.47,2,11.53-6.55,27.4-17.34,31.61-5.34,2.08-9.21-2.46-12.67-5.33-8.9-7.38-9.2-17.55-7.22-28A67.88,67.88,0,0,1,930,252.53C932.76,246.72,933.93,240.55,933.89,233Z"></path><path class="cls-1" d="M649.43,10.2C667.84,6.75,685.87,20.43,691,39.44c3.4,12.7-.17,23.35-8.5,33-1.26,1.46-2.51,2.54-4.19,1.89-11.91-4.59-23-12.7-22.83-27.81.07-7.18,1.05-14.29.94-21.5C656.28,19.2,656,14.07,649.43,10.2Z"></path><path class="cls-1" d="M432.89,367.77a8.63,8.63,0,0,0-2.74.05c-1.68.59-3.59,2.39-5,.6s.56-3.76,1.56-5.4c6.11-10,9.74-21.55,18.38-30.15,7.28-7.23,15.39-11.18,25.78-9.23,2.89.54,5.51,2.26,8.62,1.92,1.94-.2,1.64,1.48,2.1,2.59,4.61,11.15-.4,24.34-11.73,30.83a48.62,48.62,0,0,1-16.17,5.73c-6.92,1.17-13.85,2.27-20.77,3.4Z"></path><path class="cls-1" d="M698.45,368.14c-15.68-1.74-30.72-1.39-44.3-8.48-9.55-5-14.27-13.24-14.7-24-.21-5.12,1.87-8.34,6.78-10.21,13.15-5,23.89-2,34,10.36A65.12,65.12,0,0,1,687,346C690.85,353,694.35,360.14,698.45,368.14Z"></path><path class="cls-1" d="M1062.57,656.42c-14,9-25.72,18.44-40.81,22.26-9.39,2.38-25.07-3.63-29-15.6-1.45-4.41,3-8.42,5.84-11.72,6.71-7.79,15.69-9.46,25.62-8.39,9.54,1,17.61,5.86,26.27,9.2C1054,653.55,1057.23,655.83,1062.57,656.42Z"></path><path class="cls-1" d="M101.43,642.55c13,.22,21.43,5.62,27.14,15.59,2,3.5,1,6.45-1.15,9.25-6.77,8.69-19.07,15.2-32.81,9.7C83.2,672.53,73.42,665.57,63.28,659c-1.1-.71-2.73-1.64-.08-3C75.8,649.66,88.68,644.19,101.43,642.55Z"></path><path class="cls-1" d="M1022.45,765.33c-9.7-7.45-19.33-12.69-26.83-20.62-6.81-7.18-11.77-15.26-11-25.88a25.49,25.49,0,0,1,5.8-14.44c3.36-4.11,8.39-1.84,12.48-.87,11.64,2.77,17.1,11.3,19.57,22.33C1025.36,738.61,1022.06,751.28,1022.45,765.33Z"></path><path class="cls-1" d="M99.86,754.32a59.37,59.37,0,0,1-1.09-9.63c-.69-12.54,0-25,9.12-35.13,5.27-5.89,12.48-6.81,19.64-7.15,4.42-.22,8.82,6.5,10,13.91,2.2,13.58-4.89,23.06-14.26,31.2-6,5.22-12.6,9.77-19.09,14.39-1,.72-1.94,2.69-3.7,1.73s-1-2.66-1-4.07C99.48,757.9,99.71,756.23,99.86,754.32Z"></path><path class="cls-1" d="M53.33,546.45c12.11-7.42,23.71-6.29,34.75-.22,12.6,6.93,19.8,17.74,19.17,32.66-.47,10.91-5.63,13.14-16.37,11.21-15.9-2.84-19.8-14.92-23.69-27.18C64.19,553.47,61.55,549.32,53.33,546.45Z"></path><path class="cls-1" d="M1068.75,546.59c-7.06,1.27-9.69,6-11.8,11.31-2.51,6.37-4.67,12.85-7.32,19.18-4,9.46-19.34,14.7-27.76,13.78-5.21-.57-8-8.78-7-15.56,1.29-8.61,3.45-17,11.15-23.25,8.8-7.14,18.12-11.17,29.43-10.5C1060.23,541.83,1064.26,543.77,1068.75,546.59Z"></path><path class="cls-1" d="M854.69,424.87c-1.45,9.46-6.12,15.67-13,20.3-19.28,13-38.89,8.46-50.62-7.93-2-2.83-2.28-5.11.16-8.33,8.79-11.62,19.47-14.57,34-8.6,4.62,1.89,9.09,4.17,13.73,6C844.05,428.31,849.1,428.63,854.69,424.87Z"></path><path class="cls-1" d="M817.08,600.84c-6.16.35-11.76-2.2-17.4-3.65-8-2.06-15.85-5-22.86-9.77-6.74-4.59-12.54-17.42-10.78-25.29,1.89-8.43,9.05-10.9,20.34-8.76,11.47,2.16,17.64,11.11,21.91,21.06C811.87,582.76,815.72,591.07,817.08,600.84Z"></path><path class="cls-1" d="M268.28,425.09c8.89,5.14,16,1.37,23.15-2.13,7.8-3.83,15.48-7.19,24.68-4.76,7.61,2,12.06,7.63,17,12.79,1.5,1.55.52,3-.3,4.55a30,30,0,0,1-15,13.56c-18.75,8.19-41.5.28-48.52-19.35C268.93,428.56,268.77,427.28,268.28,425.09Z"></path><path class="cls-1" d="M304.62,601.15c4.56-11.12,6.51-22.51,12.35-32.44,5.29-9,12-16.09,23.3-15.87,16,.32,17.27,4.93,15,20.09-.94,6.17-5,10.84-9.93,14.26C333.2,595.59,319,598,304.62,601.15Z"></path><path class="cls-1" d="M334.3,510.36C325.57,498,320.64,485.42,321.68,471c.83-11.55,13.43-24,24.76-24.64a5,5,0,0,1,3.91,1.68c9,8,11.11,19.78,5.35,30.48-2.67,4.95-6.28,9.24-9.94,13.48C341.13,497.36,336.36,502.65,334.3,510.36Z"></path><path class="cls-1" d="M788.41,511c-2.79-8.22-7.34-13.87-12.22-19.67-6-7.16-12.41-14.79-12.34-25.28.06-7.89,4.75-13.46,9.25-19.1.56-.7,2.52-.72,3.68-.45,17.65,4.19,25.06,16.61,24.38,32.12C800.62,490.84,794.16,500.13,788.41,511Z"></path><path class="cls-1" d="M554.34,2.89c-.59,16.53,1.6,33.25-9.05,47.57-5.29,7.12-12.82,9.73-21.5,9.33-2.14-.1-4-.75-5.12-2.81-6.27-11.63-7-22.16,4.25-33.14C532.32,14.71,545.45,6.06,554.34,2.89Z"></path><path class="cls-1" d="M568.07,3c12.13,7.2,25.17,12.25,33.86,23.38,5.51,7.07,7.83,15,4.94,23.85-3,9.26-7.52,11.47-17,8.92-11.2-3-16.67-11.26-19.19-21.62C568,26.34,568.7,14.71,568.07,3Z"></path><path class="cls-1" d="M111.77,541.56c10.19,2.82,19.32-.57,28.6-1.67,7.31-.87,14.38-.9,21.13,2.66,7.31,3.87,9.5,10.93,11.54,18.09.19.69-.41,1.75-.91,2.46-7.75,11.18-28,14.41-38.72,6.2C124.06,562.14,116.43,553.61,111.77,541.56Z"></path><path class="cls-1" d="M.78,564.33a66.69,66.69,0,0,0,16.36-.56c9.67-1.23,19.58-4,29.6-.32C55.41,566.6,58.52,574,62,581.24c.53,1.11-.44,3.24-1.78,4.78-9,10.36-26.22,15.14-40.12,4.21A62.92,62.92,0,0,1,.78,564.33Z"></path><path class="cls-1" d="M1120.74,565.06c-5.2,16.26-22.79,33.6-40.89,31.15-7.52-1-13.54-4.91-18.32-10.75-.8-1-.53-2-.26-3.16,2.81-11.65,8.68-19.6,22.49-20.55,4.72-.33,9.33.48,13.82,1.3A101.67,101.67,0,0,0,1120.74,565.06Z"></path><path class="cls-1" d="M1011.28,541.34c-6.77,13.23-14.48,24-27.43,30.16-11,5.19-24.9,1.93-32.71-8a6,6,0,0,1-.89-6.21c5.83-15.83,15.53-19.3,31-17.51C990.86,540.91,1000.33,544.37,1011.28,541.34Z"></path><path class="cls-1" d="M571,107c6.66,2.94,10.33,9.06,14.77,14.25,7.72,9,13.24,19,12.33,31.63a25.25,25.25,0,0,1-9.11,18.36c-2.94,2.49-5.9-.15-8.37-.94-8.46-2.68-14.33-12.64-14.83-21.67-.7-12.45,3.53-24.12,4.93-36.22.21-1.83.28-3.65.4-5.47Z"></path><path class="cls-1" d="M551.85,106.87c-.51,13.71,5.44,26.64,4.78,40.52-.59,12.42-9.12,22.91-21.29,24.94-1.81.3-2.32-.91-3-1.72-7.18-8.08-9.61-17.34-7.13-28,2.42-10.43,7.92-18.87,15.75-25.95C544.51,113.43,546.07,108,551.85,106.87Z"></path><path class="cls-1" d="M172.44,417.53c6.28,3.47,11.64,6.71,15.33,12.32,12,18.29,4,44-15.89,50.8-3,1-4.53.83-6.52-2.32C163,474.64,160.5,471.15,159,467c-3.82-10.9,2.2-19,8-26.94a68,68,0,0,0,7.34-13.23C175.84,423.44,173.53,420.91,172.44,417.53Z"></path><path class="cls-1" d="M159.2,415c1.54-9.7,4.29-18.26,8.84-26,4.89-8.31,11.9-14.59,21.87-16.06,7.42-1.1,14.36,1,20.73,5,2.68,1.67,1.94,4.3,1.73,6.56-1.14,12.08-7.62,19.7-19.58,22.43a74.92,74.92,0,0,1-16.91,2.26C170.24,409.14,163.21,411.6,159.2,415Z"></path><path class="cls-1" d="M963.27,414c-9.83-5.17-20-4.09-29.53-6.27-14.73-3.37-23.27-7.57-23.27-25.61,0-3.4,1.37-5.13,4.14-6.24,16.07-6.4,29.9-3.3,39.82,13.18C958.85,396.41,961.13,404.56,963.27,414Z"></path><path class="cls-1" d="M948.51,419.4A22.39,22.39,0,0,0,952.1,435c3,4.72,6.4,9.16,9.21,14,5.71,9.78,2.87,24-5.76,31.09-1.85,1.53-3.35,1-5.14.39-14.22-4.55-23.42-21-20.41-36.88,2.11-11.12,6.79-20.39,18.59-24.11Z"></path><path class="cls-1" d="M21,414.34c14,2,27.16,3.72,39.18,9.67,8.76,4.34,15.91,18.67,11,28.83-1.75,3.64-6,4.11-9.66,4.57-13.08,1.64-21.65-5-27.93-15.55C28.51,433.34,25.7,423.8,21,414.34Z"></path><path class="cls-1" d="M1064.69,457.56c-10.73-.1-16.43-4.3-15.11-12.19,1.52-9.07,4.77-17.65,14.15-21.72,8-3.48,16-7.4,25.07-7.37a12.63,12.63,0,0,0,6.24-2,4.71,4.71,0,0,1,5.3.46c1.39,1.24-.37,2.73-.83,4-4.21,11.57-8.76,23-17.89,31.78A23.85,23.85,0,0,1,1064.69,457.56Z"></path><path class="cls-1" d="M214.39,242.06c7.7-7.32,11.78-17,18.13-25.13,5.58-7.11,20.64-9.3,27.09-3.33a3.52,3.52,0,0,1,1.13,2.43c.73,8.85-1.13,17-8.5,22.48-7.57,5.58-16.11,8.65-26,6.31C222.45,243.91,218.14,245.1,214.39,242.06Z"></path><path class="cls-1" d="M909.36,242.51c-11.12,3.27-21.12,3.64-31.18,1S859.7,226,862.32,215.67c.8-3.13,3.65-3.62,5.86-4.4,8.1-2.84,15.22-.64,21.29,5.19,3.25,3.12,5.54,6.91,7.73,10.84C900.25,232.76,903.32,238.32,909.36,242.51Z"></path><path class="cls-1" d="M625.25,397.29c-5.28-9.21-10.91-17.85-13.39-27.89-2.2-8.87-.7-17.09,6.71-23.38,4.74-4,8.21-4,12.92-.07,7.13,6,9.29,13.71,7.28,22.65C636.44,379,630.31,387.58,625.25,397.29Z"></path><path class="cls-1" d="M497.62,397c-5.1-9-10.42-17.6-13.16-27.54-2.6-9.41.15-17.34,6.73-23.91,3-3,7.07-3.65,11.14-1,8.16,5.41,11.52,14.58,8.74,25C508.43,379.5,503.36,388.24,497.62,397Z"></path><path class="cls-1" d="M486,461.92c-10.48.44-19.12,5.4-28.6,7.32-9,1.83-16.93-1.5-21.47-8.95-2-3.32-2-6.33.53-9.67,8.71-11.46,21.72-10.55,29.9-6.55C474.32,448,480.4,454.12,486,461.92Z"></path><path class="cls-1" d="M636.83,462c8.07-10.33,16.14-19,29.35-20.42a21.38,21.38,0,0,1,11.41,2c6.23,2.9,11.75,9.39,11,12.87-1.41,6.69-9.51,13.11-16.94,13.31-6.07.17-11.76-1.56-17.33-3.76C649,463.83,643.67,461.76,636.83,462Z"></path><path class="cls-1" d="M846.81,135.65c-9.56,6.58-16.09,15.63-26.74,19.24-5.59,1.9-15.72,2.47-20.72-2.94-5.37-5.83-4.83-14,1.64-18.77s14-5.84,21.94-4.28C830.7,130.41,838,133.4,846.81,135.65Z"></path><path class="cls-1" d="M733.32,100c-9.61,7.86-17.53,16.23-28.91,19.67a21,21,0,0,1-15.7-1.15c-9.32-4.67-9-15.59-.1-21.65,9.34-6.36,18.92-4,28.56-1.73C722.17,96.27,727,98,733.32,100Z"></path><path class="cls-1" d="M275.8,135.43C287,132.09,297,128.12,308,128.27a19.29,19.29,0,0,1,11.48,3.81c4.83,3.57,8.64,8.11,8.14,14.38-.35,4.39-9.8,9.67-15.78,9.78-8.16.15-14.64-3.91-20.81-8.49C286.09,144.12,281.49,140.07,275.8,135.43Z"></path><path class="cls-1" d="M389.78,100A127.7,127.7,0,0,1,417,92.73a22.34,22.34,0,0,1,22.69,11.64c2.14,4.12,2,7.66-1.89,10.88C431,121,423.4,122,415.43,118.73,405.7,114.69,398.22,107.4,389.78,100Z"></path><path class="cls-1" d="M137.44,647.5c-9.09-6.69-11.78-18.82-7.56-31a19.7,19.7,0,0,1,21-13.35c1.36.15,2.72-.39,3.72,1.49,4.37,8.28,5.55,19.37-4.34,26.24-1.82,1.26-3.6,2.56-5.5,3.68C139.89,637.42,136.1,640.84,137.44,647.5Z"></path><path class="cls-1" d="M985.93,646.63c-.3-8.86-7.69-11.49-13.07-15.2-10.49-7.21-9.49-18.28-4.79-26.93.85-1.59,2.09-1.23,3.3-1.33,11.2-.85,20.48,6.5,23,18.15C996.22,630.28,993.27,639.59,985.93,646.63Z"></path><path class="cls-1" d="M849,325.23c9.51,2.23,18,4.84,24.48,11.82s7.83,18.27,2,25.63c-2.37,3-6.72,2.18-10.07.9-6.22-2.38-9.18-7.42-11.31-13.61s-.84-12.38-2.7-18.39C850.83,329.63,850,327.84,849,325.23Z"></path><path class="cls-1" d="M273.5,325.26c-4.14,8.16-3.05,16.32-4.83,24-2.41,10.34-7.31,14.42-17.84,14.78a4.17,4.17,0,0,1-4.36-2.33c-6.49-11.51-2.51-22.8,7.79-29.22C259.84,329,265.94,326.93,273.5,325.26Z"></path><path class="cls-1" d="M604.87,261.71c10.16-3.36,20.15-5.63,30.15-.47a18.75,18.75,0,0,1,10,19.46c-.55,3.56-9.87,7.51-14.37,6.19-6.13-1.82-9.87-6.42-13.62-11.17S611.1,264.74,604.87,261.71Z"></path><path class="cls-1" d="M1038.94,638.54c-10.7.74-20.06,1.4-28.69-4-5.46-3.44-10.87-14.39-9.54-20.46.4-1.83,2.1-3.21,4.12-4,5.84-2.43,12-1.37,17,.83,3.3,1.46,5,7,7,10.86C1031.65,627.11,1034,632.79,1038.94,638.54Z"></path><path class="cls-1" d="M518.26,261.34c-6.94,4.88-10.09,11.37-14.46,16.86-6.4,8-14.39,10.25-22.55,6.51-3.16-1.45-4.36-3.54-4-7,1.07-9.75,7.31-16.93,17-18.87C502.05,257.23,509.61,258.65,518.26,261.34Z"></path><path class="cls-1" d="M83.4,638.31c6.67-6.88,9-15.31,13.71-22.45,2.11-3.22,5-4.75,8-6.08,4.84-2.15,12.5-.72,14.65,2.09s1,13-2.39,17.38a21.65,21.65,0,0,1-10.08,7.54C99.83,639.36,92.22,639.54,83.4,638.31Z"></path><path class="cls-1" d="M389.53,579c-.43,3.46.51,8.87-2.58,11.21-2.4,1.81-4.76-3.51-7.63-5.09-7.64-4.22-15.26-8.57-18.33-17.72-1.66-4.94,1.07-8.73,3.18-12.32,1.4-2.39,5.11-1.17,7.7-.71C384.63,556.64,389,566,389.53,579Z"></path><path class="cls-1" d="M701.48,163.06c11.34-.13,21.87-.49,30.28,7.66,5,4.86,5.64,11,4.9,17.46-.25,2.1-1.5,3.43-3.86,4.11-10.67,3.11-17.76-1.84-22-11.45C708.11,174.92,705.82,168.88,701.48,163.06Z"></path><path class="cls-1" d="M735,592.36c-2.56-13.18-3.76-24.71,6.16-34.25,2.91-2.81,13-5.23,16.22-3.77,4.2,1.9,5.59,12,2.32,17.34A26.74,26.74,0,0,1,749.64,581C744.66,583.81,739.46,586.39,735,592.36Z"></path><path class="cls-1" d="M421.11,163.44c-4.88,5.33-6.73,11.39-9.35,17.06C406.9,191,399.15,195,390.12,192.28c-2.51-.76-3.61-1.95-4.05-4.51-1.71-9.84,3.21-18.67,12.62-22.23C405.08,163.13,411.8,162.43,421.11,163.44Z"></path><path class="cls-1" d="M78.48,273.64a38.07,38.07,0,0,1,17.44-7.35c8.09-1.44,16.4,2.3,19.89,9s-.69,13.76-8.36,14.09a18.77,18.77,0,0,1-13-4.52C89.38,280.72,84.62,276.29,78.48,273.64Z"></path><path class="cls-1" d="M1044,273.74c-7.06,2-11.07,7.11-16.07,10.81-7.56,5.6-15.57,6.18-20.75,1.45-2.71-2.48-3-5-1.54-8.34,5.94-13.72,18.84-13.91,31.9-7.8C1039.54,270.79,1041.34,272.12,1044,273.74Z"></path><path class="cls-1" d="M171.25,538.44c-7.14-2.08-14-4-20.83-6.16-1.58-.5-1.51-1.71,0-2.76,3.8-2.66,7.52-5.43,11.27-8.15,5.14-3.73,11.07-3.86,16.93-3.17a10.24,10.24,0,0,1,7.91,6.34c1.38,3.25-1.22,6.08-3.22,8.32C180.15,536.42,175.54,537.4,171.25,538.44Z"></path><path class="cls-1" d="M973.61,531.14c-7.6,3-14.6,5.72-22,7-5.67,1-13.35-4.47-15.17-9.92-1.42-4.25,2.46-9.58,7.54-10.08,6-.59,11.82,0,16.91,3.76Z"></path><path class="cls-1" d="M948.59,419.49l.53-.72c.07.15.14.3.2.46l-.81.17Z"></path><path class="cls-1" d="M440,193.14a1.51,1.51,0,0,1-.14.44c0,.06-.21,0-.32.06l.55-.4Z"></path><path class="cls-1" d="M571.07,106.94l-.52-.68.46,0c0,.24,0,.48,0,.72Z"></path><path class="cls-1" d="M200.44,323.74c-.17-13.4,5.93-24.45,13.5-34.77,4.85-6.62,10.43-12.69,15.46-19.18.94-1.21,1.94-2.6,3.16-2.6,1.54,0,1.29,2,1.69,3.15,4.56,13.27,9.72,26.39,11.52,40.43,2.4,18.72-6.29,33.29-22.35,39.4-8.7,3.3-12.26-3.2-16.36-7.85A26.39,26.39,0,0,1,200.44,323.74Z"></path><path class="cls-1" d="M890.37,266.14c11.45,15.46,25.22,28.34,30.47,46.86a33.35,33.35,0,0,1-12.77,36.28,8.86,8.86,0,0,1-7.89,1.34c-13.15-3.5-25.75-20.52-24.32-33.94a140,140,0,0,1,7-31.24C885,279.28,887.58,273.27,890.37,266.14Z"></path><path class="cls-1" d="M86,478.24c.12,9.64-3.18,18.2-10.2,23.84-6.36,5.11-14.84,6.84-23.18,7.82-9.95,1.17-20.24.61-29.58,5.29-1.3.65-3.49,1.29-2.78-1.15,3.14-10.85,6.17-21.74,12.39-31.44,4.68-7.3,11.6-11.91,18.68-16.17,6.11-3.69,28.05,1,33.46,6.28C86.58,474.46,85.65,476.55,86,478.24Z"></path><path class="cls-1" d="M240.4,434.83c-4.41,8-4.44,15.43-4.57,22.89-.1,6.31-.39,12.63-.91,18.92a30.88,30.88,0,0,1-14,23.55c-4.79,3.18-12.1,5.1-18.13,3-5.68-2-7.62-8.48-8.85-13.81-4-17-1.08-27.51,17.37-42C219.43,441,229.2,438.19,240.4,434.83Z"></path><path class="cls-1" d="M1102.23,516.73c-13-7-26.73-5.3-39.67-8-17.5-3.57-25.17-14-26.07-30.61-.29-5.38,3.93-7.85,8.34-9.5,18.48-6.94,35.63-1,45.85,15.9C1096.43,494.09,1100,504.43,1102.23,516.73Z"></path><path class="cls-1" d="M1061.71,603.89l1.12,0c2.39,1.82,5.18,1.13,7.86,1.35,12.65,1.06,20.19,9.23,26.17,19.32,6.11,10.3,9.17,21.89,13.57,32.91,1,2.45.13,2.66-2.12,2.79-6.4.36-12.12-2.52-18.11-3.81-11.77-2.52-23.76-5.63-32.23-15.11-7.28-8.14-10.5-17.74-7.35-28.78.88-3.06,2.59-5.06,5.87-5.71A8.18,8.18,0,0,0,1061.71,603.89Z"></path><path class="cls-1" d="M72.58,625.06c-.42,9.76-8.08,18.6-20.2,24.38-8.74,4.17-18,6.51-27.42,8.43-3.81.78-7.59,1.7-11.42,2.38-2.1.38-3.48-.71-2.3-2.76,5.08-8.85,7.06-19,11.61-28,6-12,13.18-22.66,28.14-24.22a35.39,35.39,0,0,1,12.06.74C71.3,608.06,72.62,610.33,72.58,625.06Z"></path><path class="cls-1" d="M883.27,434.91c17,5.51,32.26,12,42,26.95,7.5,11.57,5.8,30.1-3.52,40.19a4.41,4.41,0,0,1-2.76,1.57c-10.44,1.64-21.82-4.63-26.74-13.94-4.11-7.81-5.45-15.94-5.16-24.54C887.4,455.22,886.68,445.42,883.27,434.91Z"></path><path class="cls-1" d="M104.79,362.89c9-6.11,17-11.89,25.35-17.14,10-6.31,20.87-10,32.91-6.89,7.2,1.85,12.49,6.51,16.56,12.53a7.09,7.09,0,0,1,.74,7.25c-2.57,6.29-6.72,10.76-12.12,14.79-10.46,7.81-21.63,4.58-32.1,1.87S115.61,367.29,104.79,362.89Z"></path><path class="cls-1" d="M1016.8,363c-13.91,5.56-27.16,11.87-41.75,14.83-12.86,2.61-31.66-8.7-34-21.59a7.41,7.41,0,0,1,1.82-5.38c10-11.21,17.39-15.94,34.53-11.46,12,3.12,21.18,11,31.11,17.65C1011.29,358.89,1013.92,360.91,1016.8,363Z"></path><path class="cls-1" d="M713.78,145.21C700.13,152.16,688,160.16,673.64,163c-15.21,3.05-27.41-1.74-34.64-15.8-1.34-2.6-.61-5.5.71-8,4.79-8.95,12.11-13.91,22.48-14.5,8.95-.51,17.11,1.68,25,5.61C696.14,134.81,704.61,139.92,713.78,145.21Z"></path><path class="cls-1" d="M408.72,145.15c15.75-8.09,29-19.36,46.74-20.58,11.82-.82,20.86,4.08,27.11,14.25,2.24,3.64,2,6.83-.14,10.38-7.46,12.21-20.39,17-36,13.13a85.94,85.94,0,0,1-18.68-7.27C421.8,152,415.88,148.88,408.72,145.15Z"></path><path class="cls-1" d="M383.9,101.05c.07,10.59,4.7,20.22,6.4,30.49,2.59,15.75-3.8,27.47-18.12,33.1-3.08,1.22-5.4,1-8.09-1.17-12.49-10.21-16-26.18-9.25-40.76,5.63-12.09,15.16-20.29,25.89-27.43,1.93-1.29,3.5-1.2,3.19,1.87C383.79,98.44,383.9,99.75,383.9,101.05Z"></path><path class="cls-1" d="M738.51,94a67.53,67.53,0,0,1,21.09,16.51c8.22,9.65,14.14,20.33,10.89,33.86-2.1,8.73-7.5,15.1-14.17,20.63a4.06,4.06,0,0,1-3.55.92c-9.1-1.63-17.91-11.5-20.3-20.71-2.82-10.82,1.63-20.32,3.82-30.24C737.76,108.33,740.29,101.86,738.51,94Z"></path><path class="cls-1" d="M362.32,361.76c1.37,4.87-2.88,8.57-4.92,13-2.74,5.91-8.47,5-13.14,4-15.53-3.29-23.19-16.61-23.95-29-.69-11.34-.91-22.71-1.26-34.06-.06-1.69-.42-4.68,2.75-2.37,11.05,8,23.35,14.45,32.33,25.22C359.3,344.75,363,353.68,362.32,361.76Z"></path><path class="cls-1" d="M803,331.93c.46,11.37.08,22.52-5.21,33.18-1.76,3.54-4.53,5.11-6.92,7.42-4,3.84-9.31,5.37-14.47,6.38-7.3,1.44-8.91-.17-12.58-6.71-7.33-13-1.27-29.45,8.3-37.89,8.43-7.44,18-13.22,26.8-20.07,2.88-2.24,4.18-1.77,4.11,2.05C803,321.5,803,326.71,803,331.93Z"></path><path class="cls-1" d="M475.91,403.1c-10,13.5-17.58,29.24-33.85,37.1-8.67,4.19-17.45,3.6-25.88-.86-5.11-2.7-6.63-9.25-4.35-15.89,5.51-16.08,15.14-20.34,31.52-21.81,5.54-.5,11.16-.1,16.74-.11h15Z"></path><path class="cls-1" d="M406.71,337.43c-7.74.49-15.27-1.81-23-3a30.29,30.29,0,0,0-12.75.19c-1.88.5-3.05.45-1.71-1.91,7.19-12.66,14.85-24.93,29.06-31a32,32,0,0,1,36.52,8.48,5.45,5.45,0,0,1,1.19,5.56C433,328.23,422.69,338.91,406.71,337.43Z"></path><path class="cls-1" d="M646.25,402.14c14.58-.21,27.75-2.08,40.92.53,13.66,2.71,22.91,12.17,24.8,25.32.68,4.81-.74,8.11-5.07,10.67-11.25,6.65-24.84,5.15-35.6-4.43C661.29,425.32,654.7,413.78,646.25,402.14Z"></path><path class="cls-1" d="M753.64,335.33c-11.61-3.56-22.36.48-33.23,2-16.88,2.31-28.56-4.82-33.13-20.26-1.16-3.93,0-6.3,2.62-8.76,12.78-11.93,31-12.27,44.58-.5a77.09,77.09,0,0,1,18.63,24.75A12,12,0,0,1,753.64,335.33Z"></path><path class="cls-1" d="M872.51,97.46c-7.59-2-12.06,1.88-15.92,6.85a82,82,0,0,1-19.31,18.16c-4,2.67-9.37,1.4-14.12.87a38.19,38.19,0,0,1-8.56-2.19c-5.76-2.09-6.31-4.57-3.89-13.62C815.55,89.45,835.34,81,851.62,84,863.18,86.13,868.28,89.77,872.51,97.46Z"></path><path class="cls-1" d="M249.26,97c19-19.45,46.17-17.3,59.55,3.7,2.76,4.33,3.61,9.23,4.53,14.13.47,2.5-.8,3.57-2.82,4.69-13.76,7.63-26.72,5-36.95-7.16a125,125,0,0,0-12.33-12.13C258.18,97.45,254.39,96.21,249.26,97Z"></path><path class="cls-1" d="M1086.92,721.91c-7.11-10.59-16-9.81-25.69-8-15,2.86-30.35-8.18-33-23.19-.42-2.41.74-4.19,2.77-5.64,11.42-8.21,29.87-7.67,41.4,1.19C1083.7,695,1088,706.51,1086.92,721.91Z"></path><path class="cls-1" d="M36.18,719.41c-1.67-11.83,1.54-21.32,9.93-29.65,10-10,22-13.08,34.81-9,17.26,5.44,15.59,8.77,7.33,22.32-5.61,9.2-18.91,13-29.52,10.23A22.69,22.69,0,0,0,36.18,719.41Z"></path><path class="cls-1" d="M1000.21,214.71c4.22,13.25,8.31,25.32,7.8,38.45-.46,11.83-6.81,21.28-17.89,25.5-5.5,2.09-9.72.14-13.45-6.16-5.09-8.6-5.78-17.06-1.33-26.48C981.18,233.69,992,225.84,1000.21,214.71Z"></path><path class="cls-1" d="M121.61,214.4c10.12,13,23.32,21.94,27.43,37.84,2.6,10-.48,18.19-7.34,25.22-3.26,3.34-11.61,2.21-16.69-2.29-9-8-12.2-17.82-10.27-30C116.32,235.2,119.56,225.72,121.61,214.4Z"></path><path class="cls-1" d="M757.32,36.13c-2.84,8.08-8.21,13.54-11.43,20.16C741.17,66,733.3,71.72,723.4,75c-6.69,2.21-12.55-1-18.18-3.84-2.67-1.37-2.47-11.41-.73-15.8,5-12.52,15.63-16.09,27.46-17.49C740.05,36.9,748.24,36.72,757.32,36.13Z"></path><path class="cls-1" d="M364.91,36c14.08,1.64,27.8-.1,40.45,6,8.31,4,12.88,10.78,14.27,19.79.87,5.64-1.38,9.06-6.65,11.28-14.74,6.23-22.27.05-32.18-10.67C374,55.13,370.23,45.55,364.91,36Z"></path><path class="cls-1" d="M640.68,37.16c4.44,11.1,10,21.14,11.6,32.56,1.87,13.15-3.73,22.71-16.56,27.91-2.55,1-4.35-.66-5.84-2-8.7-7.92-11.74-16.82-7.34-28.49C626.67,56.18,633.67,47.09,640.68,37.16Z"></path><path class="cls-1" d="M481.89,37.43c6.65,9.61,13.53,18.26,17.63,28.69,4.52,11.5,2.32,21-6.83,29.05-3.33,2.91-6.46,3.22-10.26.83-14.06-8.85-14.51-21-9.53-37.73C475,51.34,478.62,44.89,481.89,37.43Z"></path><path class="cls-1" d="M430.83,189.68c0,11.07.31,21.47-2.06,31.68C426.13,232.7,419,239.12,407.86,241c-4.85.81-7.84-.84-9.72-5.29-3.94-9.31-2.88-17.92,3.79-25.52C409.78,201.22,420.25,195.89,430.83,189.68Z"></path><path class="cls-1" d="M692.06,189.45c10.39,6.73,20.55,11.77,28.34,20.27a23.17,23.17,0,0,1,3.24,27.68c-1.45,2.61-3.18,3.77-6.14,3.8-12.62.13-22.14-8.39-24-20.94C692,210.32,692.43,200.39,692.06,189.45Z"></path><path class="cls-1" d="M819.73,160.47c1.81,8.76,3.95,17.48,5.33,26.31,1.67,10.67-3.29,19.86-12.73,25-5.55,3-10.27,1.78-13.51-3.75-5.17-8.85-5-17.68.66-26.24a109.7,109.7,0,0,1,7.19-9.61c3.64-4.43,7.45-8.7,11.19-13.05Z"></path><path class="cls-1" d="M303.67,159.61c7.16,8.06,14.72,14.49,19.74,23.12,5.66,9.72,5.2,19.25-1,27.06-2.89,3.62-6.11,4.36-10.3,2.65-9.32-3.83-13.8-11-14.28-20.74C297.28,180.9,301.14,170.87,303.67,159.61Z"></path><path class="cls-1" d="M221,121.12c1.2,9.94,7.38,16.64,11.58,24.3,6.28,11.46,4.26,20.79-5.78,28.86a4.87,4.87,0,0,1-5.75.65c-12.35-6-17.73-17.11-13.78-30.51A55.33,55.33,0,0,1,221,121.12Z"></path><path class="cls-1" d="M902.16,121.8c8.81,9.26,14.29,19.43,14,32.22-.23,8.77-7.49,18.74-15.83,20.85-4.46,1.13-7.15-2.53-9.59-5.14-6.76-7.26-4.92-15.46-1.23-23.37a75.94,75.94,0,0,1,7.19-12.21C899.32,130.48,899.62,125.85,902.16,121.8Z"></path><path class="cls-1" d="M959.92,730.6c-8.2-10.58-17.59-20.49-14.54-35.56,1.6-7.89,6.57-13.11,13.34-16.64,4.35-2.27,10.12,1.69,13.55,8.38s2.37,12.91-.65,19.12c-2.1,4.3-4.71,8.35-7,12.57A42.07,42.07,0,0,0,959.92,730.6Z"></path><path class="cls-1" d="M177.85,699.68c-1,11.79-6.81,21.07-14,29.66-1,1.13-2.41,1-2.52-.37-.76-9.16-7.15-15.75-10.63-23.65-4.49-10.18-2.85-17.8,4.58-25.21,2.61-2.61,5.21-3.46,8.75-1.49C172.43,683.31,177.17,690.22,177.85,699.68Z"></path><path class="cls-1" d="M35,370.73c14.5-.3,36.22,9.2,37.18,26.57a25.11,25.11,0,0,1-3,12.89,4.25,4.25,0,0,1-3.49,2.31c-10.14,2-19-3.73-22.37-13.64C40.22,389.61,40.29,379.51,35,370.73Z"></path><path class="cls-1" d="M811.91,355.45c.25-12.62,5.74-21.24,12.32-29.38.58-.72,1.3-1.33,1.92-2,2-2.16,2.34-7.08,6-5.9,1.8.59,2.31,5.29,3.33,8.15,3,8.51,5.54,17.08,4.51,26.31-.81,7.23-7.48,15.37-14.49,17.33-2.32.65-5,.42-6.15-1.28C816.14,364.14,811.13,360.37,811.91,355.45Z"></path><path class="cls-1" d="M290.15,316.81c6.7,8.59,13.74,15.59,17.94,24.58,3.94,8.41,3.8,16.76-2.22,24.4-3.26,4.13-7.42,5.85-12.13,2.91-6.5-4-11.44-9-11.56-17.74C282,339.22,286.57,328.86,290.15,316.81Z"></path><path class="cls-1" d="M1087.49,371c-5,8.36-5,17.82-7.86,26.47-3.32,9.94-9.6,15.27-18.06,15.33-7.56,0-10-2.43-10.71-10.21-1.52-16.11,7.18-23.42,20-28.68A34.32,34.32,0,0,1,1087.49,371Z"></path><path class="cls-1" d="M222.67,424.68c7.57-7.23,12.1-16.58,20.87-22.15,7.33-4.66,18.44-4.29,24.23.93,2.09,1.87,3.06,3.76,2.41,6.8-1.84,8.7-8.43,15.21-18.6,16.52C242.13,428,232.69,426.85,222.67,424.68Z"></path><path class="cls-1" d="M899.73,425c-11.85,1.54-22.6,4.06-33.47.42C859.18,423,854.91,418.24,853,411c-1.33-4.94.65-7.63,4.66-9.74,7.3-3.84,17.42-2.21,24.72,4.23a81.91,81.91,0,0,1,7.06,7.13C892.68,416.3,895.77,420.2,899.73,425Z"></path><path class="cls-1" d="M313.73,270.45c6.49-5,9.66-11.81,13.54-18.16,5.41-8.82,14.51-11.72,24.06-7.89,2.36.95,3.49,2.12,3.63,4.83.59,11.62-8.42,22.49-20,23.31C328,273,321,272.88,313.73,270.45Z"></path><path class="cls-1" d="M139,421.38c2.56,6.25,5.13,12.2,7.43,18.24,2.82,7.39,4.91,14.72-1,21.9s-12.1,6.92-17.28-.91c-5.91-8.92-5.09-17.82.08-26.91C131,428.77,135,425.21,139,421.38Z"></path><path class="cls-1" d="M849.18,590.23c4.71-4.62,8.77-10.05,14.43-13.33,10-5.79,22.34-5.45,30.21,5.71a5.05,5.05,0,0,1,.44,5.95c-4.19,8.08-12.77,11.74-21.8,9C864.75,595.2,857.08,592.72,849.18,590.23Z"></path><path class="cls-1" d="M273,590.82c-9.26.49-16.87,4.92-25.16,7.08-5.44,1.41-10.17.08-14.39-2.67-3.53-2.3-7-6.39-5.64-10.49a16,16,0,0,1,11.06-10.46c12.67-3.21,22.11,2.77,30.35,11.51A60.3,60.3,0,0,1,273,590.82Z"></path><path class="cls-1" d="M808.43,270.4c-11.81,3.29-22.53,3.6-32.8-2.4-3.71-2.16-4.61-6.11-6.22-9.57a36.07,36.07,0,0,1-2-6.3c-1-3.94.53-6.62,4.3-8.06,9.61-3.7,17.61-.6,24.1,9.18C799.57,258.92,801.79,265.69,808.43,270.4Z"></path><path class="cls-1" d="M1070.43,364.87c-6.21-4.21-11.83-.44-17.28,1.72-10.34,4.08-17.63,2.58-24.74-5.73-2.12-2.48-2.85-4.11-.38-7.32,4.59-6,14.52-10.34,22.54-8.68,11.26,2.32,18.86,9.09,20.12,18a6.64,6.64,0,0,1-.34,2.07Z"></path><path class="cls-1" d="M51.74,365.08c-.26-8.32,5-14.71,14.87-18.66s21.48-1,27.52,6.86c1.81,2.34,2.07,4.28.24,6.77-6.12,8.3-15.07,10.38-24.85,6.79C57.48,362.41,58.37,361.64,51.74,365.08Z"></path><path class="cls-1" d="M983.26,420.84c7.8,7.33,13.49,14.6,15.29,24.31,1.45,7.84-5.54,19.62-13.06,21.79a4.24,4.24,0,0,1-2.86-.68c-8.71-5-11.14-11.4-7.51-23.08C977.37,435.93,982.34,429.71,983.26,420.84Z"></path><path class="cls-1" d="M487.09,29.41c.67-10.93,5-17.62,11.74-23,.8-.63,1.92-.78,2.71-1.7C503,3.07,505,1.22,507,2s-.2,3.15.17,4.9c1.43,6.85,3.8,13.51,3.47,20.7S507.18,40,500.32,42.49c-3.35,1.22-6.34,1.06-8.53-2.72S486.54,32.33,487.09,29.41Z"></path><path class="cls-1" d="M615,1C625.76,8,635.19,14.45,635,28.09A15,15,0,0,1,632.71,36c-2,3.21-4,7.78-7.87,7.28-5.53-.71-10.4-3.76-12.23-10a25.89,25.89,0,0,1,.15-16A39.79,39.79,0,0,0,615,1Z"></path><path class="cls-1" d="M633.61,236.87c-1.9,2.83-4.66,2.16-7.06,2.08-6-.19-12,1.32-17.87-1.85-7.69-4.18-11.46-10.67-10.51-19.2.28-2.5,1.26-3.76,3.88-4.47,8.87-2.44,15-.2,20.49,7.84C626.16,226.52,628.26,232.82,633.61,236.87Z"></path><path class="cls-1" d="M488.39,237.21c5.93-4.39,8.12-10.45,11.65-15.61,5.68-8.3,11.76-10.65,19.79-8.36,4.31,1.23,5.43,3.78,5,7.83-1.05,10.06-8.41,17.31-18.77,18C500.52,239.39,494.94,239.41,488.39,237.21Z"></path><path class="cls-1" d="M556.44,80.8c-5.13,5.09-7.3,11.68-11.26,17.16-4.09,5.66-11.14,7.76-16.86,5.47-3.34-1.33-4.41-3.58-4.32-6.85.23-7.93,7-15.28,14.8-16.52C544.52,79.15,550.18,78.55,556.44,80.8Z"></path><path class="cls-1" d="M566.14,80.76c6.07-2.46,12.08-1.8,17.94-.52,6,1.32,10.95,4.46,12.77,10.92,1.08,3.86,3.06,8.31-.87,11.18-4.26,3.12-9.46,2.86-14.1.17s-6.94-7.32-9.24-11.72C570.78,87.23,569.16,83.62,566.14,80.76Z"></path><path class="cls-1" d="M1070.35,364.93l.38-.19-.29.12Z"></path></g></g></svg> 