<?xml version="1.0" encoding="UTF-8"?> <svg xmlns="http://www.w3.org/2000/svg" viewBox="0 0 174.64 174.64"><defs><style>.cls-1{fill:#026735;}.cls-2{fill:#fff;stroke:#fff;stroke-miterlimit:10;}</style></defs><g id="Layer_2" data-name="Layer 2"><g id="Layer_1-2" data-name="Layer 1"><circle class="cls-1" cx="87.32" cy="87.32" r="87.32"></circle><path class="cls-2" d="M83.68,93.44a22.58,22.58,0,0,0-5.28-3.71,1.46,1.46,0,0,0-2,.64,1.44,1.44,0,0,0,.64,1.95,19.32,19.32,0,0,1,7.71,7.05,25.37,25.37,0,0,1,3.28,7.88c.2.84.35,1.67.46,2.48a1.54,1.54,0,0,0,1.53,1.34h0a1.55,1.55,0,0,0,1.52-1.48A41.32,41.32,0,0,1,92,105a42.65,42.65,0,0,1,.95-4.6c.19-.71.39-1.42.61-2.11.37-1.16.79-2.32,1.25-3.44a15.56,15.56,0,0,0,7.5-1.29,16.16,16.16,0,0,0,6.38-5.26,22.31,22.31,0,0,0,4.09-11.89A29.65,29.65,0,0,0,110,62.17h0a1.44,1.44,0,0,0-2.41-.34,37.88,37.88,0,0,1-6,4.83,55.23,55.23,0,0,0-8.94,7.44,15.18,15.18,0,0,0-3,4.85,15.83,15.83,0,0,0-1,6,1.41,1.41,0,0,0,.44,1,1.48,1.48,0,0,0,1,.41,1.47,1.47,0,0,0,1.43-1.48,12.82,12.82,0,0,1,3.22-8.8,53.59,53.59,0,0,1,8.47-7,60.52,60.52,0,0,0,4.85-3.7c2.89,7.68,2.2,15.81-1.82,21.27A12.49,12.49,0,0,1,96.16,92a42.69,42.69,0,0,1,6.33-9.3,1.52,1.52,0,0,0,.37-1.1,1.42,1.42,0,0,0-.49-1,1.48,1.48,0,0,0-2,.13,45.92,45.92,0,0,0-9.5,16.71q-.36,1.11-.66,2.25c-.22.86-.43,1.74-.61,2.63a26.36,26.36,0,0,0-2.32-4.52L87,97.35C88.23,91.83,86.84,87,83,83.66a15.45,15.45,0,0,0-4.69-2.76,20.65,20.65,0,0,0-5.68-1.26A27.18,27.18,0,0,0,60,81.79a1.43,1.43,0,0,0-.87,1.09,1.41,1.41,0,0,0,.44,1.31,32.88,32.88,0,0,1,3.91,5.18,47.1,47.1,0,0,0,6.09,7.86,13.45,13.45,0,0,0,5.91,3.31,13.61,13.61,0,0,0,3.31.45,1.45,1.45,0,0,0,1.48-1.43,1.38,1.38,0,0,0-.41-1,1.46,1.46,0,0,0-1-.45,10.64,10.64,0,0,1-7.24-2.94,45.11,45.11,0,0,1-5.7-7.38c-1-1.46-1.88-2.84-2.83-4,6.87-2.27,13.94-1.45,18,2.12a9.74,9.74,0,0,1,3.37,8.39C84.22,94,84,93.7,83.68,93.44Z"></path><path class="cls-2" d="M119.84,119.42l-.37,0a5.28,5.28,0,0,0-3,1.27l-6.74,5.78a1.44,1.44,0,0,0-.14,2,1.43,1.43,0,0,0,2,.15l0,0,.09-.08,6.63-5.68a2.39,2.39,0,0,1,1.35-.58h.17a2.42,2.42,0,0,1,2.49,2.6,2.45,2.45,0,0,1-.83,1.66l-18.06,15.62a2.63,2.63,0,0,1-.58.38,2.51,2.51,0,0,1-.77.21H102L83.46,140l-.17,0a5.48,5.48,0,0,0-.81,0,5.25,5.25,0,0,0-3,1.28l-.85.73-8-9.17,7.42-6.49a5.25,5.25,0,0,1,3-1.29,4.58,4.58,0,0,1,1.31.07l4.91.91,15.71,2.93.09,0a2.42,2.42,0,0,1,2,2.75,2.29,2.29,0,0,1-1,1.53,2.41,2.41,0,0,1-1.16.43,2.35,2.35,0,0,1-.65,0h0l-10.89-1.53a1.2,1.2,0,0,0-.33,0,1.44,1.44,0,0,0-1.28,1.24A1.44,1.44,0,0,0,91,134.94l10.87,1.53h0a4.78,4.78,0,0,0,1.36,0,5.31,5.31,0,0,0,2.54-.94,5.17,5.17,0,0,0,2.15-3.42,5.31,5.31,0,0,0-4.28-6l-16.1-3-.4-.07L86,122.8c-1.45-.28-3.26-.64-3.79-.67a7.68,7.68,0,0,0-1.36,0,8.28,8.28,0,0,0-4.6,2l-7.42,6.49-.76-.88a1.45,1.45,0,0,0-1.13-.5h-.1a1.39,1.39,0,0,0-.8.35l-7.4,6.51,0,0,0,0a1.44,1.44,0,0,0,1,2.51h.1a1.41,1.41,0,0,0,.86-.4l6.28-5.55,11.41,13.13-6.08,5.38a1.3,1.3,0,0,0-.22.19A1.45,1.45,0,0,0,73,153.83h.14a1.37,1.37,0,0,0,.81-.36l7.25-6.4a1.44,1.44,0,0,0,.14-2l-.78-.9.85-.73a2.34,2.34,0,0,1,1.34-.59h.33l18.53,2.83h.19a4.56,4.56,0,0,0,.64,0,5.33,5.33,0,0,0,3-1.27l18.07-15.63a5.3,5.3,0,0,0-3.64-9.3Z"></path><path class="cls-2" d="M54.64,58.46h.16l.37,0a5.15,5.15,0,0,0,2.95-1.27l6.74-5.78a1.43,1.43,0,0,0-1.09-2.51,1.37,1.37,0,0,0-.8.34l0,0-.08.08L56.23,55a2.42,2.42,0,0,1-1.35.58h-.17a2.42,2.42,0,0,1-1.9-.83A2.36,2.36,0,0,1,52.22,53a2.41,2.41,0,0,1,.83-1.66L71.11,35.7a2.38,2.38,0,0,1,.58-.37,2.51,2.51,0,0,1,.77-.21h.23l18.49,2.81.17,0a4.39,4.39,0,0,0,.81,0,5.2,5.2,0,0,0,3-1.27l.85-.74,8,9.18-7.42,6.48a5.36,5.36,0,0,1-3,1.3,4.61,4.61,0,0,1-1.31-.07l-4.79-.9L71.59,49l-.09,0a2.41,2.41,0,0,1-2-2.74,2.27,2.27,0,0,1,1-1.53,2.33,2.33,0,0,1,1.16-.44,2.83,2.83,0,0,1,.65,0h0l10.9,1.54h.32a1.43,1.43,0,0,0,1.29-1.24,1.45,1.45,0,0,0-.34-1.13,1.39,1.39,0,0,0-.89-.48L72.76,41.4h0a5.73,5.73,0,0,0-1.37,0,5.42,5.42,0,0,0-2.53.94,5.19,5.19,0,0,0-2.15,3.42,5.3,5.3,0,0,0,4.28,6l16.1,3,.4.08,1.17.22c1.45.29,3.25.64,3.79.68a7.66,7.66,0,0,0,1.36,0,8.14,8.14,0,0,0,4.6-2l7.42-6.48.76.88a1.48,1.48,0,0,0,1.13.49h.1a1.48,1.48,0,0,0,.8-.34l7.4-6.52h0l0,0a1.44,1.44,0,0,0,.47-1.21,1.46,1.46,0,0,0-1.48-1.3H115a1.43,1.43,0,0,0-.86.39l-6.28,5.55L96.4,32l6.08-5.38.22-.19a1.48,1.48,0,0,0,.37-1.12,1.45,1.45,0,0,0-1.44-1.3h-.14a1.45,1.45,0,0,0-.82.35l-7.24,6.4a1.44,1.44,0,0,0-.14,2l.78.9-.85.74a2.39,2.39,0,0,1-1.35.58h-.32L73,32.25h-.19a4.57,4.57,0,0,0-.64,0,5.15,5.15,0,0,0-1.7.45,5.25,5.25,0,0,0-1.26.82L51.16,49.16a5.3,5.3,0,0,0-.52,7.48A5.29,5.29,0,0,0,54.64,58.46Z"></path><path class="cls-2" d="M152.21,103.21s0-.07,0-.1a1.45,1.45,0,0,0-.35-.82l-6.4-7.24a1.44,1.44,0,0,0-2-.15l-.9.79-.74-.85a2.42,2.42,0,0,1-.58-1.35,1.61,1.61,0,0,1,0-.31h0L144,74.64v-.19c0-.22,0-.43,0-.65a5.17,5.17,0,0,0-.46-1.69,5.47,5.47,0,0,0-.81-1.27L127.1,52.78a5.3,5.3,0,0,0-9.3,3.63c0,.13,0,.25,0,.38a5.34,5.34,0,0,0,1.27,3l5.79,6.74a1.43,1.43,0,0,0,1,.49,1.46,1.46,0,0,0,1-.35,1.45,1.45,0,0,0,.49-1.23,1.48,1.48,0,0,0-.34-.8l0,0-.07-.08-5.69-6.63a2.42,2.42,0,0,1-.58-1.35c0-.06,0-.11,0-.17a2.41,2.41,0,0,1,.84-1.9,2.35,2.35,0,0,1,1.76-.59,2.4,2.4,0,0,1,1.66.82l15.63,18.07a2.38,2.38,0,0,1,.37.58,2.51,2.51,0,0,1,.21.77,1.85,1.85,0,0,1,0,.23L138.33,92.8c0,.06,0,.11,0,.16a7.48,7.48,0,0,0,0,.82,5.28,5.28,0,0,0,1.28,3l.73.85-9.17,8-6.49-7.42a5.34,5.34,0,0,1-1.29-3,4.6,4.6,0,0,1,.07-1.31s.17-.93.91-4.9L127.3,73.2l0-.09a2.42,2.42,0,0,1,2.75-2,2.37,2.37,0,0,1,1.53,1,2.48,2.48,0,0,1,.43,1.17,2.37,2.37,0,0,1,0,.65v0l-1.54,10.89a1.22,1.22,0,0,0,0,.33,1.45,1.45,0,0,0,1.25,1.29,1.45,1.45,0,0,0,1.61-1.24l1.53-10.87h0a5.63,5.63,0,0,0,0-1.36,5.29,5.29,0,0,0-1-2.53,5.17,5.17,0,0,0-3.41-2.15,5.31,5.31,0,0,0-6,4.28l-3,16.09c0,.08,0,.22-.08.41s-.14.7-.23,1.17c-.28,1.45-.63,3.25-.67,3.78a8.91,8.91,0,0,0,0,1.37,8.28,8.28,0,0,0,2,4.6l6.49,7.42-.88.76a1.39,1.39,0,0,0-.49,1.13v.1a1.45,1.45,0,0,0,.35.8l6.51,7.4,0,0,0,0a1.45,1.45,0,0,0,1.07.47h.14a1.44,1.44,0,0,0,1.31-1.47.38.38,0,0,1,0-.1,1.38,1.38,0,0,0-.4-.86l-5.54-6.29L144.22,98l5.38,6.08a1.29,1.29,0,0,0,.19.21,1.45,1.45,0,0,0,2.42-1.1Z"></path><path class="cls-2" d="M56.82,121.09a5.28,5.28,0,0,0-1.27-3l-5.79-6.74a1.44,1.44,0,0,0-2.51,1.08,1.44,1.44,0,0,0,.34.8l0,0,.07.09L53.37,120a2.32,2.32,0,0,1,.58,1.34c0,.06,0,.12,0,.17a2.44,2.44,0,0,1-2.6,2.5,2.41,2.41,0,0,1-1.66-.83L34.08,105.14a2.2,2.2,0,0,1-.37-.58,2.53,2.53,0,0,1-.21-.76,1.93,1.93,0,0,1,0-.24l2.82-18.48a1.09,1.09,0,0,0,0-.17,5.48,5.48,0,0,0,0-.81A5.22,5.22,0,0,0,35,81.15l-.74-.85,9.18-8L50,79.75a5.38,5.38,0,0,1,1.29,3,4.6,4.6,0,0,1-.07,1.31c0,.09-.59,3.15-.9,4.8l-3,15.82v.09a2.42,2.42,0,0,1-2.75,2,2.33,2.33,0,0,1-1.53-1,2.57,2.57,0,0,1-.44-1.16,2.35,2.35,0,0,1,0-.65v0L44.17,93a1.82,1.82,0,0,0,0-.33,1.44,1.44,0,0,0-2.86,0l-1.54,10.87v0a5.63,5.63,0,0,0,0,1.36,5.32,5.32,0,0,0,.95,2.54,5.18,5.18,0,0,0,3.41,2.15,6.22,6.22,0,0,0,.85.07,5.33,5.33,0,0,0,5.2-4.35l3-16.1c0-.07,0-.21.08-.39v0c.06-.3.13-.7.23-1.16.28-1.45.63-3.26.67-3.79a8.77,8.77,0,0,0,0-1.36,8.16,8.16,0,0,0-2-4.6l-6.48-7.42.88-.77A1.44,1.44,0,0,0,47,68.55v-.1a1.45,1.45,0,0,0-.35-.81l-6.51-7.4,0,0,0,0a1.47,1.47,0,0,0-1.22-.47,1.44,1.44,0,0,0-1.3,1.48s0,.07,0,.1a1.45,1.45,0,0,0,.39.86l5.55,6.28L30.42,79.86,25,73.77l-.19-.21a1.47,1.47,0,0,0-1.12-.37,1.44,1.44,0,0,0-1.3,1.48.34.34,0,0,0,0,.1,1.45,1.45,0,0,0,.35.81l6.4,7.25a1.44,1.44,0,0,0,2,.14l.9-.78.74.84a2.45,2.45,0,0,1,.58,1.35,1.63,1.63,0,0,1,0,.31v0l-2.82,18.53v.08h0v.1c0,.21,0,.43,0,.64a5.55,5.55,0,0,0,.45,1.7,5.8,5.8,0,0,0,.82,1.26L47.54,125.1a5.22,5.22,0,0,0,3.63,1.8l.38,0a5.28,5.28,0,0,0,3.47-1.3h0a5.32,5.32,0,0,0,1.82-4.16C56.84,121.34,56.83,121.21,56.82,121.09Z"></path></g></g></svg> 