<?xml version="1.0" encoding="UTF-8"?> <svg xmlns="http://www.w3.org/2000/svg" viewBox="0 0 337.18 282.41"><defs><style>.cls-1,.cls-2{fill:#fff;}.cls-2{fill-rule:evenodd;}</style></defs><g id="Layer_2" data-name="Layer 2"><g id="Layer_1-2" data-name="Layer 1"><path class="cls-1" d="M88.21,168.57a26.28,26.28,0,0,1,4.07,2.27l.73.5c1.62,1.13,3.22,2.4,4.93,3.44-.74.54-1.47,1.11-2.21,1.68-.27.21-.55.41-.84.61l-.67-.47c-.21-.14-.4-.29-.6-.43-3-2.19-6.19-5.06-10.08-5.38s-6.19,2.71-9,4.77c-.29.21-.59.41-.89.61a19.64,19.64,0,0,1-4.58,2.18c-.69-1.19-1.36-2.35-2-3.49a17.59,17.59,0,0,0,2.11-.74,19.27,19.27,0,0,0,4.23-2.47L75,170.46c2.06-1.55,4.17-2.92,6.91-3.13a10.58,10.58,0,0,1,1.78,0,14.79,14.79,0,0,1,4.53,1.22"></path><path class="cls-1" d="M136.89,177.16c-3.6-2.11-6.81-5.67-11-6s-7.55,2.35-10.89,4.76l-.42-.28a28.54,28.54,0,0,0-2.69-1.61c1.17-.71,2.34-1.47,3.52-2.19l.07,0a20.82,20.82,0,0,1,8.07-3.27l.44,0a10.49,10.49,0,0,1,4.68.69,16.85,16.85,0,0,1,4.18,2.36c.28.21.56.42.83.64a35.58,35.58,0,0,0,5.21,3.77c-.67.39-1.33.79-2,1.21"></path><path class="cls-1" d="M95.73,176.46c.74-.57,1.47-1.14,2.21-1.68a12.18,12.18,0,0,1,6.25-2.64,11.45,11.45,0,0,1,2.11.05,16.54,16.54,0,0,1,5.58,1.85,28.54,28.54,0,0,1,2.69,1.61l.42.28,1.59,1.13c.78.58,1.57,1.16,2.38,1.71a35.61,35.61,0,0,0-3.48,1.89c-2.86-2.14-6-4.75-9.65-5.06s-6.19,2.72-9,4.77c-.29.21-.59.42-.89.61s-.67.43-1,.62c-.89-.65-1.77-1.3-2.67-1.9-.34-.22-.68-.45-1-.66a19.17,19.17,0,0,0,3.65-2c.29-.2.57-.4.84-.61"></path><path class="cls-1" d="M132.84,180.41c-.2-.15-.4-.3-.61-.44,1.4-.75,2.77-1.63,4.15-2.49l.51-.32c.66-.42,1.32-.82,2-1.21a18.55,18.55,0,0,1,7-2.6c3.51-.45,6.57,1,9.3,3,3.3,2.47,6.66,6.09,11.23,5.48a.65.65,0,0,1,.35,1.25,8.42,8.42,0,0,1-6.91-.77c-3.86-2-7.19-6-11.63-6.33-4.69-.37-8.6,3.24-12.41,5.83l-.62.41c-.78-.62-1.54-1.25-2.3-1.81"></path><path class="cls-1" d="M85,176.41A19.42,19.42,0,0,1,91.24,179c.36.21.7.44,1,.66.9.6,1.78,1.25,2.67,1.9a23.91,23.91,0,0,0,6.23,3.62,8.73,8.73,0,0,0,1.82.43,9.76,9.76,0,0,0,1.87,0,12.16,12.16,0,0,0,4.49-1.37c1.7-.85,3.33-1.92,5-2.95l1.13-.71a35.61,35.61,0,0,1,3.48-1.89,15.66,15.66,0,0,1,4.58-1.37,12.27,12.27,0,0,1,8.69,2.57c.21.14.41.29.61.44.76.56,1.52,1.19,2.3,1.81,2.61,2.09,5.41,4.14,8.93,3.66a.65.65,0,0,1,.35,1.25,8.42,8.42,0,0,1-6.91-.76c-3.86-2-7.19-6-11.63-6.34-4.69-.36-8.6,3.24-12.41,5.83a22.91,22.91,0,0,1-2.16,1.33,15,15,0,0,1-8,2.07c-3.41-.23-6.38-1.87-9.08-3.8-.21-.14-.4-.28-.6-.43-3-2.19-6.19-5.05-10.08-5.37s-6.19,2.71-9,4.76c-.29.22-.59.42-.89.61l-.43.28-2-3.33a20.06,20.06,0,0,0,2.2-1.47c2.34-1.79,4.57-3.65,7.51-4.19.31,0,.62-.1,1-.13a11.13,11.13,0,0,1,3.1.22"></path><path class="cls-1" d="M248.62,168.57a26.39,26.39,0,0,0-4.08,2.27l-.72.5c-1.63,1.13-3.23,2.4-4.94,3.44.75.54,1.47,1.11,2.21,1.68l.84.61.68-.47.59-.43c3-2.19,6.2-5.06,10.08-5.38s6.2,2.71,9,4.77l.89.61A20.38,20.38,0,0,0,270,179l2.13-3.61a17.74,17.74,0,0,1-4.55-1.25,19.34,19.34,0,0,1-4.24-2.47l-1.54-1.19c-2.06-1.55-4.18-2.92-6.91-3.13a10.57,10.57,0,0,0-1.78,0,14.72,14.72,0,0,0-4.53,1.22"></path><path class="cls-1" d="M199.93,177.16c3.6-2.11,6.81-5.67,11-6s7.56,2.35,10.9,4.76l.41-.28A27.49,27.49,0,0,1,225,174c-1.18-.71-2.34-1.47-3.53-2.19l-.07,0a20.82,20.82,0,0,0-8.07-3.27l-.44,0a10.51,10.51,0,0,0-4.68.69,16.85,16.85,0,0,0-4.18,2.36l-.83.64a35.58,35.58,0,0,1-5.21,3.77c.67.39,1.34.79,2,1.21"></path><path class="cls-1" d="M241.09,176.46c-.74-.57-1.46-1.14-2.21-1.68a12.11,12.11,0,0,0-6.25-2.64,11.32,11.32,0,0,0-2.1.05A16.47,16.47,0,0,0,225,174a27.49,27.49,0,0,0-2.7,1.61l-.41.28c-.54.37-1.06.75-1.59,1.13-.79.58-1.58,1.16-2.39,1.71a33.45,33.45,0,0,1,3.48,1.89c2.86-2.14,5.95-4.75,9.65-5.06s6.2,2.72,9,4.77c.29.21.59.42.89.61s.68.43,1,.62c.89-.65,1.77-1.3,2.67-1.9.34-.22.69-.45,1-.66a19.47,19.47,0,0,1-3.65-2l-.84-.61"></path><path class="cls-1" d="M204,180.41c.2-.15.4-.3.61-.44-1.4-.75-2.77-1.63-4.14-2.49l-.52-.32c-.65-.42-1.32-.82-2-1.21a18.55,18.55,0,0,0-6.95-2.6c-3.5-.45-6.57,1-9.3,3-3.3,2.47-6.66,6.09-11.22,5.48a.65.65,0,0,0-.35,1.25,8.4,8.4,0,0,0,6.9-.77c3.86-2,7.19-6,11.63-6.33,4.7-.37,8.6,3.24,12.41,5.83l.62.41c.78-.62,1.54-1.25,2.3-1.81"></path><path class="cls-1" d="M251.82,176.41a19.42,19.42,0,0,0-6.24,2.63c-.35.21-.7.44-1,.66-.9.6-1.78,1.25-2.67,1.9a23.75,23.75,0,0,1-6.23,3.62,8.73,8.73,0,0,1-1.82.43,9.76,9.76,0,0,1-1.87,0,12.22,12.22,0,0,1-4.49-1.37c-1.69-.85-3.33-1.91-5-2.95l-1.14-.71a33.45,33.45,0,0,0-3.48-1.89,15.66,15.66,0,0,0-4.58-1.37,12.3,12.3,0,0,0-8.69,2.57c-.21.14-.41.29-.61.44-.76.56-1.52,1.19-2.3,1.81-2.61,2.09-5.41,4.14-8.92,3.66a.65.65,0,0,0-.35,1.25,8.4,8.4,0,0,0,6.9-.76c3.86-2,7.19-6,11.63-6.34,4.7-.36,8.6,3.24,12.42,5.83a21.58,21.58,0,0,0,2.15,1.33,15,15,0,0,0,8,2.07c3.41-.23,6.38-1.87,9.09-3.8.2-.14.4-.28.59-.43,3-2.19,6.2-5.05,10.08-5.37s6.2,2.71,9,4.76c.3.22.59.42.89.61a18.07,18.07,0,0,0,2.51,1.38l2-3.4a19.33,19.33,0,0,1-4.28-2.5c-2.33-1.79-4.57-3.65-7.51-4.19-.31,0-.62-.1-.94-.13a11.17,11.17,0,0,0-3.11.22"></path><path class="cls-1" d="M249,39.84a113.82,113.82,0,1,0,33.33,80.47A113.45,113.45,0,0,0,249,39.84M168.47,0A120.32,120.32,0,1,1,83.4,35.24,119.95,119.95,0,0,1,168.47,0Z"></path><path class="cls-1" d="M160.47,234.11c-.59.26-1,.39-1,.39a5,5,0,0,0,1-.39"></path><path class="cls-1" d="M123.09,222.15s0,0,0-.19a.43.43,0,0,0,0,.19"></path><path class="cls-1" d="M176.48,234.11a4.78,4.78,0,0,0,1,.39s-.39-.13-1-.39"></path><path class="cls-1" d="M213.86,222.15a.43.43,0,0,0,0-.19c0,.17,0,.24,0,.19"></path><path class="cls-1" d="M178.65,143.61c1.9-6.13,3.62-11.62,7.07-14.68s11.68-5.49,16.39-7.25,16.94,1.62,22.87,2.18,9.24,3.58,11.82,6.32,6.75,10.36,7.24,12.5a7.87,7.87,0,0,0,4.21,5.44,33.57,33.57,0,0,1,7.79,4.69c1.95,1.77,3.9,3.86,3.9,3.86a44.27,44.27,0,0,0-6.61-7.9c-3.22-2.69-6-1.81-6.66-6.23s-1.45-5.9-3.22-8.32a37.25,37.25,0,0,1-3.07-5.15,110.27,110.27,0,0,0,11.36,4.23c5.35,1.57,11.55,1.43,15.67-.38,0,0-9.42,1.77-17.66-2.88a124.75,124.75,0,0,0-16-7.53s7.15-7,14.49-11,14.31-7.43,23.46-5c0,0-9.69-4.37-21.83,1.76s-18.93,12.18-23.55,11.62-11.5-5-16.21-4.37a25.8,25.8,0,0,1-9.15-.56s6.61-16.73,13.41-19.89,15.12-2.14,20.19-4.83,12.14-19.05,19.66-19.15c0,0-4.89-1.58-11.51,6.6s-8.06,10.13-14.49,10.69-13.94-3.07-21,4.93-16.84,20.91-23.28,23-7.24,1.3-8.06-5.21-2.8-19.61.91-26.77,10.6-10,15.94-11.34a15.05,15.05,0,0,0,10.14-8.09c1.91-3.53,3.17-3.9,7.61-4.74s9.15-1.39,12.68-3.43,10.15-8.37,17.66-10.79c0,0-6.52,1.21-11.05,4.74s-6.7,4.65-11.41,5.49a79.39,79.39,0,0,1-10.78.93c-1.72.09-2.89-1-.63-2.7s3.8-1.86,4.71-7.16,2.81-8.08,4.44-12.45a42.69,42.69,0,0,1,2.62-6s-4.16,6.88-6.16,11.06-2.35,8.83-6.15,10.78-3.63,3-4.26,6-2.9,9.48-9.42,11.34-9.06,3.9-12.14,5.2-7.51,2.7-8.06.65-1.54-10.13,0-13.57S177,53.36,179.38,48s1.26-5.11,4.25-8.65,7.61-3.81,10-9.2A33.56,33.56,0,0,0,196,18.41s-1,9-4,11.06-8.52,5.86-10.06,5-1.9-9.39-9-8.64c0,0,8.06,3.25,6.15,12s-5,13.56-10.63,15.52c-5.57-2-8.73-6.79-10.63-15.52s6.16-12,6.16-12c-7.06-.75-7.43,7.8-9,8.64s-7.07-3-10.06-5-4-11.06-4-11.06a33.56,33.56,0,0,0,2.35,11.71c2.36,5.39,7,5.67,10,9.2s1.91,3.26,4.26,8.65,5.34,8.74,6.88,12.17.55,11.53,0,13.57-5,.66-8.06-.65-5.61-3.34-12.13-5.2-8.79-8.37-9.42-11.34-.45-4-4.26-6-4.17-6.6-6.16-10.78-6.16-11.06-6.16-11.06a41.66,41.66,0,0,1,2.63,6c1.63,4.37,3.53,7.16,4.44,12.45s2.44,5.49,4.71,7.16,1.08,2.79-.64,2.7a79.27,79.27,0,0,1-10.77-.93c-4.71-.84-6.89-1.95-11.42-5.49s-11-4.74-11-4.74c7.52,2.42,14.13,8.74,17.67,10.79s8.24,2.6,12.68,3.43,5.7,1.21,7.6,4.74A15.07,15.07,0,0,0,144.26,73c5.34,1.3,12.22,4.18,15.94,11.34s1.72,20.26.9,26.77-1.63,7.25-8.06,5.21-16.21-15-23.27-23-14.59-4.37-21-4.93-7.88-2.51-14.49-10.69-11.5-6.6-11.5-6.6c7.52.1,14.58,16.45,19.65,19.15s13.41,1.67,20.2,4.83S136,115,136,115a25.8,25.8,0,0,1-9.15.56c-4.71-.65-11.6,3.81-16.21,4.37s-11.42-5.48-23.55-11.62-21.83-1.76-21.83-1.76c9.15-2.42,16.12,1,23.46,5s14.49,11,14.49,11a124.75,124.75,0,0,0-16,7.53c-8.24,4.65-17.66,2.88-17.66,2.88,4.12,1.81,10.32,2,15.67.38a110.27,110.27,0,0,0,11.36-4.23,36.73,36.73,0,0,1-3.08,5.15c-1.76,2.42-2.53,3.91-3.21,8.32s-3.44,3.54-6.66,6.23a44.27,44.27,0,0,0-6.61,7.9s1.95-2.09,3.89-3.86a33.78,33.78,0,0,1,7.79-4.69,7.82,7.82,0,0,0,4.21-5.44c.5-2.14,4.67-9.76,7.25-12.5s5.89-5.76,11.82-6.32,18.16-4,22.87-2.18,12.95,4.18,16.39,7.25,5.16,8.55,7.07,14.68c-.52,35.65-10.48,42.4-34.16,50.11-2.8.91-19,1-30.23-.8A8.23,8.23,0,0,0,87.37,195a15,15,0,0,1-7.57,3.17,27.17,27.17,0,0,0,11.59-1.7c5.89-2.33,13.9,1.17,12.61,2.14s-10.17,4.09-10.17,4.09a132.75,132.75,0,0,0,16.44-3c6.2-1.8,11.45,0,13.94.38,2.21.29,16.89-1.39,20.77-2.23,3.23,0,2.64,1.2,2.08,2.95,0,0-3.93,5.79-8.89,8.09s-7.88,1.88-11.69,1.18-6-1.32-8.83-.69-5.91,2.58-11.61,2.09a28.53,28.53,0,0,1-10-2.77c2.67,2.52,9.43,4.93,10.86,5.49s7.68-.7,11.21-1.75,8.69,1.33,8.69,1.33a8.43,8.43,0,0,0-3.26,3.55c-.92,2-.53,5.8-.46,6.72.18-1.05,2.05-5.85,4.67-7.14,2.86-1.39,6.59-1.53,11.62-1.88s7.27-5.16,12.7-7.87,4.08-.63,3.87.62-4.68,4.19-6.93,6.14-2.1,2.72-2.85,5.92-4.28,2.79-6.18,4.6-2.11,2.51-3.94,2.79-9.77,1.05-9.77,1.05,8,.56,10.18,1.32,2.72-1.18,5.23-3,6-2.43,7.81-5.43,1-5.16,5.57-5.72,7.88-4.67,7.88-4.67a36.64,36.64,0,0,1-1.29,6c-.75,1.95-4.42,5-7.27,7s-.13,3.9-2.65,6.27-11.48,3.16-11.48,3.16,12.7-.3,14.61-1.42,2-3,2.37-5.36,5.1-3.28,5.1-3.28,1.83,5.16,1.29,8.85a5.57,5.57,0,0,1-3.17,4.23c1.78-.76,5.43-2.57,6.09-4.92.88-3.14.41-7.74-.07-10s1.9-4.65,2-4.74c.09.09,2.45,2.48,2,4.74s-1,6.9-.07,10c.66,2.35,4.3,4.16,6.09,4.92a5.57,5.57,0,0,1-3.17-4.23c-.55-3.69,1.29-8.85,1.29-8.85s4.75.91,5.09,3.28.48,4.25,2.38,5.36,14.61,1.42,14.61,1.42-9-.79-11.48-3.16.2-4.32-2.65-6.27-6.53-5-7.27-7a36.64,36.64,0,0,1-1.29-6s3.33,4.11,7.88,4.67,3.8,2.72,5.57,5.72,5.3,3.62,7.81,5.43,3.06,3.77,5.23,3,10.18-1.32,10.18-1.32-7.94-.77-9.77-1.05-2-1-3.94-2.79-5.44-1.39-6.18-4.6-.62-4-2.86-5.92-6.72-4.88-6.93-6.14-1.56-3.34,3.88-.62,7.67,7.52,12.7,7.87,8.76.49,11.61,1.88c2.62,1.29,4.5,6.09,4.68,7.14.06-.92.45-4.72-.46-6.72a8.43,8.43,0,0,0-3.26-3.55s5.16-2.37,8.69-1.33,9.78,2.3,11.21,1.75,8.19-3,10.86-5.49a28.53,28.53,0,0,1-10,2.77c-5.71.49-8.83-1.47-11.61-2.09s-5,0-8.84.69-6.72,1.12-11.68-1.18-8.9-8.09-8.9-8.09c-2-3.81-1.56-3.74,1.43-2.68,5.21.88,17.35,2.22,19.34,2,2.49-.33,7.74-2.18,13.94-.38a132.75,132.75,0,0,0,16.44,3s-8.88-3.12-10.17-4.09,6.72-4.47,12.61-2.14a27.17,27.17,0,0,0,11.59,1.7,15,15,0,0,1-7.57-3.17,8.21,8.21,0,0,0-6.53-2.07c-11.25,1.81-27.44,1.71-30.24.8-23.21-7.56-30.44-11.23-32.07-50.11"></path><path class="cls-1" d="M151.64,93.7c-14.58-2.32-12.41,6.64-12.41,6.64,5.8,4.7,12.41-6.64,12.41-6.64"></path><path class="cls-1" d="M108.74,104c-2.31,15,6.44,12.75,6.44,12.75,4.59-5.93-6.44-12.75-6.44-12.75"></path><path class="cls-1" d="M143.26,104.06c1.13,3.77,4.3,2.37,6.43,1.35a4.75,4.75,0,0,1,4.3.42s-2.62-3.58-5.29-4.35-5.44,2.58-5.44,2.58"></path><path class="cls-1" d="M152.44,91.14s4.06-1.63,5.5-4.06S157,81,157,81c-3.84.11-3.39,3.61-3,6a5,5,0,0,1-1.55,4.14"></path><path class="cls-1" d="M125.92,111.22c1.72-1.53,4.89-5.21.9-8.55,0,0-3.94.61-4.89,3.86s2.67,8.18,2.67,8.18a3.89,3.89,0,0,1,1.32-3.49"></path><path class="cls-1" d="M159.3,53.39s-2.26.35-2.8,2.21S158,60.29,158,60.29a2.24,2.24,0,0,1,.75-2c1-.88,2.8-3,.52-4.9"></path><path class="cls-1" d="M135.11,96.58c3.94-1.25,5.21-6.74,3.21-10.69a8,8,0,0,0-5.84-4.37c2,2.79-.63,6.42-1.36,9.76s4,5.3,4,5.3"></path><path class="cls-1" d="M149.44,69c3.94-1.25,5.21-6.73,3.21-10.68a8,8,0,0,0-5.84-4.37c2,2.78-.63,6.41-1.36,9.76s4,5.29,4,5.29"></path><path class="cls-1" d="M167.43,40.37a6.31,6.31,0,0,0-2.48-5c.41,2.59-2.59,4.11-4.21,6.12s.91,5,.91,5c3.09.55,5.8-2.72,5.78-6.1"></path><path class="cls-1" d="M64.11,112.06a8.42,8.42,0,0,0,.79,7.37c.66-3.39,5-3.84,7.94-5.54s1.13-6.6,1.13-6.6c-3.56-2.14-8.36.6-9.86,4.77"></path><path class="cls-1" d="M136.47,26.9c1.83,1.34,4.24-1.15,4.24-1.15.27-2.83-2.71-5.07-5.61-4.83a5.37,5.37,0,0,0-4.16,2.57c2.2-.54,3.7,2.08,5.53,3.41"></path><path class="cls-1" d="M141.78,40.71a6.12,6.12,0,0,0,.58,5.36c.48-2.47,3.67-2.79,5.77-4s.83-4.79.83-4.79c-2.59-1.56-6.09.43-7.18,3.47"></path><path class="cls-1" d="M119,60.61c-3.56-2.14-8.36.6-9.86,4.77a8.38,8.38,0,0,0,.79,7.37c.66-3.39,5-3.84,7.94-5.55S119,60.61,119,60.61"></path><path class="cls-1" d="M128,88.82c4.53-8.65-6.57-13-6.57-13-1.13,13.8,6.57,13,6.57,13"></path><path class="cls-1" d="M117.58,87c4.4-5.25-2.8-10.64-2.8-10.64,1.36,2.09-.28,5.16-.64,7.48S117.58,87,117.58,87"></path><path class="cls-1" d="M154.62,67c-1.73,1.54.67,4.69.67,4.69,6.65-1.15,4.49-10,4.49-10-.27,2.5-3.43,3.78-5.16,5.33"></path><path class="cls-1" d="M107,86.08c3.72-.51,3.85-2.14,3.67-4.44a5.22,5.22,0,0,1,.91-3.6c-7.84,2.6-4.58,8-4.58,8"></path><path class="cls-1" d="M138.37,48.31a5.22,5.22,0,0,1,.91-3.6c-7.84,2.6-4.58,8-4.58,8,3.72-.51,3.85-2.14,3.67-4.44"></path><path class="cls-1" d="M164.51,31.71a5.12,5.12,0,0,1,2.14-3c-8.22-.55-7.14,5.74-7.14,5.74,3.63.93,4.34-.53,5-2.74"></path><path class="cls-1" d="M83.67,105.5c3.71-.51,3.85-2.13,3.66-4.44a5.22,5.22,0,0,1,.91-3.6c-7.83,2.61-4.57,8-4.57,8"></path><path class="cls-1" d="M94.6,116.47c-3.09-2.17-4.25-1-5.62.78a5,5,0,0,1-3,2.06c7.52,3.44,8.64-2.84,8.64-2.84"></path><path class="cls-1" d="M82,135.92c-3.6-1.08-4.36.34-5.11,2.52a5.14,5.14,0,0,1-2.25,2.92c8.19.88,7.36-5.44,7.36-5.44"></path><path class="cls-1" d="M101.78,83.1c9.83-4.27,2.08-16.4,2.08-16.4-12.13,10.45-2.08,16.4-2.08,16.4"></path><path class="cls-1" d="M154.32,32.82c5.49-5.17-2.37-11.29-2.37-11.29-5.6,9.79,2.37,11.29,2.37,11.29"></path><path class="cls-1" d="M113.37,51.77c6.16-8.94-6.64-15.07-6.64-15.07-5,15.44,6.64,15.07,6.64,15.07"></path><path class="cls-1" d="M93.63,74c5.07-1.77,4.53-6.14,2.76-9.25s-1.31-4.83-1.31-4.83C83.58,69.11,93.63,74,93.63,74"></path><path class="cls-1" d="M80.3,124.47c8.22,9,11.32.16,11.32.16-1.78-4.12-5.22-3.34-7.57-1.62s-3.75,1.46-3.75,1.46"></path><path class="cls-1" d="M87.66,139.61c1.75-1.31,3.11-3.64.69-5.92,0,0-6.82.17-2.6,8.32a4.39,4.39,0,0,1,1.91-2.4"></path><path class="cls-1" d="M100.34,114.38c7.84-3.41,1.67-13.09,1.67-13.09-9.68,8.34-1.67,13.09-1.67,13.09"></path><path class="cls-1" d="M74.55,117.64C86.75,121,86,111.55,86,111.55c-7.21-4.64-11.4,6.09-11.4,6.09"></path><path class="cls-1" d="M141,85.58c12.21,3.37,11.41-6.09,11.41-6.09C145.22,74.85,141,85.58,141,85.58"></path><path class="cls-1" d="M135.87,68.92c-6.09-6.38-14.24,3.15-14.24,3.15,11.84,6.37,14.24-3.15,14.24-3.15"></path><path class="cls-1" d="M144.53,46.71c6.51,12,13.59,5.36,13.59,5.36-1.69-8.75-13.59-5.36-13.59-5.36"></path><path class="cls-1" d="M73.34,135.67C65.88,131.21,61,142.46,61,142.46c12.82,2.92,12.38-6.79,12.38-6.79"></path><path class="cls-1" d="M92.53,109.35c4-1.41,3.61-4.89,2.2-7.38s-1-3.85-1-3.85c-9.17,7.38-1.15,11.23-1.15,11.23"></path><path class="cls-1" d="M135.12,75.17c-1.82,2.18-3.2,2.28-3.2,2.28,9.8,6.46,10.71-2.57,10.71-2.57-2.63-3.46-5.69-1.89-7.51.29"></path><path class="cls-1" d="M85.75,69.81C90,61,82.6,56.19,82.6,56.19c-4.83,9,3.15,13.62,3.15,13.62"></path><path class="cls-1" d="M74.77,103.31c-3.35-8.57-11.44-5.69-11.44-5.69,3.07,9.15,11.44,5.69,11.44,5.69"></path><path class="cls-1" d="M133.56,30.36c3.07,9.16,11.44,5.69,11.44,5.69-3.35-8.56-11.44-5.69-11.44-5.69"></path><path class="cls-1" d="M71.69,95.4a6.57,6.57,0,0,0-4.21-8.18,6.14,6.14,0,0,0,4.21,8.18"></path><path class="cls-1" d="M83,130.23c-3.34-8.57-11.44-5.69-11.44-5.69,3.07,9.15,11.44,5.69,11.44,5.69"></path><path class="cls-1" d="M76.32,91.31c-4.83,9,3.16,13.62,3.16,13.62,4.21-8.78-3.16-13.62-3.16-13.62"></path><path class="cls-1" d="M143.43,50.83c-8.41,2.81-4.61,11-4.61,11,7.84-3.09,4.61-11,4.61-11"></path><path class="cls-1" d="M81.9,69.81s-2-3.7-7.13-1.9a5.3,5.3,0,0,0,7.13,1.9"></path><path class="cls-1" d="M103.48,46.64s2-3.71-2.27-7.19a5.58,5.58,0,0,0,2.27,7.19"></path><path class="cls-1" d="M77.46,80.59c4.35.7,8.83-1.44,9.24-3.85,0,0-1.36-4.51-4.8-4.09s-6,4.19-11.18,2.9c0,0,2.39,4.35,6.74,5"></path><path class="cls-1" d="M92.35,56.71c4.35.69,8.83-1.45,9.24-3.86,0,0-1.36-4.51-4.8-4.09s-6,4.19-11.18,2.91c0,0,2.4,4.34,6.74,5"></path><path class="cls-1" d="M89,80.73c-4.07,0-10,5.35-10,5.35s11.59,5.43,15.58-1.68A6.2,6.2,0,0,0,89,80.73"></path><path class="cls-1" d="M164,23.4c2.38-2.36,3-8.84,3-8.84s-9.79,3.4-8.29,9.87a4.92,4.92,0,0,0,5.3-1"></path><path class="cls-1" d="M131.33,31.45s-7.59,10.51-1.65,16a6.26,6.26,0,0,0,4.68-4.87c.79-4.11-3-11.12-3-11.12"></path><path class="cls-1" d="M145.08,26.71a4.29,4.29,0,0,0,3.2-3.34c.55-2.81-2.08-7.61-2.08-7.61s-5.2,7.2-1.12,11"></path><path class="cls-1" d="M93.6,89.28c-3,2.56-4.32,8.23-4.32,8.23s1.81-3.49,5.46-3.25,6.45-.47,5.45-5c0,0-3.58-2.55-6.59,0"></path><path class="cls-1" d="M103.47,56.32c-3,2.56-4.32,8.23-4.32,8.23s1.81-3.49,5.46-3.26,6.45-.46,5.46-5c0,0-3.59-2.56-6.6,0"></path><path class="cls-1" d="M102.91,97.93s7.47,1.64,8.42-3.59c0,0-3.66-3.38-8.42,3.59"></path><path class="cls-1" d="M117.6,46.5s-2.58,7.38,2.34,9c0,0,3.76-3.28-2.34-9"></path><path class="cls-1" d="M158.32,13.79s-6.47,4.17-3.6,8.6c0,0,4.92-.2,3.6-8.6"></path><path class="cls-1" d="M130.2,63s-3.67-3.38-8.43,3.59c0,0,7.47,1.64,8.43-3.59"></path><path class="cls-1" d="M115.31,98.56c-2.62,1.32-4-.18-4-.18s2.79,5.75,7.34,5.33a5.61,5.61,0,0,0,5.27-4.25c-2.45-4.67-6-2.23-8.63-.9"></path><path class="cls-1" d="M65.07,131.23a5.49,5.49,0,0,0,6.48-1.74c-.42-5.28-4.64-4.51-7.55-4.37s-3.57-1.8-3.57-1.8.3,6.42,4.64,7.91"></path><path class="cls-1" d="M124.32,34.54c5.05-1.14,3.73-5.33,3.2-8.27s1.25-3.88,1.25-3.88-6.15,1.18-7,5.79,2.55,6.36,2.55,6.36"></path><path class="cls-1" d="M114.6,39.05a5.48,5.48,0,0,0,6.49-1.73c-.42-5.28-4.64-4.51-7.55-4.38S110,31.15,110,31.15s.31,6.41,4.64,7.9"></path><path class="cls-1" d="M72.21,141.44s.31,6.42,4.64,7.9a5.48,5.48,0,0,0,6.49-1.73c-.42-5.28-4.64-4.51-7.55-4.37s-3.58-1.8-3.58-1.8"></path><path class="cls-1" d="M76,151.26a5.51,5.51,0,0,0-6.73-.73c-4,2.18-3.26,8.69-3.26,8.69s.33-2.05,3.24-2.37,7.24-.2,6.75-5.59"></path><path class="cls-1" d="M197.72,100.34s2.17-9-12.41-6.64c0,0,6.61,11.34,12.41,6.64"></path><path class="cls-1" d="M228.21,104s-11,6.82-6.44,12.75c0,0,8.75,2.21,6.44-12.75"></path><path class="cls-1" d="M187.26,105.41c2.12,1,5.29,2.42,6.43-1.35,0,0-2.77-3.34-5.44-2.58s-5.3,4.35-5.3,4.35a4.78,4.78,0,0,1,4.31-.42"></path><path class="cls-1" d="M180,81s-2.4,3.63-1,6.07,5.51,4.06,5.51,4.06A5,5,0,0,1,183,87c.38-2.38.84-5.88-3-6"></path><path class="cls-1" d="M215,106.53c-1-3.25-4.89-3.86-4.89-3.86-4,3.34-.82,7,.9,8.55a3.87,3.87,0,0,1,1.31,3.49s3.63-4.93,2.68-8.18"></path><path class="cls-1" d="M180.45,55.6c-.55-1.86-2.8-2.21-2.8-2.21-2.29,1.92-.47,4,.52,4.9a2.24,2.24,0,0,1,.75,2s2.07-2.83,1.53-4.69"></path><path class="cls-1" d="M201.84,96.58s4.71-2,4-5.3-3.35-7-1.36-9.76a8,8,0,0,0-5.84,4.37c-2,4-.72,9.44,3.22,10.69"></path><path class="cls-1" d="M184.29,58.27c-2,3.95-.72,9.43,3.22,10.68,0,0,4.71-2,4-5.29s-3.35-7-1.35-9.76a8,8,0,0,0-5.85,4.37"></path><path class="cls-1" d="M175.3,46.47s2.53-3,.91-5-4.62-3.53-4.21-6.12a6.28,6.28,0,0,0-2.48,5c0,3.38,2.69,6.65,5.78,6.1"></path><path class="cls-1" d="M272.05,119.43a8.42,8.42,0,0,0,.79-7.37c-1.5-4.17-6.3-6.91-9.86-4.77,0,0-1.77,4.89,1.13,6.6s7.27,2.15,7.94,5.54"></path><path class="cls-1" d="M200.47,26.9c1.83-1.33,3.34-3.95,5.54-3.41a5.39,5.39,0,0,0-4.16-2.57c-2.9-.24-5.88,2-5.61,4.83,0,0,2.4,2.49,4.23,1.15"></path><path class="cls-1" d="M194.59,46.07a6.12,6.12,0,0,0,.58-5.36c-1.1-3-4.59-5-7.18-3.47,0,0-1.28,3.55.82,4.79s5.3,1.57,5.78,4"></path><path class="cls-1" d="M227,72.75a8.42,8.42,0,0,0,.79-7.37c-1.5-4.17-6.3-6.91-9.86-4.77,0,0-1.77,4.89,1.13,6.59s7.28,2.16,7.94,5.55"></path><path class="cls-1" d="M215.51,75.81s-11.09,4.36-6.56,13c0,0,7.7.79,6.56-13"></path><path class="cls-1" d="M219.36,87s3.81-.84,3.44-3.16-2-5.39-.63-7.48c0,0-7.2,5.39-2.81,10.64"></path><path class="cls-1" d="M181.66,71.67s2.4-3.15.67-4.69-4.9-2.83-5.16-5.33c0,0-2.16,8.87,4.49,10"></path><path class="cls-1" d="M229.91,86.08s3.27-5.44-4.57-8a5.22,5.22,0,0,1,.91,3.6c-.18,2.3-.05,3.93,3.66,4.44"></path><path class="cls-1" d="M202.24,52.75s3.26-5.44-4.57-8a5.18,5.18,0,0,1,.9,3.6c-.18,2.3,0,3.93,3.67,4.44"></path><path class="cls-1" d="M172.43,31.71c.67,2.21,1.38,3.67,5,2.74,0,0,1.07-6.29-7.14-5.74a5.13,5.13,0,0,1,2.13,3"></path><path class="cls-1" d="M253.28,105.5s3.26-5.43-4.57-8a5.24,5.24,0,0,1,.9,3.6c-.18,2.31,0,3.93,3.67,4.44"></path><path class="cls-1" d="M248,117.25c-1.37-1.83-2.53-3-5.62-.78,0,0,1.12,6.28,8.64,2.84a5,5,0,0,1-3-2.06"></path><path class="cls-1" d="M260.11,138.44c-.75-2.18-1.52-3.6-5.11-2.52,0,0-.83,6.32,7.36,5.44a5.09,5.09,0,0,1-2.25-2.92"></path><path class="cls-1" d="M235.17,83.1s10.05-5.95-2.09-16.4c0,0-7.74,12.13,2.09,16.4"></path><path class="cls-1" d="M182.63,32.82s8-1.5,2.37-11.29c0,0-7.86,6.12-2.37,11.29"></path><path class="cls-1" d="M223.58,51.77s11.6.37,6.64-15.07c0,0-12.8,6.13-6.64,15.07"></path><path class="cls-1" d="M243.32,74s10.05-4.84-1.45-14.08c0,0,.45,1.72-1.31,4.83s-2.31,7.48,2.76,9.25"></path><path class="cls-1" d="M256.65,124.47s-1.4.25-3.75-1.46-5.79-2.5-7.57,1.62c0,0,3.09,8.8,11.32-.16"></path><path class="cls-1" d="M248.6,133.69c-2.43,2.28-1.06,4.61.68,5.92s1.91,2.4,1.91,2.4c4.22-8.15-2.59-8.32-2.59-8.32"></path><path class="cls-1" d="M236.6,114.38s8-4.75-1.66-13.09c0,0-6.17,9.68,1.66,13.09"></path><path class="cls-1" d="M262.4,117.64s-4.19-10.73-11.4-6.09c0,0-.8,9.46,11.4,6.09"></path><path class="cls-1" d="M184.52,79.49s-.8,9.46,11.4,6.09c0,0-4.19-10.73-11.4-6.09"></path><path class="cls-1" d="M215.32,72.07s-8.15-9.53-14.24-3.15c0,0,2.4,9.52,14.24,3.15"></path><path class="cls-1" d="M178.82,52.07s7.09,6.62,13.6-5.36c0,0-11.91-3.39-13.6,5.36"></path><path class="cls-1" d="M263.61,135.67s-.45,9.71,12.38,6.79c0,0-4.92-11.25-12.38-6.79"></path><path class="cls-1" d="M244.42,109.35s8-3.85-1.15-11.23c0,0,.36,1.37-1.05,3.85s-1.84,6,2.2,7.38"></path><path class="cls-1" d="M205,77.45s-1.38-.1-3.2-2.28-4.88-3.75-7.51-.29c0,0,.91,9,10.71,2.57"></path><path class="cls-1" d="M251.2,69.81s8-4.65,3.15-13.62c0,0-7.36,4.84-3.15,13.62"></path><path class="cls-1" d="M262.18,103.31s8.36,3.46,11.44-5.69c0,0-8.1-2.88-11.44,5.69"></path><path class="cls-1" d="M203.39,30.36S195.3,27.49,192,36.05c0,0,8.37,3.47,11.44-5.69"></path><path class="cls-1" d="M265.26,95.4a6.14,6.14,0,0,0,4.21-8.18,6.57,6.57,0,0,0-4.21,8.18"></path><path class="cls-1" d="M265.4,124.54s-8.1-2.88-11.45,5.69c0,0,8.37,3.46,11.45-5.69"></path><path class="cls-1" d="M260.62,91.31s-7.36,4.84-3.15,13.62c0,0,8-4.65,3.15-13.62"></path><path class="cls-1" d="M198.13,61.86s3.8-8.22-4.61-11c0,0-3.23,7.94,4.61,11"></path><path class="cls-1" d="M255.05,69.81a5.3,5.3,0,0,0,7.13-1.9c-5.15-1.8-7.13,1.9-7.13,1.9"></path><path class="cls-1" d="M235.73,39.45c-4.24,3.48-2.26,7.19-2.26,7.19a5.57,5.57,0,0,0,2.26-7.19"></path><path class="cls-1" d="M250.25,76.74c.41,2.41,4.89,4.55,9.24,3.85s6.74-5,6.74-5c-5.17,1.29-7.74-2.49-11.18-2.9s-4.8,4.09-4.8,4.09"></path><path class="cls-1" d="M235.36,52.85c.4,2.41,4.89,4.55,9.23,3.86s6.74-5,6.74-5c-5.16,1.28-7.73-2.49-11.17-2.91s-4.8,4.09-4.8,4.09"></path><path class="cls-1" d="M248,80.73a6.2,6.2,0,0,0-5.61,3.67c4,7.11,15.58,1.68,15.58,1.68s-5.89-5.3-10-5.35"></path><path class="cls-1" d="M178.25,24.43C179.74,18,170,14.56,170,14.56s.61,6.48,3,8.84a4.94,4.94,0,0,0,5.31,1"></path><path class="cls-1" d="M207.26,47.44c6-5.48-1.64-16-1.64-16s-3.83,7-3,11.12a6.25,6.25,0,0,0,4.67,4.87"></path><path class="cls-1" d="M191.87,26.71c4.08-3.75-1.13-11-1.13-11s-2.62,4.8-2.07,7.61a4.28,4.28,0,0,0,3.2,3.34"></path><path class="cls-1" d="M243.34,89.28c-3-2.55-6.59,0-6.59,0-1,4.51,1.81,5.21,5.46,5s5.46,3.25,5.46,3.25-1.32-5.67-4.33-8.23"></path><path class="cls-1" d="M232.34,61.29c3.64-.23,5.45,3.26,5.45,3.26s-1.31-5.67-4.32-8.23-6.59,0-6.59,0c-1,4.51,1.81,5.21,5.46,5"></path><path class="cls-1" d="M234,97.93c-4.76-7-8.43-3.59-8.43-3.59.95,5.23,8.43,3.59,8.43,3.59"></path><path class="cls-1" d="M217,55.54c4.93-1.66,2.35-9,2.35-9-6.1,5.76-2.35,9-2.35,9"></path><path class="cls-1" d="M182.23,22.39c2.87-4.43-3.6-8.6-3.6-8.6-1.33,8.4,3.6,8.6,3.6,8.6"></path><path class="cls-1" d="M215.18,66.63c-4.76-7-8.43-3.59-8.43-3.59.95,5.23,8.43,3.59,8.43,3.59"></path><path class="cls-1" d="M225.61,98.38s-1.36,1.5-4,.18-6.18-3.77-8.63.9a5.61,5.61,0,0,0,5.27,4.25c4.55.42,7.33-5.33,7.33-5.33"></path><path class="cls-1" d="M273,125.12c-2.92-.14-7.14-.91-7.55,4.37a5.49,5.49,0,0,0,6.48,1.74c4.33-1.49,4.64-7.91,4.64-7.91s-.66,1.93-3.57,1.8"></path><path class="cls-1" d="M209.42,26.27c-.53,2.94-1.84,7.13,3.2,8.27,0,0,3.4-1.75,2.56-6.36s-7-5.79-7-5.79,1.77.93,1.24,3.88"></path><path class="cls-1" d="M215.86,37.32a5.48,5.48,0,0,0,6.49,1.73c4.33-1.49,4.63-7.9,4.63-7.9s-.65,1.93-3.57,1.79-7.13-.9-7.55,4.38"></path><path class="cls-1" d="M253.61,147.61a5.48,5.48,0,0,0,6.49,1.73c4.33-1.48,4.63-7.9,4.63-7.9s-.66,1.93-3.57,1.8-7.13-.91-7.55,4.37"></path><path class="cls-1" d="M267.64,150.53a5.51,5.51,0,0,0-6.73.73c-.49,5.39,3.83,5.28,6.75,5.59s3.24,2.37,3.24,2.37.79-6.51-3.26-8.69"></path><path class="cls-2" d="M202.76,142.74A14.4,14.4,0,0,1,214.15,138a16.88,16.88,0,0,0-3.12,5.88,50,50,0,0,1,6.22,3.94c4,2.69,4.95-4,10.58-4.11-1.9,2.1-.26,6.1-4.9,7.77,4.52,2.55,1.66,4.9,3.23,7.26-5.89-.81-5.5-7-9.38-4.64-3.65,2.11-6.82,4-10.22,3.5a6.3,6.3,0,0,0,4.33.67,10.68,10.68,0,0,0,1.73,3.63,11.36,11.36,0,0,1-8.45-4.27c-8.38-1.36-11.68-4.89-14.23-8.61a21.15,21.15,0,0,1,12.82-6.28M196.08,149a1,1,0,1,0-1-1.12A1.06,1.06,0,0,0,196.08,149Z"></path><path class="cls-2" d="M112.66,152.12Zm-.07,0Zm-.14-.07.07,0Zm-3-1.78h0l.06,0h0Zm-.21-.14h0l0,0Zm-.75-.56.2.16Zm-.07,0-.21-.16.07,0h0Zm.27.21-.2-.16-.07,0,0,0h0Zm.07.05-.07-.05.05,0Zm.28.2-.07,0,0,0Zm.2.15-.06,0h0Zm.14.09-.07,0h0Zm.07.05-.07-.05h0Zm1.68,1.08-.07,0,.06,0Zm.07,0-.07,0,.06,0Zm.35.2-.07,0,0,0h0Zm.07,0-.07,0,0,0Zm.5.27-.08,0h0Zm.07,0-.07,0h0Zm.07,0-.07,0h0Zm.21.11-.07,0,.07,0ZM108,149.16a37.87,37.87,0,0,1-3.4-3A39.51,39.51,0,0,0,108,149.16Zm.06,0h0l.16.13.07,0-.07,0Zm28.38-4.14-.2,0Zm-.2,0h0Zm.32.06h0l-.13,0Zm10.08,6.37v0Zm-24.94,2.48h0Zm-.08,0-.36,0h0a16.2,16.2,0,0,1-2.09,0h0a14.46,14.46,0,0,0,2.08,0h0Zm.28,0-.18,0Zm.36-.05-.18,0Zm13.25-2.08,0-.28s0-.08,0-.11,0,.07,0,.11A2.4,2.4,0,0,1,135.55,151.74Zm-12.36,9.44c3.82,1.22,13.08-2.21,12.37-9.44h.19c1.33-.07,2.94,1.19,4.66,1.31a19.13,19.13,0,0,0,2.27,0c1.74-.09,3.28-.19,3.66.88a10,10,0,0,0,.2-1c0-.1,0-.21.05-.31a9.71,9.71,0,0,0,.09-1,7.19,7.19,0,0,0-.35-2.51,6.76,6.76,0,0,0-.3-.72,5.12,5.12,0,0,0-1.09-1.43l0,0a5.62,5.62,0,0,0-1.28-.89l0,0-.65-.29-.1,0a12.56,12.56,0,0,0-4.35-.69l-2.21.13h-.16a3.5,3.5,0,0,0,.54-1,1,1,0,0,0,0-.4,1.11,1.11,0,0,0-.22-.18c-1.21-.81-.87-.92-2.27-.64l-.09,0c-7.26,10.73-16.46,10.63-24.2,5.94h-.06a29.11,29.11,0,0,1-3.89-2.85c-.37-.31-.83-.84-1.26-.43s-.27.51-.09.69c-2.68.68-6.07,2.51-6.33,5-.08.75.13.52.51.22a8.9,8.9,0,0,1,3.09-1.66c2.24-.51,3.3,0,5.37-.18.26,0,.5-.06.73-.11-1.08,1.71-3.46,1.55-5.73,2.15-1.76.46-4.66,2.4-4.32,4.44.3,1.84,4.27,1.54,6,1.2,5.46-1,6.06-5.71,8.77-5l-.29-.14.07,0h.22a17.18,17.18,0,0,0,6.47,1.79c-.71.61-1.46,1.2-2.08,1.7-1,.82-.83,1.52.52,1.95,2.58.82,7.36-.62,9.12-4.14l-.09,0,.09,0,1-.19c.39,1.38-3,4-5.15,5.73C121.45,159.92,121.68,160.7,123.19,161.18Zm4.56-7.91a1,1,0,0,0-.64-.62A1,1,0,0,1,127.75,153.27Zm-.64-.62a2.22,2.22,0,0,0-.39-.12A2.22,2.22,0,0,1,127.11,152.65Zm-.39-.13.49-.23Zm3.73-2.14c.22-.15.75-.57,1.42-1.12C131.2,149.81,130.67,150.23,130.45,150.38Zm-1-3.65a20.33,20.33,0,0,0,1.64-1.69l.36-.43,0,0a26.08,26.08,0,0,0,1.57-2.1,19.09,19.09,0,0,0-12.73-4,25.21,25.21,0,0,0-14.18,6.22l.76.67.27.23c.43.36.88.71,1.33,1s1,.73,1.53,1.06l.67.41a25.12,25.12,0,0,0,2.24,1.17h0l.36.16.49.2h0l.36.13a15.83,15.83,0,0,0,4.49,1l.87,0a13.19,13.19,0,0,0,1.78-.11,13,13,0,0,0,2.18-.46l.39-.12a13.17,13.17,0,0,0,2.23-1,3.59,3.59,0,0,0,.38-.21c.28-.16.57-.34.86-.54l.05,0c.28-.18.56-.39.84-.6l.84-.69Z"></path><path class="cls-1" d="M337.18,281.54c0-6.2,0-13.52-.39-19.38,0-.08-.48-.11-1.15-.11a29.85,29.85,0,0,0-3.81.23c-.87.33-.26,9.84-.4,12.22a2.29,2.29,0,0,1-2.32,2c-4.63.09-3.14-3.95-3.45-13.88,0-.42-1.07-.56-2.24-.56a19.56,19.56,0,0,0-3,.23c-.73,12.19-1.63,19.45,6.33,19.45,3.79,0,4.88-2.07,5.14-2.24,0,.06.16,2.16.16,2.16,1,0,3.82-.06,5.16-.11M308.3,267.72c.85,1.76,1.32,4.54,2.05,6.33l-4,.14C306.85,272.4,307.72,269.51,308.3,267.72Zm10.55,14.38c-1.52-7.21-5.3-14.75-7.8-20.3a9,9,0,0,0-2.69-.17,7.07,7.07,0,0,0-2.55.51c-3.14,6.5-6.25,12.87-7.74,20a10.24,10.24,0,0,0,2.61.28,25.42,25.42,0,0,0,3.25-.26c.39-1.29.76-2.6,1.15-3.92l6.65-.51c.47,1.29,1.14,3.12,1.59,4.41a17.21,17.21,0,0,0,2,.11C316.52,282.24,317.67,282.15,318.85,282.1Zm-21.31-9.2c0-3.45,0-7.17-.14-10.6a21.12,21.12,0,0,0-6.2-.39c0,3.59-.17,8.3,0,11.89.14,2.3-.47,4.26-4.62,1.88-.31.64-.53,1.34-.79,2s-.53,1.46-.78,2.19l-.11.33a13.54,13.54,0,0,0,5.86,1.71C295.77,282,297.62,279,297.54,272.9Zm-20.3-10.6a125.1,125.1,0,0,0,.45,19.46H278c.78,0,1.54-.08,2.32-.08s1.43-.06,2.13-.14c1-6.48.93-13.07,1-19.63A21.12,21.12,0,0,0,277.24,262.3Zm-8.66,18.85a21.07,21.07,0,0,0,6.19.39c0-6.56.06-13.15-.95-19.63-.7-.08-1.43-.11-2.13-.14s-1.54,0-2.33-.08H269a73.27,73.27,0,0,0-.59,8.38l-4.52.08c.06-2.74.06-5.21.09-8a21.12,21.12,0,0,0-6.2.39,115.69,115.69,0,0,0,.45,18.62h.34c.78,0,1.54-.08,2.32-.08s1.43-.06,2.13-.14c.34-2.27.56-4.35.71-6.68l4.65-.3C268.44,276.21,268.49,279,268.58,281.15ZM239,281c1.29-2.94,3-6.89,4.18-9.7.39,2.33,1.37,8.47,2,10.29.67.06,1.37.09,2.05.11s.92,0,1.68,0h.31c0-6.39-1-12.92-2-19.37a48.18,48.18,0,0,0-5.44-.25c-1.06,1.68-3,7-4.09,10.06-1.15-3-3.25-7.68-4.32-10.09-1.48.11-4.15.45-5.35.56a121.56,121.56,0,0,0-1.68,18.53h.3c.76,0,.93-.05,1.69,0s1.37-.05,2-.11c.62-1.82,1.32-7.12,1.71-9.45,1.18,2.81,2.67,6.51,4,9.45C237.12,281,238.1,281.15,239,281Zm-25-13.31c.84,1.76,1.32,4.54,2,6.33l-4,.14C212.53,272.4,213.4,269.51,214,267.72Zm10.54,14.38c-1.51-7.21-5.3-14.75-7.79-20.3a9.06,9.06,0,0,0-2.69-.17,7.07,7.07,0,0,0-2.55.51c-3.14,6.5-6.26,12.87-7.74,20a10.21,10.21,0,0,0,2.6.28,25.57,25.57,0,0,0,3.26-.26c.39-1.29.75-2.6,1.15-3.92l6.64-.51c.48,1.29,1.15,3.12,1.6,4.41a17,17,0,0,0,2,.11C222.2,282.24,223.35,282.15,224.53,282.1Zm-36.75-19.23a117.92,117.92,0,0,0,.44,18.89h.34c.79,0,1.54-.08,2.33-.08l1.26-.06,10.49-.25a10.92,10.92,0,0,0,.44-4.4,29.48,29.48,0,0,0-3.81-.23c-1.82,0-3.64.12-5.55.23.39-4.8.22-9.68.25-14.5A20.74,20.74,0,0,0,187.78,262.87Zm-12.37,4.85c.84,1.76,1.32,4.54,2.05,6.33l-4,.14C174,272.4,174.82,269.51,175.41,267.72ZM186,282.1c-1.51-7.21-5.29-14.75-7.79-20.3a9,9,0,0,0-2.69-.17,7.07,7.07,0,0,0-2.55.51c-3.14,6.5-6.26,12.87-7.74,20a10.24,10.24,0,0,0,2.61.28,25.56,25.56,0,0,0,3.25-.26c.39-1.29.76-2.6,1.15-3.92l6.64-.51c.48,1.29,1.15,3.12,1.6,4.41a17.09,17.09,0,0,0,2,.11C183.63,282.24,184.78,282.15,186,282.1Zm-34.9-19.8a123.88,123.88,0,0,0,.45,19.46h.33c.79,0,1.55-.08,2.33-.08s1.43-.06,2.13-.14c1-6.48.93-13.07,1-19.63A21.07,21.07,0,0,0,151.05,262.3Zm-13,.31a6.22,6.22,0,0,0-3.11,3.4c-2,7.86,8.89,7.14,9.08,9.83.14,1.49-1,2.25-2.52,2.39s-4.21-.67-6-1.37a32.66,32.66,0,0,0-.36,3.7c1.57,1.31,5.61,1.9,7.76,1.59,3.62-.42,6.9-2.38,7-5.83.14-3.63-2.24-5.62-6.22-6.69-.84-.19-4.18-.93-3.9-2.36.11-.65.48-1.52,2.16-1.52a11.89,11.89,0,0,1,5.41,1.15,8.36,8.36,0,0,0,1.07-3.95C145.72,261.77,141.12,261,138,262.61Zm-15.14,5.11c.84,1.76,1.32,4.54,2,6.33l-4,.14C121.41,272.4,122.28,269.51,122.87,267.72Zm10.54,14.38c-1.51-7.21-5.3-14.75-7.79-20.3a9,9,0,0,0-2.69-.17,7.07,7.07,0,0,0-2.55.51c-3.14,6.5-6.26,12.87-7.74,20a10.24,10.24,0,0,0,2.61.28,25.56,25.56,0,0,0,3.25-.26c.39-1.29.76-2.6,1.15-3.92l6.64-.51c.48,1.29,1.15,3.12,1.6,4.41a17.09,17.09,0,0,0,2,.11C131.09,282.24,132.24,282.15,133.41,282.1ZM99.88,266.23c1.82,0,6-.45,5.53,2-.37,2-3.59,2.13-5.53,2C99.91,269.09,99.91,267.38,99.88,266.23Zm12.39,14.35a26.18,26.18,0,0,1-6-7.2c2.49-.87,4.57-2.55,4.59-5.47,0-8.66-14.63-5.52-16.65-5-.2,6.48-.42,12.17.39,18.59h.34c.78,0,1.54,0,2.33,0s1.43-.05,2.13-.14c.31-2,.53-5,.67-7.09h.53a21.79,21.79,0,0,0,5,7.49A10,10,0,0,0,112.27,280.58ZM81.21,266.73c2.86,0,4.21,1,5.1,2.5,1.63,2.8.39,7.37-3.56,7.85-6.56.81-8.44-5.83-4.2-9.62A3.8,3.8,0,0,1,81.21,266.73Zm-7-2c-3.39,3.2-4.29,10.71-.76,14.24a13.25,13.25,0,0,0,8.64,3.4c10.62-.28,12.87-15,5.61-19.07a12.57,12.57,0,0,0-6.2-1.65A9.59,9.59,0,0,0,74.2,264.77ZM52,266.15c1.82.14,3.89-.06,6-.06a101.93,101.93,0,0,0,1,15.45c.7.08,1.15.11,1.85.14s1.54.05,2.32.08h.34A102.66,102.66,0,0,0,64,266c2.16-.09,4.21.08,6-.12-2.1,4.69.14-1.23.17-1.82a11.64,11.64,0,0,0-.06-1.77,144.07,144.07,0,0,0-18,0A12.67,12.67,0,0,0,52,266.15Zm-12-3.54a6.22,6.22,0,0,0-3.11,3.4c-2,7.86,8.88,7.14,9.08,9.83.14,1.49-1,2.25-2.52,2.39s-4.21-.67-6-1.37a33.5,33.5,0,0,0-.37,3.7c1.57,1.31,5.61,1.9,7.77,1.59,3.62-.42,6.9-2.38,7-5.83.14-3.63-2.25-5.62-6.23-6.69-.84-.19-4.17-.93-3.89-2.36.11-.65.47-1.52,2.16-1.52a11.92,11.92,0,0,1,5.41,1.15A8.35,8.35,0,0,0,50.34,263C47.68,261.77,43.08,261,40,262.61Zm-5.36,19.07a10.75,10.75,0,0,0,.45-4.4,32.81,32.81,0,0,0-4.37-.26c-1.6,0-3.14.09-4.8.17V274c3.42,0,6.14.08,7.85-.31l.26-3.56a42.73,42.73,0,0,0-8.13-.4c-.06-1.59,0-1.34-.14-2.86,1.9.12,3.73.23,5.55.23a29.58,29.58,0,0,0,3.81-.23,10.92,10.92,0,0,0-.45-4.4l-10.48-.25-1.27-.06a22.48,22.48,0,0,0-2.32-.08l-.9.08c0,6.68-.08,12.9.11,19.38a21,21,0,0,0,5.5.45C27.63,282,30.72,281.87,34.61,281.68ZM5.88,266.23c1.82,0,5.94-.45,5.52,2-.37,2-3.59,2.13-5.52,2C5.9,269.09,5.9,267.38,5.88,266.23Zm12.39,14.35a26.4,26.4,0,0,1-6-7.2c2.5-.87,4.57-2.55,4.6-5.47,0-8.66-14.64-5.52-16.65-5-.2,6.48-.43,12.17.39,18.59H.91c.79,0,1.55,0,2.33,0s1.43-.05,2.13-.14c.31-2,.53-5,.67-7.09h.54a21.79,21.79,0,0,0,5,7.49A10,10,0,0,0,18.27,280.58Z"></path></g></g></svg> 