<?xml version="1.0" encoding="UTF-8"?> <svg xmlns="http://www.w3.org/2000/svg" xmlns:xlink="http://www.w3.org/1999/xlink" xml:space="preserve" width="160.988mm" height="55.6003mm" version="1.1" style="shape-rendering:geometricPrecision; text-rendering:geometricPrecision; image-rendering:optimizeQuality; fill-rule:evenodd; clip-rule:evenodd" viewBox="0 0 96044 33171"> <defs> <style type="text/css"> .str0 {stroke:black;stroke-width:119.318} .fil0 {fill:none} .fil1 {fill:#663614} </style> </defs> <g id="Layer_x0020_1"> <metadata id="CorelCorpID_0Corel-Layer"></metadata> <rect class="fil0" width="96044" height="33171"></rect> <path class="fil1 str0" d="M42782 4031c536,0 971,435 971,972 0,536 -472,1489 -971,2093 -425,-385 -972,-1557 -972,-2093 0,-537 435,-972 972,-972zm0 491c265,0 480,215 480,481 0,265 -215,480 -480,480 -266,0 -481,-215 -481,-480 0,-266 215,-481 481,-481z"></path> <path class="fil1 str0" d="M43106 10036c536,0 971,435 971,972 0,536 -472,1489 -971,2093 -425,-385 -972,-1557 -972,-2093 0,-537 435,-972 972,-972zm0 491c265,0 480,215 480,481 0,265 -215,480 -480,480 -266,0 -481,-215 -481,-480 0,-266 215,-481 481,-481z"></path> <path class="fil1 str0" d="M35758 8924c536,0 971,435 971,972 0,537 -472,1490 -971,2093 -425,-384 -972,-1556 -972,-2093 0,-537 435,-972 972,-972zm0 491c265,0 480,216 480,481 0,265 -215,481 -480,481 -266,0 -481,-216 -481,-481 0,-265 215,-481 481,-481z"></path> <path class="fil1 str0" d="M30496 8004c537,0 972,435 972,971 0,537 -473,1490 -972,2093 -425,-384 -972,-1556 -972,-2093 0,-536 435,-971 972,-971zm0 491c265,0 481,215 481,480 0,266 -216,481 -481,481 -265,0 -481,-215 -481,-481 0,-265 216,-480 481,-480z"></path> <path class="fil1 str0" d="M25842 22929c537,0 972,436 972,972 0,537 -473,1490 -972,2093 -425,-384 -972,-1556 -972,-2093 0,-536 435,-972 972,-972zm0 492c265,0 481,215 481,480 0,266 -216,481 -481,481 -265,0 -481,-215 -481,-481 0,-265 216,-480 481,-480z"></path> <path class="fil1 str0" d="M32487 24643c537,0 972,435 972,971 0,537 -472,1490 -972,2093 -424,-384 -971,-1556 -971,-2093 0,-536 435,-971 971,-971zm0 491c266,0 481,215 481,480 0,266 -215,481 -481,481 -265,0 -480,-215 -480,-481 0,-265 215,-480 480,-480z"></path> </g> </svg> 