<?xml version="1.0" encoding="UTF-8"?> <svg xmlns="http://www.w3.org/2000/svg" xmlns:xlink="http://www.w3.org/1999/xlink" version="1.1" xml:space="preserve" class="u-svg-content" viewBox="0 0 112 112" x="0px" y="0px" style="width: 1em; height: 1em;"><rect y="16" fill="#19237F" width="112" height="80"></rect><path fill="#EDEDED" d="M47.8,16h3.5v33.7H0v-4.8h27.5L0,25.9v-3.8l33.2,22.8h7.7L0,16.8V16h8.8l39,26.9V16z M75,44.9h-7.7L109.4,16 h-5.1L65.1,42.9V16h-3.4v33.7H112v-4.8H85.4L112,26.6v-7L75,44.9z M61.7,96h3.4V70.7l37,25.3h9.9v-0.8L73.2,68.7H81l31,21.2v-3.1 L85.4,68.7H112v-4.8H61.7V96z M0,68.7h27.5L0,87.7v7.8l39.1-26.8h7.8L7.1,96H11l36.8-25.3V96h3.5V63.9H0V68.7z"></path><path fill="#BD0034" d="M112,16v3.6L75,44.9h-7.7L109.4,16H112z M73.2,68.7L112,95.2v-5.3L81,68.7H73.2z M40.9,44.9L0,16.8v5.3 l33.2,22.8C33.2,44.9,40.9,44.9,40.9,44.9z M39.1,68.7L0,95.5V96h7.1l39.8-27.3H39.1z M61.7,16H51.3v33.7H0v14.2h51.3V96h10.4V63.9 H112V49.7H61.7V16z"></path></svg> 