<?xml version="1.0" encoding="UTF-8"?> <svg xmlns="http://www.w3.org/2000/svg" id="Layer_1" data-name="Layer 1" viewBox="0 0 500 500"><defs><style>.cls-1{fill:#fff;}</style></defs><path class="cls-1" d="M0,248.94c0,64.88,51.8,120,123.92,140.11v20.89H245.73V388.76C317.3,368.4,368.6,313.5,368.6,248.94Z"></path><path class="cls-1" d="M121.18,172.26l-5.94-11C98,129.35,119.41,111,122,109A10.59,10.59,0,0,0,109,92.25c-13.47,10.33-33.39,40.14-12.42,79.1l6,11c14.81,27.23,17.36,32,16.48,50.67h21.16C141.09,209,136.7,200.81,121.18,172.26Z"></path><path class="cls-1" d="M193.21,172.26l-5.94-11c-17.2-32,4.16-50.26,6.71-52.28A10.59,10.59,0,0,0,181,92.25c-13.46,10.33-33.39,40.14-12.41,79.1l6,11c14.8,27.23,17.35,32,16.47,50.67h21.17C213.11,209,208.73,200.81,193.21,172.26Z"></path><path class="cls-1" d="M265.23,172.26l-5.94-11c-17.2-32,4.17-50.26,6.71-52.28a10.59,10.59,0,0,0-12.95-16.77c-13.46,10.33-33.38,40.14-12.41,79.1l6,11c14.81,27.23,17.36,32,16.48,50.67h21.16C285.14,209,280.75,200.81,265.23,172.26Z"></path></svg> 