<?xml version="1.0" encoding="UTF-8"?> <svg xmlns="http://www.w3.org/2000/svg" id="Layer_1" data-name="Layer 1" viewBox="0 0 500 500"><defs><style>.cls-1{fill:#fff;}</style></defs><path class="cls-1" d="M370.65,230.54c-7.56-37.81-29.92-56.67-47.34-65.83-25.32-13.32-54.3-13.55-69.84-6.89-21.43,9.19-54.1,42.37-57.76,46.12l24.52,23.88c12-12.29,35.26-33.63,46.72-38.54,5.5-2.36,23.58-3.15,40.43,5.71,15.77,8.3,25.76,22.51,29.71,42.26,5.75,28.72-3,46.87-11.31,57-10.12,12.34-23.81,18-32.25,18-22.59,0-50.24-5.71-92.64-73.89-49.52-79.61-89.16-89.44-133.48-79.72-27.61,6.06-54.5,35.1-63.93,69.06-9.08,32.69-.21,64.75,24.32,88,44,41.62,95.46,26.14,122.24,8.89l11.55,11.55,11.26-60.79-57.64,14.41,9.65,9.65a84.66,84.66,0,0,1-17.08,6.54c-21.42,5.53-39.88.59-56.46-15.11-19.53-18.48-18.86-39.54-14.86-54,6.44-23.17,25-41.86,38.29-44.78,27.47-6,53.72-5.34,97.08,64.37,22.24,35.77,43.71,60,65.63,74,22.11,14.17,41.58,16,56.07,16,20.8,0,43.3-11.68,58.71-30.49C370.65,293.53,377.18,263.19,370.65,230.54Z"></path></svg> 