<?xml version="1.0" encoding="UTF-8"?> <svg xmlns="http://www.w3.org/2000/svg" id="Layer_1" data-name="Layer 1" viewBox="0 0 500 500"><defs><style>.cls-1{fill:#fff;}</style></defs><polygon class="cls-1" points="127.29 193.65 127.29 355.76 22.82 326.94 26.42 134.81 127.29 193.65"></polygon><polygon class="cls-1" points="136.59 383.68 0 343.75 6 144.42 16.81 136.01 12.01 332.95 136.59 371.07 261.18 332.95 256.37 136.01 267.18 144.42 273.19 343.75 136.59 383.68"></polygon><polygon class="cls-1" points="145.9 193.65 145.9 355.76 250.37 326.94 246.77 134.81 145.9 193.65"></polygon><path class="cls-1" d="M321.9,130.47a14.16,14.16,0,0,0-28.31,0v12.15H321.9Z"></path><polygon class="cls-1" points="321.82 154.68 293.59 154.68 293.59 328.17 307.71 368.07 321.82 328.17 321.82 154.68"></polygon></svg> 