<?xml version="1.0" encoding="UTF-8"?> <svg xmlns="http://www.w3.org/2000/svg" id="Layer_1" data-name="Layer 1" viewBox="0 0 500 500"><defs><style>.cls-1{fill:#fff;}</style></defs><path class="cls-1" d="M215,142.11A267.64,267.64,0,0,0,0,250a268.08,268.08,0,0,0,429.91,0A267.63,267.63,0,0,0,215,142.11ZM291.05,212l.54-.61c.71,1.38,1.36,2.77,2,4.16h-.87l-1.66.22Zm-13.38-16.15,0-4.15c1.44,1.54,2.86,3.14,4.2,4.78L280.21,199l-5.82,0-.37-1.21ZM166,185.6v-.14h1.86l.15-.64h3.05v1.32l-.88,1.15H166Zm3,4.13s1.84-.31,2-.31a7.63,7.63,0,0,1,0,1.85l-4.18.26-.8-.94Zm128,36.76h-6.77l-4.13-3.07-4.35.41v2.66h-1.38l-1.48-1.06-7.51-1.92v-4.87l-9.54.75-3,1.59H255l-1.86-.2-4.59,2.57v4.79l-9.39,6.77.78,2.9h1.91l-.5,2.75-1.33.5-.08,7.2,8.11,9.26h3.55l.2-.58h6.36l1.82-1.69h3.61l2,2,5.37.58-.7,7.12,6,10.52-3.14,6,.21,2.82,2.47,2.46v6.8l3.23,4.35v5.65h2.81a84.93,84.93,0,0,1-144.07-86.78v-2.66l3-3.68c1.06-2,2.17-3.94,3.38-5.84l.15,1.54-3.53,4.3c-1.1,2.06-2.12,4.16-3,6.34v4.83l3.51,1.69V230l3.39,5.77,2.77.42.35-2-3.25-5-.64-4.87h1.9l.8,5,4.7,6.84-1.22,2.22,3,4.57,7.42,1.82v-1.19l3,.43-.29,2.1,2.35.43,3.59,1,5.07,5.8,6.51.49.63,5.3-4.44,3.1-.21,4.73-.65,2.89,6.44,8.05.5,2.76s2.32.63,2.6.63,5.23,3.73,5.23,3.73v14.56l1.76.49-1.21,6.71,3,4-.54,6.63,3.9,6.91,5,4.38,5.06.09.48-1.61-3.7-3.14.21-1.55.67-1.92.13-1.93-2.51-.07L201.77,317l2.08-2,.29-1.51-2.33-.66.13-1.42,3.33-.5,5-2.41,1.7-3.11,5.29-6.79-1.2-5.3,1.61-2.82,4.88.15,3.29-2.59L227,277.75l3.62-4.63.65-3-3.32-1.08-2.2-3.59-7.47-.07-5.93-2.25-.28-4.24-2-3.45-5.36-.08-3.1-4.87-2.76-1.36-.14,1.49-5,.29-1.83-2.54-5.23-1.06-4.31,5-6.77-1.13-.5-7.64-5-.86,2-3.73-.58-2.16L165,241.14l-4.09-.5-1.45-3.2.87-3.29L162.6,230l5.19-2.62h10l0,3,3.6,1.69-.27-5.22,2.58-2.62,5.24-3.44.37-2.42,5.23-5.45,5.54-3.07-.48-.41,3.76-3.53,1.37.36.63.79,1.43-1.58.36-.16-1.57-.23L204,204.6v-1.52l.85-.69h1.84l.86.37.74,1.49.89-.14V204l.26.1,2.61-.39.37-1.29,1.49.37v1.4l-1.38,1,.2,1.5,4.71,1.46,0,.05,1.07-.09.08-2.05-3.74-1.69-.2-1,3.1-1.07.13-3-3.25-2-.2-5L210,194.47h-1.62l.41-3.81-6-1.43-2.51,1.9v5.78l-4.5,1.41-1.8,3.78-2,.31v-4.82l-4.23-.59-2.11-1.38-.86-3.12,7.57-4.43,3.72-1.13.37,2.5,2.06-.1.15-1.27,2.16-.29,0-.45-.92-.39-.21-1.32,2.66-.22,1.6-1.68.09-.11h0l.49-.5,5.57-.7,2.47,2.09L206.11,188l8.21,2,1.08-2.75H219l1.28-2.4-2.55-.65v-3l-8-3.53-5.51.63-3.1,1.63.21,3.94-3.26-.48-.5-2.19,3.12-2.83-5.65-.28-1.61.5-.71,1.9,2.11.36-.42,2.11-3.61.23-.55,1.39-5.23.15s-.13-3-.35-3l4.09-.07,3.12-3-1.71-.84-2.25,2.2-3.76-.23-2.24-3.1h-4.8l-5,3.74h4.59l.43,1.35-1.19,1.1,5.07.15.78,1.84-5.72-.23-.28-1.4-3.59-.79-1.92-1.06-4.27,0a84.74,84.74,0,0,1,106,5l-1,1.8-3.92,1.54-1.66,1.79.38,2.1,2,.28,1.23,3,3.48-1.41.57,4.07h-1l-2.86-.42-3.18.53L263,203.93l-4.41.69-.63,3.76,1.86.45-.54,2.41-4.37-.87-4,.87-.83,2.21.69,4.69,2.34,1.1,3.94,0,2.66-.24.81-2.12,4.17-5.4,2.74.57,2.69-2.44.5,1.89,6.64,4.49L276.4,217l-3-.15,1.15,1.62,1.84.41,2.16-.89,0-2.61,1-.48-.76-.82-4.43-2.45-1.17-3.29h3.68l1.17,1.17,3.18,2.73.13,3.3,3.27,3.49,1.23-4.78L288,213l.43,3.93,2.23,2.43,4.43-.07q1.28,3.3,2.28,6.73Zm-123.11-27,2.22-1.06,2,.49-.69,2.69-2.17.69Zm11.81,6.36v1.75h-5.09l-1.9-.52.49-1.23,2.43-1h3.33v1Zm2.33,2.44V210l-1.27.82-1.59.29v-2.8Zm-1.44-.69v-2l1.76,1.58Zm.8,4.07v1.66l-1.21,1.2h-2.71l.43-1.84,1.28-.11.26-.63Zm-6.73-3.38h2.81l-3.59,5-1.48-.8.31-2.12Zm11.49,2.8v1.66h-2.69l-.74-1.08v-1.52h.22Zm-2.49-2.26.78-.8,1.3.8-1,.85Zm108.71,21.95.28-.29c.11.46.22.95.34,1.45Z"></path></svg> 