<?xml version="1.0" encoding="UTF-8"?> <svg xmlns="http://www.w3.org/2000/svg" id="Layer_1" data-name="Layer 1" viewBox="0 0 500 500"><defs><style>.cls-1{fill:#fff;}</style></defs><path class="cls-1" d="M239.78,73.79H6.77A6.77,6.77,0,0,0,.08,81.6L37.62,323.34a6.78,6.78,0,0,0,6.69,5.73H91.36v41.49H67.62l55.66,55.65,55.65-55.65H155.19V329.07h49.13a6.77,6.77,0,0,0,6.7-5.79L246.48,81.54A6.77,6.77,0,0,0,239.78,73.79Zm-76.25,174.6a40.26,40.26,0,1,1-80.51,0S81.53,235,97.18,214.85c13.29-17.09,23.36-36.86,26.1-42.44,2.73,5.58,12.8,25.35,26.09,42.44C165,235,163.53,248.39,163.53,248.39ZM233.8,93.87l-5.12,34.89c-8.37.73-12.19-9.24-42.68,10.62-29,18.9-75.17-8.51-75.17-8.51s-31.91-19.15-56-1.42c-25.83,19-35.11,9.17-35.11,9.17l-6.94-44.7a6.06,6.06,0,0,1,6-7h209A6.07,6.07,0,0,1,233.8,93.87Z"></path></svg> 