<?xml version="1.0" encoding="UTF-8"?> <svg xmlns="http://www.w3.org/2000/svg" id="Layer_1" data-name="Layer 1" viewBox="0 0 500 500"><defs><style>.cls-1{fill:#fff;}</style></defs><path class="cls-1" d="M187.93,236.19c-73.25,0-106.87,51.64-106.87,51.64S55.84,244.6,6.6,241c0,0,57.64,62.45-2.4,136.9,0,0,51.64,3.6,74.45-48,0,0,63.65,56.44,114.08,56.44s122.48-44.43,122.48-72.05C315.21,314.24,276.79,236.19,187.93,236.19Zm43.23,75.65a15.61,15.61,0,1,1,15.61-15.61A15.61,15.61,0,0,1,231.16,311.84Z"></path><path class="cls-1" d="M0,126.92s55.84,8.4,72.65-10.81c0,0,49.23,40.83,83.46-1.21,0,0,35.42,38.43,83.45-1.19,0,0,28.82,33.62,69.65,13.21,0,0,18,33.28-30,32.42-33.62-.6-39.63-19.21-39.63-19.21s-4.81,21.13-40.83,20.41c-30-.6-34.22-7.81-42.62-19.22,0,0-3.57,17.61-40.23,16.82-27.62-.6-40.83-18-40.83-18s-9.61,20.41-38.43,20.41C9.66,160.54,0,126.92,0,126.92Z"></path><path class="cls-1" d="M0,174.35s55.84,8.4,72.65-10.81c0,0,49.23,40.83,83.46-1.2,0,0,35.42,38.43,83.45-1.2,0,0,28.82,33.62,69.65,13.21,0,0,18,33.28-30,32.42-33.62-.6-39.63-19.21-39.63-19.21s-4.81,21.13-40.83,20.41c-30-.6-34.22-7.8-42.62-19.21,0,0-3.57,17.61-40.23,16.81-27.62-.6-40.83-18-40.83-18S65.44,208,36.62,208C9.66,208,0,174.35,0,174.35Z"></path></svg> 