<?xml version="1.0" encoding="UTF-8"?> <svg xmlns="http://www.w3.org/2000/svg" id="Layer_1" data-name="Layer 1" viewBox="0 0 500 500"><defs><style>.cls-1{fill:#fff;}</style></defs><path class="cls-1" d="M305.28,135.3H266.63c-16.66,0-30,13.33-30,30.66v88a12.66,12.66,0,1,0,25.32,0s0-77.32,0-77.32a1.32,1.32,0,0,1,1.32-1.31H266a1.32,1.32,0,0,1,1.32,1.31V393.56a16.33,16.33,0,1,0,32.65,0V265.92c0-.93.43-1.32,1.35-1.32h2.63c.92,0,1.35.39,1.35,1.32V393.56a16.33,16.33,0,1,0,32.66,0V176.62a1.32,1.32,0,0,1,1.32-1.31h2.68a1.32,1.32,0,0,1,1.32,1.31v77.32a12.67,12.67,0,0,0,25.33,0V166c0-17.33-13.33-30.66-30-30.66Z"></path><circle class="cls-1" cx="302.62" cy="103.69" r="24.3" transform="translate(132.17 374.39) rotate(-76.72)"></circle><path class="cls-1" d="M9,256.7a12.66,12.66,0,0,0,15.81-8.39S43.7,186.62,43.7,186.62a2.19,2.19,0,0,1,2-1.34h2.67a1,1,0,0,1,1,1.35l-37.87,124a1.44,1.44,0,0,0,1.31,2H39.38a1.31,1.31,0,0,1,1.3,1.37v90.34a16.33,16.33,0,1,0,32.65,0V313.94a1.36,1.36,0,0,1,1.36-1.36h2.65a1.36,1.36,0,0,1,1.36,1.36v90.34a16.33,16.33,0,0,0,32.66,0s0-90.34,0-90.34a1.31,1.31,0,0,1,1.3-1.37h26.58a1.44,1.44,0,0,0,1.32-2l-37.88-124a1,1,0,0,1,1-1.35h2.67a2.19,2.19,0,0,1,2,1.34s18.92,61.69,18.93,61.69a12.66,12.66,0,1,0,24.21-7.43l-19-62c-2.9-10-8.42-32.95-29.77-32.95H49.37c-19.9,0-26.94,22.89-29.84,32.95-.06.21-19,61.93-19,62A12.67,12.67,0,0,0,9,256.7Z"></path><path class="cls-1" d="M76,90.06a24.3,24.3,0,1,1-24.3,24.3A24.3,24.3,0,0,1,76,90.06Z"></path><path class="cls-1" d="M150.1,288.85c0,.68-12.87,57.53-12.87,57.55a8.33,8.33,0,0,0,16.66,0L166.75,296a.85.85,0,0,1,.85-.87h3.58a.91.91,0,0,1,.91.87s0,109,0,109a10.67,10.67,0,1,0,21.33.05V354c0-.61.28-.86.88-.86h3.53c.6,0,.92.25.92.86,0,0,0,50.92,0,51.12a10.66,10.66,0,1,0,21.32-.05V296a.86.86,0,0,1,.86-.87h3.63a.85.85,0,0,1,.85.87l12.86,50.37a8.33,8.33,0,0,0,16.66,0s-12.87-56.87-12.87-57.55c0-11.34-10.66-20.34-21.56-20.34H171.6C160.71,268.51,150.1,277.51,150.1,288.85Z"></path><circle class="cls-1" cx="196.75" cy="248.49" r="17.36"></circle></svg> 