<?xml version="1.0" encoding="UTF-8"?> <svg xmlns="http://www.w3.org/2000/svg" id="Layer_1" data-name="Layer 1" viewBox="0 0 500 500"><defs><style>.cls-1{fill:#fff;}</style></defs><path class="cls-1" d="M131.21,158.91c-.86,0-1.72,0-2.57.06A42.54,42.54,0,1,0,57.35,138.8c-1.07-.09-2.14-.17-3.23-.17a38.91,38.91,0,0,0-28.3,65.66,38.92,38.92,0,0,0,63.44,44.5,54.73,54.73,0,1,0,42-89.88ZM92.92,174.55c-.1-1.24-.26-2.46-.47-3.66q2,.29,4.11.39Q94.66,172.84,92.92,174.55Z"></path><rect class="cls-1" x="86.49" y="270.02" width="30.35" height="57.66"></rect><rect class="cls-1" y="339.82" width="321.7" height="31.87"></rect><rect class="cls-1" y="381.72" width="321.7" height="31.87"></rect><path class="cls-1" d="M198.79,226s42.48-12.14,56.14,15.18c0,0,34.52-31.68,53.3-7.78,0,0-8.53-40.4-54.06-14.22C254.17,219.19,227.62,190.73,198.79,226Z"></path><path class="cls-1" d="M170.9,145s34.54-9.87,45.64,12.33c0,0,28.06-25.75,43.32-6.32,0,0-6.94-32.84-43.94-11.56C215.92,139.43,194.34,116.3,170.9,145Z"></path><path class="cls-1" d="M224.82,96.15S257,98.67,259.4,120.86c0,0,31.72-12.89,38.48,8.27,0,0,4.46-29.84-33.39-23.53C264.49,105.6,253.56,79.34,224.82,96.15Z"></path></svg> 