<?xml version="1.0" encoding="UTF-8"?> <svg xmlns="http://www.w3.org/2000/svg" id="Layer_1" data-name="Layer 1" viewBox="0 0 500 500"><defs><style>.cls-1{fill:#fff;}</style></defs><path class="cls-1" d="M180.68,152.22A97.78,97.78,0,1,0,278.47,250,97.78,97.78,0,0,0,180.68,152.22Zm-7.28,45.89a7.31,7.31,0,0,1,7.28-7.28h0a7.31,7.31,0,0,1,7.29,7.28v31.15a7.31,7.31,0,0,1-7.29,7.29h0a7.31,7.31,0,0,1-7.28-7.29ZM180.68,303a51.38,51.38,0,0,1-22.82-97.41,7.44,7.44,0,0,1,6.62,13.33,36.54,36.54,0,1,0,33.36.54,7.44,7.44,0,0,1,7-13.13A51.35,51.35,0,0,1,180.68,303Z"></path><path class="cls-1" d="M180.68,136.63h0a8.53,8.53,0,0,1-8.5-8.5V77.82a8.52,8.52,0,0,1,8.5-8.5h0a8.53,8.53,0,0,1,8.51,8.5v50.31A8.53,8.53,0,0,1,180.68,136.63Z"></path><path class="cls-1" d="M180.68,430.68h0a8.52,8.52,0,0,1-8.5-8.5V371.87a8.53,8.53,0,0,1,8.5-8.5h0a8.53,8.53,0,0,1,8.51,8.5v50.31A8.53,8.53,0,0,1,180.68,430.68Z"></path><path class="cls-1" d="M294.05,250h0a8.53,8.53,0,0,1,8.51-8.5h50.3a8.53,8.53,0,0,1,8.51,8.5h0a8.53,8.53,0,0,1-8.51,8.5h-50.3A8.53,8.53,0,0,1,294.05,250Z"></path><path class="cls-1" d="M0,250H0a8.52,8.52,0,0,1,8.5-8.5H58.81a8.52,8.52,0,0,1,8.5,8.5h0a8.52,8.52,0,0,1-8.5,8.5H8.5A8.52,8.52,0,0,1,0,250Z"></path><path class="cls-1" d="M279.59,305.41h0a8.53,8.53,0,0,1,11.57-3.26l43.89,24.59a8.53,8.53,0,0,1,3.26,11.58h0a8.53,8.53,0,0,1-11.57,3.26L282.85,317A8.53,8.53,0,0,1,279.59,305.41Z"></path><path class="cls-1" d="M23.06,161.68h0a8.53,8.53,0,0,1,11.57-3.26L78.52,183a8.53,8.53,0,0,1,3.26,11.58h0a8.53,8.53,0,0,1-11.57,3.26L26.32,173.26A8.53,8.53,0,0,1,23.06,161.68Z"></path><path class="cls-1" d="M237.08,348.35h0a8.51,8.51,0,0,1,11.6,3.15l25,43.64a8.52,8.52,0,0,1-3.15,11.6h0A8.52,8.52,0,0,1,259,403.6l-25-43.65A8.53,8.53,0,0,1,237.08,348.35Z"></path><path class="cls-1" d="M90.81,93.26h0a8.52,8.52,0,0,1,11.6,3.14l25,43.65a8.53,8.53,0,0,1-3.15,11.6h0a8.53,8.53,0,0,1-11.61-3.15l-25-43.64A8.52,8.52,0,0,1,90.81,93.26Z"></path><path class="cls-1" d="M125,348.75h0a8.52,8.52,0,0,1,3.23,11.58l-24.71,43.82a8.53,8.53,0,0,1-11.58,3.23h0A8.52,8.52,0,0,1,88.7,395.8L113.41,352A8.52,8.52,0,0,1,125,348.75Z"></path><path class="cls-1" d="M269.44,92.62h0a8.53,8.53,0,0,1,3.23,11.58L248,148a8.53,8.53,0,0,1-11.59,3.23h0a8.52,8.52,0,0,1-3.22-11.58l24.71-43.82A8.53,8.53,0,0,1,269.44,92.62Z"></path><path class="cls-1" d="M83.05,307.62h0a8.53,8.53,0,0,1-3,11.65L36.72,344.84a8.54,8.54,0,0,1-11.64-3h0a8.53,8.53,0,0,1,3-11.65l43.33-25.57A8.54,8.54,0,0,1,83.05,307.62Z"></path><path class="cls-1" d="M336.29,158.16h0a8.55,8.55,0,0,1-3,11.65L290,195.38a8.53,8.53,0,0,1-11.64-3h0a8.53,8.53,0,0,1,3-11.65l43.32-25.57A8.55,8.55,0,0,1,336.29,158.16Z"></path></svg> 