<?xml version="1.0" encoding="UTF-8"?> <svg xmlns="http://www.w3.org/2000/svg" id="Layer_1" data-name="Layer 1" viewBox="0 0 500 500"><defs><style>.cls-1{fill:#fff;}</style></defs><path class="cls-1" d="M366.05,237.69a96.28,96.28,0,0,0-92.13-96.08,96.16,96.16,0,0,0-184.42.16A96.1,96.1,0,0,0,28.59,306,96.12,96.12,0,0,0,183,404.83,96.12,96.12,0,0,0,337.46,306,95.86,95.86,0,0,0,366.05,237.69Zm-18.15,0a77.67,77.67,0,0,1-17.74,49.48,96.3,96.3,0,0,0-78.68-52.06A95.83,95.83,0,0,0,277.91,169c0-3-.16-6-.43-9A78.14,78.14,0,0,1,347.9,237.69ZM183,378.87a77.76,77.76,0,0,1,0-95.71,77.8,77.8,0,0,1,0,95.71Zm-78.81-218.8a78.15,78.15,0,0,1,69.71,71.24c-.14,2.11-.24,4.23-.24,6.38s.1,4.26.24,6.37c-.07.85-.15,1.7-.24,2.54a74.92,74.92,0,0,1-9.07-1.5,96,96,0,0,0-19.79-7.38A78.1,78.1,0,0,1,103.7,169,79.58,79.58,0,0,1,104.22,160.07ZM259.76,169a78.14,78.14,0,0,1-44.44,70.42,93.8,93.8,0,0,0-10.79,4.2,76.85,76.85,0,0,1-12.21,2.67c-.08-.74-.14-1.48-.2-2.22.14-2.11.24-4.23.24-6.37s-.1-4.27-.24-6.38a78.16,78.16,0,0,1,67.16-70.92A78.82,78.82,0,0,1,259.76,169Zm-138.3,84a77.89,77.89,0,0,1,17.11,1.92,96.18,96.18,0,0,0,19.78,7.38,77.45,77.45,0,0,1,9.57,6.09,78,78,0,0,1-118.2,32A78.15,78.15,0,0,1,121.46,253Zm76.67,15.39A78.2,78.2,0,0,1,211,260.59a93.64,93.64,0,0,0,10.78-4.2,78,78,0,0,1,94.54,43.94,78,78,0,0,1-118.2-32ZM181.73,91a78.17,78.17,0,0,1,73.44,51.68A96.44,96.44,0,0,0,183,196.39a96.45,96.45,0,0,0-74.63-54.08A78.16,78.16,0,0,1,181.73,91ZM18.15,237.69A78.13,78.13,0,0,1,86,160.35c-.26,2.84-.41,5.72-.41,8.64a95.8,95.8,0,0,0,26.61,66.3,96.36,96.36,0,0,0-76.27,51.88A77.67,77.67,0,0,1,18.15,237.69ZM43.42,331a78.4,78.4,0,0,1,1-12.33,95.91,95.91,0,0,0,104.94-.9,95.77,95.77,0,0,0,20.84,74.11A78,78,0,0,1,43.42,331Zm279.21,0a78,78,0,0,1-126.77,60.88,95.77,95.77,0,0,0,20.84-74.11,95.91,95.91,0,0,0,104.94.9A78.4,78.4,0,0,1,322.63,331Z"></path></svg> 